<?xml version="1.0" standalone="no"?>
<!DOCTYPE svg PUBLIC "-//W3C//DTD SVG 20010904//EN"
 "http://www.w3.org/TR/2001/REC-SVG-20010904/DTD/svg10.dtd">
<svg version="1.0" xmlns="http://www.w3.org/2000/svg"
 width="1200.000000pt" height="800.000000pt" viewBox="0 0 1200.000000 800.000000"
 preserveAspectRatio="xMidYMid meet">

<g transform="translate(0.000000,800.000000) scale(0.100000,-0.100000)"
fill="#000000" stroke="none">
<path d="M6408 6818 l-37 -51 25 -66 c26 -70 36 -81 72 -81 33 0 42 -33 49
-194 5 -94 10 -131 15 -111 4 17 6 -100 4 -260 -2 -159 -7 -298 -11 -307 -6
-15 -13 -12 -48 24 -61 59 -116 82 -183 73 -57 -7 -77 -19 -44 -28 21 -5 28
-27 8 -27 -6 0 -21 -8 -32 -17 -17 -15 -17 -13 2 8 20 23 21 27 7 32 -20 8
-65 -13 -65 -30 0 -8 -8 -22 -17 -31 -15 -16 -16 -15 -9 11 4 16 2 27 -4 27
-12 0 -18 -12 -24 -55 -6 -43 -8 -44 -17 -5 -7 33 -7 32 -6 -12 2 -34 -2 -48
-11 -48 -7 0 -11 4 -8 8 3 5 2 20 -2 35 -6 22 -9 24 -24 13 -9 -7 -18 -18 -20
-26 -5 -22 -37 -50 -55 -50 -14 0 -15 2 -4 9 20 13 16 44 -23 178 -69 237
-160 442 -277 623 l-61 95 16 45 17 45 -33 62 c-18 35 -36 63 -40 63 -3 0 -14
-23 -23 -51 l-17 -51 -70 7 -69 7 33 -66 c34 -69 36 -71 108 -80 43 -6 47 -10
100 -89 73 -110 167 -299 209 -420 18 -54 35 -96 37 -94 8 7 -57 181 -105 283
-41 85 -106 197 -185 317 -10 15 -14 27 -8 27 16 0 110 -152 178 -287 61 -122
110 -244 157 -398 28 -90 44 -174 27 -140 -11 21 -11 22 6 -65 6 -26 3 -28
-73 -54 -75 -27 -144 -76 -140 -100 1 -6 -4 -10 -10 -9 -7 2 -13 -5 -13 -15 0
-9 -8 -33 -18 -52 -32 -60 -42 -169 -36 -400 5 -203 5 -243 4 -272 -2 -30 10
-125 19 -143 5 -11 15 -49 21 -85 7 -36 18 -72 26 -81 13 -15 13 -17 -1 -23
-9 -3 -13 -10 -10 -16 3 -5 -3 -10 -14 -10 -14 0 -19 5 -15 15 4 10 0 15 -15
15 -12 0 -21 6 -21 15 0 22 -31 54 -46 48 -8 -3 -11 -9 -8 -14 3 -5 -2 -9 -10
-9 -9 0 -16 -7 -16 -15 0 -8 -9 -15 -20 -15 -24 0 -26 -15 -4 -24 10 -4 14
-14 11 -26 -4 -17 -1 -19 18 -14 13 3 26 0 30 -6 5 -9 1 -10 -14 -5 -17 5 -21
2 -21 -14 0 -14 -6 -21 -20 -21 -15 0 -20 7 -20 25 0 29 -33 70 -49 61 -5 -4
-7 -14 -4 -23 5 -13 2 -15 -11 -10 -13 5 -19 1 -23 -13 -3 -11 -14 -20 -25
-20 -10 0 -17 4 -14 9 3 4 -86 11 -197 15 -111 4 -227 9 -257 11 -30 3 -185 8
-345 11 -159 4 -279 10 -265 13 l24 7 -24 17 c-37 26 -321 25 -365 -1 -40 -24
-65 -18 -65 17 0 26 -24 71 -39 71 -4 0 -17 -9 -29 -20 -21 -20 -22 -20 -22
-2 0 19 -24 32 -65 35 -13 1 -20 9 -20 22 0 17 9 21 60 27 86 11 85 10 85 73
0 35 -4 54 -10 50 -5 -3 -10 -1 -10 4 0 6 4 11 10 11 6 0 8 15 4 35 -3 19 0
43 6 55 10 19 19 20 273 20 206 0 267 3 282 14 21 15 -7 19 -290 36 -410 25
-737 59 -1040 110 -101 17 -212 12 -335 -15 -63 -14 -121 -26 -127 -27 -14 -1
-17 -20 -7 -31 3 -3 14 -2 23 3 30 15 106 32 151 34 98 3 301 -20 311 -36 4
-6 21 -12 40 -14 18 -2 42 -10 53 -17 12 -8 50 -17 86 -21 180 -19 360 -36
400 -36 30 0 40 -3 30 -9 -8 -5 -91 -11 -185 -15 -93 -4 -170 -8 -171 -9 -1
-1 3 -33 8 -72 4 -38 6 -85 3 -103 -5 -25 -2 -37 11 -46 16 -12 15 -14 -7 -19
-14 -4 -55 -20 -92 -37 -62 -28 -67 -33 -67 -61 0 -37 37 -76 99 -104 23 -10
42 -23 42 -29 2 -10 3 -22 7 -88 1 -16 9 -28 20 -30 9 -2 -68 -10 -173 -17
-104 -7 -193 -15 -197 -18 -5 -2 -8 -10 -8 -18 0 -17 -41 -22 -216 -29 l-132
-5 -6 32 c-8 43 -34 64 -90 72 -25 4 -46 11 -46 15 0 4 -9 10 -20 13 -12 3
-20 14 -20 26 0 12 1 21 3 21 1 0 43 5 94 9 51 5 97 12 103 16 8 5 9 27 4 69
-4 33 -8 122 -8 196 l-2 135 -40 12 c-21 6 -58 12 -80 12 -27 1 -44 6 -48 16
-4 11 3 15 27 16 20 1 3 7 -47 18 -81 17 -105 34 -65 46 22 7 109 86 109 99 0
3 -17 6 -38 6 -54 0 -92 20 -92 48 0 13 -5 33 -11 44 -9 17 -13 18 -20 7 -6
-10 -9 -11 -9 -1 0 8 -17 12 -49 12 -53 0 -61 -8 -61 -60 0 -34 -24 -45 -53
-25 -12 8 -27 15 -34 15 -24 0 -13 -21 20 -36 24 -12 26 -14 7 -10 -14 3 -31
6 -37 6 -7 0 -13 7 -13 15 0 8 -7 15 -16 15 -8 0 -12 -5 -8 -11 4 -8 -13 -8
-62 -2 -117 14 -236 5 -528 -42 -423 -67 -686 -101 -1074 -140 -129 -13 -236
-26 -239 -29 -9 -9 20 -8 204 9 356 32 1084 125 1189 151 14 4 24 2 24 -4 0
-6 -17 -14 -37 -18 -21 -3 -56 -10 -77 -14 -22 -5 -43 -7 -47 -4 -4 2 -10 0
-13 -5 -4 -5 -37 -13 -74 -17 -37 -3 -69 -10 -72 -13 -7 -10 -144 -34 -218
-39 -34 -2 -62 -8 -62 -13 0 -5 -17 -9 -37 -9 -21 0 -44 -4 -51 -8 -13 -9 502
-33 678 -32 62 0 137 9 215 25 125 26 254 32 301 15 37 -14 24 -24 -66 -53
-75 -23 -75 -23 -74 -58 1 -18 5 -109 9 -201 8 -166 8 -168 31 -168 52 0 29
-19 -54 -45 -48 -15 -114 -40 -147 -55 -33 -15 -75 -33 -92 -40 -18 -7 -50
-32 -72 -55 -95 -103 -70 -220 59 -278 60 -27 144 -26 243 2 44 12 81 21 83
18 2 -2 10 -27 16 -55 11 -44 16 -52 36 -52 16 0 26 -7 29 -21 5 -17 12 -20
47 -17 36 3 41 6 39 26 -2 12 -2 22 0 22 1 1 61 5 132 9 156 10 206 5 212 -20
4 -14 15 -19 44 -19 35 0 39 3 39 24 0 14 4 27 9 31 5 3 7 21 4 39 -5 34 -5
34 38 40 24 3 105 8 180 11 l136 6 22 -136 c11 -76 24 -141 27 -146 3 -5 16
-9 29 -9 13 0 26 -3 28 -7 6 -9 8 9 -294 -2028 -35 -236 -55 -345 -66 -357
-13 -15 -42 -149 -43 -199 0 -9 11 -28 26 -44 23 -25 29 -27 72 -20 85 13 87
15 103 147 8 70 8 92 -1 98 -8 5 -10 21 -6 46 3 22 38 255 76 519 121 825 246
1665 261 1753 11 61 12 62 43 62 27 0 36 7 65 51 18 28 34 57 35 65 1 7 11 24
23 36 29 33 102 143 112 171 l9 24 265 13 c145 7 270 10 278 7 8 -3 0 -6 -18
-6 -38 -1 -16 103 -182 -856 -156 -897 -156 -895 -168 -904 -11 -7 -33 -97
-33 -136 0 -13 7 -31 16 -39 19 -19 97 -22 112 -3 16 20 34 145 23 165 -9 17
26 223 229 1357 39 215 70 400 70 413 0 18 6 22 33 22 41 0 784 38 897 45 47
3 145 7 219 7 118 1 136 -1 145 -16 9 -13 7 -20 -9 -32 -16 -12 -18 -18 -7
-34 13 -21 16 -71 6 -108 -15 -54 -59 -54 -626 4 -42 4 -68 3 -68 -3 0 -5 128
-22 293 -37 354 -33 339 -31 337 -59 -5 -57 -6 -57 80 -57 l80 0 1 -102 c0
-57 0 -165 -1 -240 -1 -118 1 -139 14 -144 9 -3 14 -10 11 -14 -5 -8 123 -25
132 -17 2 3 11 61 19 129 19 173 24 195 40 209 11 9 14 8 14 -3 0 -9 12 -27
26 -41 l25 -26 -20 -20 c-19 -19 -19 -21 -3 -22 9 -1 25 -1 35 0 9 1 17 -3 17
-10 0 -7 8 -31 18 -53 23 -51 20 -166 -4 -166 -22 0 -106 -45 -126 -67 -49
-54 -64 -174 -29 -241 87 -168 324 -161 396 12 12 28 16 62 14 115 -1 42 1
106 5 143 8 62 10 67 31 66 13 -1 22 -5 19 -9 -2 -4 6 -9 19 -13 13 -3 18 -9
12 -13 -20 -15 -13 -53 11 -59 38 -10 69 -1 66 19 -2 9 2 17 7 17 6 0 15 -8
20 -17 8 -15 11 -10 12 22 1 22 3 45 4 50 1 6 5 26 8 45 4 19 9 68 12 109 2
41 6 76 8 78 2 2 7 -29 10 -69 7 -100 26 -158 52 -159 19 0 19 -1 -2 -9 -20
-8 -20 -11 -8 -47 13 -37 14 -38 62 -38 l48 0 3 37 c4 44 18 54 91 64 47 6 51
9 45 28 -15 46 -15 50 -3 31 7 -11 15 -22 19 -25 4 -3 33 -57 65 -120 52 -104
57 -118 52 -162 -9 -73 16 -144 69 -195 108 -104 276 -74 346 61 31 60 23 161
-18 218 -34 49 -91 85 -150 94 -37 5 -43 10 -53 42 -7 21 -15 69 -18 108 -5
65 -4 73 14 83 18 9 19 16 12 63 -5 29 -11 63 -14 76 -3 12 -1 22 3 22 5 0 40
-71 77 -157 38 -87 69 -160 71 -162 2 -2 15 -1 29 3 l25 6 0 129 c0 113 -2
130 -17 136 -17 6 -17 7 -1 19 13 10 18 31 20 92 l3 79 245 6 c319 8 490 19
490 32 0 6 -32 8 -92 3 -197 -13 -564 -18 -545 -6 11 7 17 24 17 50 0 35 -3
40 -22 40 -32 0 -54 15 -38 25 9 6 6 13 -11 26 -31 23 -35 93 -7 123 16 17 16
21 3 29 -8 4 -15 17 -15 27 0 19 8 20 163 20 89 0 351 -7 582 -15 231 -8 445
-16 475 -17 52 -1 52 -2 12 -5 l-43 -4 5 -82 c3 -45 8 -230 11 -412 3 -181 10
-514 16 -739 7 -282 6 -413 -1 -420 -5 -5 -10 -45 -10 -87 0 -69 3 -80 22 -93
12 -9 32 -16 43 -16 11 0 31 7 43 16 19 13 22 24 22 93 0 42 -5 82 -10 87 -7
7 -14 205 -20 560 -5 302 -12 671 -16 820 -3 149 -2 273 2 276 19 9 639 -13
643 -23 2 -6 51 -82 110 -169 100 -150 108 -159 140 -162 42 -4 31 37 130
-513 112 -621 249 -1380 295 -1635 35 -191 41 -238 30 -250 -10 -12 -9 -32 3
-100 22 -127 27 -134 94 -138 48 -2 61 1 84 21 l28 23 -17 100 c-12 69 -22
103 -35 114 -11 9 -23 39 -29 75 -17 95 -146 812 -201 1115 -27 151 -72 403
-100 560 -28 157 -64 361 -81 454 -37 207 -37 206 -6 206 14 0 27 4 31 9 5 9
19 110 28 213 3 25 8 51 12 57 7 12 203 13 315 2 l65 -6 -3 -32 c-2 -17 2 -34
7 -38 6 -3 11 -17 11 -31 0 -21 4 -24 39 -24 30 0 41 5 46 19 9 31 94 38 273
24 78 -6 82 -7 82 -29 0 -21 5 -24 41 -24 32 0 42 4 46 20 3 11 12 20 19 20 8
0 14 9 14 20 0 11 -4 20 -10 20 -5 0 -10 7 -10 15 0 9 8 14 22 12 17 -1 24 4
26 22 4 26 0 26 137 2 60 -11 113 -7 150 12 30 14 85 68 101 99 46 88 -23 217
-152 285 -47 24 -56 26 -64 13 -8 -13 -10 -13 -10 2 0 12 -12 18 -47 23 -49 6
-121 33 -92 34 13 1 16 17 17 104 1 56 6 143 12 192 14 125 14 122 -20 129
-68 13 -140 38 -140 48 0 14 75 2 148 -23 40 -14 70 -18 100 -14 48 7 52 15
20 39 -22 16 -21 17 27 11 28 -3 95 -10 150 -15 55 -6 116 -12 135 -15 31 -4
32 -3 11 5 -13 6 -74 15 -135 20 -190 16 -465 87 -625 161 -56 26 -106 35
-115 20 -11 -17 -76 -13 -218 15 -135 27 -161 27 -378 9 -55 -4 -55 -4 10 7
l65 12 -65 12 c-168 33 -250 37 -378 20 -213 -28 -272 -19 -272 40 0 31 -1 32
-47 30 -45 -1 -48 -3 -51 -29 -5 -40 -38 -53 -87 -33 -50 21 -92 20 -302 -8
-190 -26 -422 -51 -618 -66 l-120 -9 155 5 c137 4 366 24 473 40 20 3 37 2 37
-3 0 -5 -8 -9 -17 -10 -10 -1 -36 -6 -58 -12 -85 -22 -217 -41 -286 -41 -78 0
-88 -9 -17 -16 24 -2 119 -11 213 -20 167 -16 215 -15 365 6 75 10 150 6 150
-10 0 -4 -57 -11 -127 -14 -188 -9 -445 -26 -471 -32 -13 -2 -20 -9 -17 -14 4
-6 85 -10 199 -10 106 0 221 -3 255 -6 l61 -7 0 -68 c0 -37 5 -71 11 -74 7 -5
5 -15 -5 -31 -9 -13 -16 -39 -16 -58 0 -34 1 -35 48 -41 113 -16 143 -42 64
-58 -23 -4 -42 -12 -42 -18 0 -5 -9 -9 -20 -9 -11 0 -20 5 -20 10 0 6 -4 10
-10 10 -13 0 -40 -54 -40 -79 0 -29 -17 -35 -45 -17 -33 21 -350 23 -377 2
-24 -18 -23 -24 5 -28 41 -7 -176 -18 -753 -38 -151 -5 -282 -10 -290 -11 -10
0 -8 -3 5 -9 19 -8 19 -9 -2 -9 -14 -1 -23 5 -23 14 0 8 -7 15 -15 15 -8 0
-15 6 -15 14 0 26 -18 27 -44 3 -30 -28 -31 -31 -10 -51 14 -15 13 -16 -8 -16
-31 0 -45 10 -57 41 -7 21 -6 28 10 40 25 17 24 29 -1 29 -11 0 -23 7 -26 15
-4 8 -12 15 -20 15 -8 0 -11 6 -8 15 4 8 2 15 -3 15 -13 0 -43 -34 -43 -48 0
-6 -7 -15 -16 -20 -14 -8 -14 -10 1 -25 10 -11 12 -17 4 -17 -6 0 -17 7 -24
16 -11 15 -14 15 -37 0 -13 -9 -28 -13 -32 -9 -8 8 3 122 15 145 19 36 37 224
30 311 -3 48 -3 87 2 87 4 0 15 16 23 37 13 29 14 61 9 167 -15 284 -70 393
-229 453 -68 25 -95 43 -65 43 6 0 17 6 24 14 12 12 11 16 -4 30 -17 16 -22
16 -56 1 l-38 -15 6 68 c16 172 19 457 7 639 l-13 191 34 60 33 60 -30 66
c-25 57 -34 67 -64 76 -62 18 -74 13 -112 -42z m-823 -208 c3 -5 1 -10 -4 -10
-6 0 -11 5 -11 10 0 6 2 10 4 10 3 0 8 -4 11 -10z m825 -868 c22 -22 40 -44
40 -50 0 -22 -36 -12 -70 18 -18 17 -36 30 -39 30 -4 0 -12 9 -19 20 -11 18
-10 20 17 20 21 0 42 -12 71 -38z m-105 -4 c39 -17 30 -27 -15 -16 -22 6 -40
14 -40 19 0 12 24 11 55 -3z m188 -40 c16 -17 16 -18 -2 -18 -10 0 -21 8 -24
18 -2 9 -8 26 -11 37 -7 19 -7 19 6 1 7 -11 21 -28 31 -38z m-536 -10 c-3 -8
-6 -5 -6 6 -1 11 2 17 5 13 3 -3 4 -12 1 -19z m403 -9 c28 -6 20 -8 -37 -6
-43 2 -78 8 -85 16 -11 10 -4 11 37 6 28 -4 66 -11 85 -16z m-277 -126 c-7 -2
-21 -2 -30 0 -10 3 -4 5 12 5 17 0 24 -2 18 -5z m675 -78 c-3 -3 -9 2 -12 12
-6 14 -5 15 5 6 7 -7 10 -15 7 -18z m2821 -410 c-10 -9 -602 -68 -627 -62 -9
2 19 7 63 11 44 4 175 18 290 31 217 23 282 28 274 20z m-686 -72 c-13 -2 -35
-2 -50 0 -16 2 -5 4 22 4 28 0 40 -2 28 -4z m-2100 -173 c3 -95 2 -134 -3
-100 -8 55 -13 267 -6 259 2 -2 6 -74 9 -159z m-5123 110 c0 -5 -5 -10 -11
-10 -5 0 -7 5 -4 10 3 6 8 10 11 10 2 0 4 -4 4 -10z m7750 -65 c171 -19 338
-19 465 0 121 17 239 19 267 4 21 -11 21 -12 3 -25 -10 -8 -33 -14 -49 -14
-50 0 -103 -19 -108 -38 -2 -9 -1 -66 2 -127 3 -60 2 -120 -2 -133 -12 -34
-10 -120 3 -128 6 -3 41 -9 78 -11 36 -2 78 -9 94 -15 32 -12 36 -38 7 -45
-11 -3 -18 -9 -15 -13 3 -4 -18 -11 -46 -14 -39 -5 -49 -10 -45 -21 3 -9 -1
-15 -10 -15 -8 0 -13 -4 -10 -9 3 -5 -1 -11 -9 -15 -8 -3 -15 -15 -15 -26 0
-18 -6 -20 -68 -20 -38 0 -123 3 -190 6 -103 6 -121 10 -125 24 -6 23 -46 28
-297 36 -112 4 -186 10 -174 15 12 4 24 14 27 22 3 8 21 17 41 21 49 9 86 56
86 107 0 77 -39 115 -157 154 -56 18 -77 35 -44 35 41 0 51 11 51 56 0 24 -4
44 -10 44 -15 0 -12 29 5 46 9 10 15 34 15 65 l0 49 48 0 c26 0 108 -7 182
-15z m-5553 -31 c-3 -3 -12 -4 -19 -1 -8 3 -5 6 6 6 11 1 17 -2 13 -5z m-10
-80 c-3 -3 -12 -4 -19 -1 -8 3 -5 6 6 6 11 1 17 -2 13 -5z m5270 -226 c-3 -8
-6 -5 -6 6 -1 11 2 17 5 13 3 -3 4 -12 1 -19z m-5680 -30 c-3 -8 -6 -5 -6 6
-1 11 2 17 5 13 3 -3 4 -12 1 -19z m-77 -14 c0 -8 -5 -12 -10 -9 -6 4 -8 11
-5 16 9 14 15 11 15 -7z m315 7 c3 -5 1 -12 -5 -16 -5 -3 -10 1 -10 9 0 18 6
21 15 7z m5555 -63 c0 -15 -2 -28 -4 -28 -2 0 -11 -3 -20 -6 -13 -5 -16 2 -16
38 0 25 3 48 7 52 12 11 33 -25 33 -56z m-5960 19 c0 -5 -4 -5 -10 -2 -5 3
-10 14 -10 23 0 15 2 15 10 2 5 -8 10 -19 10 -23z m3456 -15 c-4 -3 -11 -1
-18 6 -8 8 -8 15 3 28 13 16 14 16 17 -5 2 -13 1 -25 -2 -29z m-2678 -29 c-16
-2 -40 -2 -55 0 -16 2 -3 4 27 4 30 0 43 -2 28 -4z m2762 3 c0 -2 -7 -7 -16
-10 -8 -3 -12 -2 -9 4 6 10 25 14 25 6z m143 -26 c4 -17 0 -20 -30 -20 -20 0
-32 4 -28 10 3 6 13 10 21 10 8 0 14 5 14 10 0 18 18 10 23 -10z m-1283 -5 c0
-8 6 -15 13 -15 8 0 7 -4 -3 -10 -23 -15 -30 -12 -30 15 0 14 5 25 10 25 6 0
10 -7 10 -15z m120 6 c0 -5 -7 -14 -15 -21 -13 -10 -15 -9 -15 9 0 12 6 21 15
21 8 0 15 -4 15 -9z m2440 -20 c0 -6 -15 -11 -32 -11 -18 -1 -58 -3 -88 -5
-54 -4 -403 -20 -650 -30 -69 -3 -160 -8 -202 -11 l-78 -6 0 26 0 26 148 1
c81 1 208 4 282 8 249 12 620 13 620 2z m75 -1 c-3 -5 -17 -10 -30 -10 -13 0
-27 5 -30 10 -4 6 8 10 30 10 22 0 34 -4 30 -10z m-3388 -16 c-3 -3 -12 -4
-19 -1 -8 3 -5 6 6 6 11 1 17 -2 13 -5z m5703 -29 c67 -25 191 -56 201 -49 5
2 23 -3 41 -12 108 -54 141 -176 66 -239 -29 -25 -38 -27 -97 -23 -41 2 -94
15 -138 32 -66 26 -92 46 -62 46 15 0 5 106 -12 126 -10 12 -13 12 -25 -3 -10
-14 -13 -15 -14 -4 0 8 10 25 22 38 13 14 18 27 13 31 -6 4 -16 19 -24 35 -16
29 -30 34 -49 15 -9 -9 -12 -9 -12 1 0 9 -9 12 -25 9 -16 -4 -25 -1 -25 8 0
26 51 23 140 -11z m-5920 3 c0 -6 -6 -5 -15 2 -8 7 -15 14 -15 16 0 2 7 1 15
-2 8 -4 15 -11 15 -16z m120 -11 c0 -8 -99 -7 -104 1 -2 4 10 8 27 9 17 1 35
7 40 12 9 9 37 -8 37 -22z m78 -7 c21 0 46 23 36 32 -3 3 57 7 132 7 76 1 135
-1 131 -5 -4 -4 -56 -7 -115 -6 -83 2 -111 -1 -127 -13 -16 -13 -17 -17 -6
-24 9 -6 -4 -11 -39 -16 -44 -6 -56 -4 -66 10 -10 14 -9 20 4 36 16 19 17 19
24 -1 4 -11 16 -20 26 -20z m511 25 c2 -3 -41 -5 -97 -5 -56 0 -102 4 -102 9
0 8 190 5 199 -4z m-384 -55 c3 -5 1 -10 -4 -10 -6 0 -11 5 -11 10 0 6 2 10 4
10 3 0 8 -4 11 -10z m115 -6 c0 -2 -9 -4 -20 -4 -11 0 -20 4 -20 9 0 5 9 7 20
4 11 -3 20 -7 20 -9z m2203 9 c-23 -2 -64 -2 -90 0 -26 2 -7 3 42 3 50 0 71
-1 48 -3z m78 -11 c-7 -2 -18 1 -23 6 -8 8 -4 9 13 5 13 -4 18 -8 10 -11z
m354 5 c22 -2 -43 -4 -145 -5 -102 -1 -180 2 -174 6 11 6 226 6 319 -1z m2805
-3 c0 -2 -12 -4 -27 -4 -21 0 -24 3 -14 9 13 8 41 5 41 -5z m-1820 -4 c0 -5
-24 -11 -52 -12 l-53 -1 60 -7 60 -7 -79 -1 c-67 -2 -77 0 -66 12 6 8 30 17
53 19 23 2 50 4 60 5 9 1 17 -2 17 -8z m-6570 -9 c0 -5 -13 -11 -30 -13 -30
-5 -41 6 -17 15 20 9 47 8 47 -2z m3173 2 c-18 -2 -48 -2 -65 0 -18 2 -4 4 32
4 36 0 50 -2 33 -4z m865 -2 c2 -1 1 -5 -2 -9 -3 -5 11 -16 30 -25 42 -21 59
-22 24 -2 -14 8 -20 14 -15 14 17 0 61 -28 45 -29 -13 0 -13 -1 0 -11 12 -8 9
-9 -10 -5 -21 5 -21 4 5 -9 23 -11 25 -14 10 -14 -11 0 -63 22 -115 49 l-95
50 60 -4 c33 -3 61 -5 63 -5z m1875 2 c-51 -2 -135 -2 -185 0 -51 1 -10 3 92
3 102 0 143 -2 93 -3z m-2930 -10 c-24 -2 -62 -2 -85 0 -24 2 -5 4 42 4 47 0
66 -2 43 -4z m3270 0 c-40 -2 -106 -2 -145 0 -40 1 -8 3 72 3 80 0 112 -2 73
-3z m-3500 -10 c-24 -2 -62 -2 -85 0 -24 2 -5 4 42 4 47 0 66 -2 43 -4z
m-1008 -24 c6 -4 44 -10 85 -12 70 -3 69 -3 -23 -5 -63 -1 -96 2 -92 8 4 6
-12 10 -42 10 -26 0 -55 5 -63 10 -10 7 7 8 55 4 39 -4 75 -10 80 -15z m803
14 c-26 -2 -71 -2 -100 0 -29 2 -8 3 47 3 55 0 79 -1 53 -3z m2942 -13 c96 -6
38 -7 -175 -3 -201 3 -324 8 -330 15 -10 10 157 6 505 -12z m1418 13 c-16 -2
-40 -2 -55 0 -16 2 -3 4 27 4 30 0 43 -2 28 -4z m-4595 -10 c-23 -2 -64 -2
-90 0 -26 2 -7 3 42 3 50 0 71 -1 48 -3z m-2433 -16 c0 -7 -6 -19 -12 -25 -10
-10 -10 -15 -1 -20 9 -6 9 -17 -2 -47 -16 -47 -19 -115 -5 -115 6 0 10 -7 10
-16 0 -8 -4 -13 -9 -10 -5 4 -11 2 -13 -3 -7 -18 -197 -81 -245 -81 -53 0 -62
4 -86 40 -33 47 -12 145 40 192 25 23 87 48 115 47 23 -1 156 36 166 46 11 10
42 5 42 -8z m2203 6 c-18 -2 -48 -2 -65 0 -18 2 -4 4 32 4 36 0 50 -2 33 -4z
m-763 -22 c0 -12 -80 -19 -292 -27 -117 -4 -168 -2 -168 5 0 7 24 11 58 12 31
1 118 5 192 8 74 4 152 8 173 9 20 1 37 -2 37 -7z m317 2 c-20 -2 -52 -2 -70
0 -17 2 0 4 38 4 39 0 53 -2 32 -4z m-234 -10 c-13 -2 -35 -2 -50 0 -16 2 -5
4 22 4 28 0 40 -2 28 -4z m2833 -13 c13 0 24 -5 24 -11 0 -7 8 -17 17 -24 16
-12 16 -14 -2 -31 -12 -13 -20 -15 -22 -7 -8 24 -45 63 -59 63 -8 0 -14 5 -14
11 0 6 7 8 16 5 9 -3 27 -6 40 -6z m-829 -416 c-3 -3 -12 -4 -19 -1 -8 3 -5 6
6 6 11 1 17 -2 13 -5z m842 -90 c2 -2 -52 -4 -122 -4 -79 0 -128 4 -133 11 -4
8 31 9 122 4 71 -4 131 -9 133 -11z m621 -24 c0 -5 -5 -10 -11 -10 -5 0 -7 5
-4 10 3 6 8 10 11 10 2 0 4 -4 4 -10z m-1447 -27 c-7 -2 -21 -2 -30 0 -10 3
-4 5 12 5 17 0 24 -2 18 -5z m437 -480 c11 -33 14 -35 20 -18 5 13 7 5 6 -22
-1 -51 -12 -53 -49 -8 -24 29 -26 36 -16 59 16 35 23 33 39 -11z m224 12 c-4
-8 -10 -12 -15 -9 -11 6 -2 24 11 24 5 0 7 -7 4 -15z m590 -46 c-4 -8 0 -9 15
-4 31 9 26 -2 -9 -20 -16 -8 -39 -25 -50 -37 -11 -12 -20 -20 -21 -17 -10 54
-9 61 11 66 11 3 20 9 20 14 0 5 9 9 21 9 12 0 17 -4 13 -11z"/>
<path d="M10128 4323 c7 -3 16 -2 19 1 4 3 -2 6 -13 5 -11 0 -14 -3 -6 -6z"/>
<path d="M5882 5910 c0 -8 6 -31 13 -50 7 -19 13 -28 13 -20 0 8 -6 31 -13 50
-7 19 -13 28 -13 20z"/>
<path d="M5911 5810 c0 -8 4 -24 9 -35 5 -13 9 -14 9 -5 0 8 -4 24 -9 35 -5
13 -9 14 -9 5z"/>
<path d="M3566 5151 c-2 -3 -6 -18 -10 -33 -10 -44 -89 -58 -211 -38 -115 20
-229 12 -370 -25 l-130 -33 95 -1 c52 0 254 -19 448 -43 286 -34 355 -39 361
-29 17 26 92 31 230 14 125 -15 148 -15 315 1 308 28 461 35 770 36 219 1 296
4 288 12 -12 12 -15 12 -307 28 -268 15 -311 18 -680 51 -337 31 -389 31 -513
3 -74 -16 -136 -18 -162 -4 -10 5 -21 23 -25 40 -6 28 -9 30 -51 28 -25 -1
-46 -4 -48 -7z"/>
<path d="M10282 5138 c-7 -7 -12 -24 -12 -39 0 -26 3 -27 68 -34 37 -4 72 -11
79 -17 7 -5 20 -8 30 -5 14 4 14 5 -4 6 -18 1 -22 8 -25 44 -2 33 -7 42 -20
41 -10 -1 -15 2 -12 7 3 5 -11 9 -30 9 -19 0 -38 -5 -42 -11 -5 -8 -8 -8 -13
0 -5 8 -10 8 -19 -1z"/>
<path d="M10662 5051 c-67 -15 -137 -26 -155 -24 -25 2 -19 -2 28 -21 97 -40
117 -41 180 -11 104 49 174 66 263 66 48 -1 82 3 82 9 0 6 -52 10 -137 9 -110
-1 -163 -7 -261 -28z"/>
<path d="M11083 5063 c9 -2 23 -2 30 0 6 3 -1 5 -18 5 -16 0 -22 -2 -12 -5z"/>
<path d="M7593 5043 c31 -2 83 -2 115 0 31 2 5 3 -58 3 -63 0 -89 -1 -57 -3z"/>
<path d="M2818 5013 c7 -3 16 -2 19 1 4 3 -2 6 -13 5 -11 0 -14 -3 -6 -6z"/>
<path d="M2598 4783 c6 -2 18 -2 25 0 6 3 1 5 -13 5 -14 0 -19 -2 -12 -5z"/>
<path d="M2648 4773 c7 -3 16 -2 19 1 4 3 -2 6 -13 5 -11 0 -14 -3 -6 -6z"/>
<path d="M91 4758 c-47 -13 -36 -16 29 -9 39 5 48 8 30 12 -14 3 -40 1 -59 -3z"/>
<path d="M5564 3114 c-22 -9 14 -64 41 -64 33 0 56 10 49 22 -4 6 -1 14 6 18
23 14 -1 30 -43 29 -23 0 -47 -3 -53 -5z"/>
</g>
</svg>
