<?xml version="1.0" standalone="no"?>
<!DOCTYPE svg PUBLIC "-//W3C//DTD SVG 20010904//EN"
 "http://www.w3.org/TR/2001/REC-SVG-20010904/DTD/svg10.dtd">
<svg version="1.0" xmlns="http://www.w3.org/2000/svg"
 width="1200.000000pt" height="800.000000pt" viewBox="0 0 1200.000000 800.000000"
 preserveAspectRatio="xMidYMid meet">

<g transform="translate(0.000000,800.000000) scale(0.100000,-0.100000)"
fill="#000000" stroke="none">
<path d="M7848 7323 c-10 -2 -18 -9 -18 -14 0 -6 -4 -8 -8 -5 -11 6 -84 -27
-98 -45 -6 -8 -24 -54 -39 -102 l-28 -89 22 -54 23 -53 -65 -103 c-198 -318
-312 -575 -442 -998 -32 -102 -59 -187 -61 -189 -2 -3 -55 21 -117 52 -131 66
-183 84 -279 97 -71 10 -172 4 -163 -10 3 -4 -10 -11 -28 -14 -17 -4 -59 -18
-92 -32 -33 -14 -65 -26 -72 -28 -23 -4 -112 -86 -140 -129 -16 -23 -35 -42
-43 -43 -8 0 -25 -4 -38 -8 -16 -5 -37 -1 -66 12 -61 29 -174 50 -306 57 -142
8 -149 10 -120 33 l22 17 -22 20 c-17 15 -24 17 -38 7 -54 -38 -75 -44 -111
-34 -36 10 -177 9 -188 -2 -3 -3 0 -12 7 -21 7 -9 11 -17 8 -20 -2 -2 -42 -7
-88 -11 -49 -4 -76 -10 -65 -14 30 -10 1 -22 -38 -15 -27 5 -42 0 -84 -28 -59
-40 -115 -50 -190 -35 -51 10 -54 10 -80 -17 l-28 -27 4 -272 c4 -353 0 -320
36 -326 17 -3 -35 -6 -115 -5 -139 0 -148 -1 -198 -27 l-52 -27 -6 27 c-10 39
-25 57 -35 40 -7 -11 -9 -11 -9 0 0 9 -13 12 -48 9 -64 -5 -72 -11 -72 -58 0
-36 -3 -40 -40 -56 -22 -10 -40 -20 -40 -23 0 -7 -176 6 -255 19 -33 6 -78 13
-100 17 -63 10 -226 5 -343 -11 -59 -8 -188 -26 -287 -39 -224 -31 -439 -52
-710 -68 -183 -11 -202 -14 -150 -21 107 -15 225 -19 225 -9 0 6 -6 12 -12 15
-7 2 -2 4 12 4 24 -1 272 23 450 43 143 16 220 20 220 10 0 -12 -34 -22 -54
-14 -9 4 -16 1 -16 -6 0 -7 -7 -10 -15 -7 -8 4 -17 2 -20 -3 -3 -5 -13 -9 -23
-9 -9 0 -55 -5 -102 -10 -47 -6 -130 -14 -185 -18 l-100 -7 150 -7 c83 -4 311
-18 507 -30 356 -23 453 -22 573 6 17 4 36 8 43 8 6 0 12 4 12 7 0 11 90 4
123 -9 15 -6 27 -17 27 -26 0 -8 1 -18 3 -22 1 -4 -14 -11 -33 -15 -19 -5 -59
-16 -87 -24 l-53 -15 0 -53 0 -53 -177 -6 c-98 -4 -369 -12 -602 -18 l-423
-12 -17 22 c-17 22 -17 22 -206 12 -165 -8 -191 -12 -202 -28 -12 -16 -33 -18
-188 -21 l-174 -3 -7 25 c-3 14 -10 23 -15 20 -5 -3 -9 6 -9 19 0 14 -7 30
-15 37 -13 10 -19 10 -34 -4 -17 -16 -19 -15 -35 9 -9 14 -14 29 -11 34 3 5
33 12 67 16 101 10 98 8 98 75 l0 59 37 4 c25 3 17 5 -22 5 -80 0 -98 3 -55
11 l35 6 1 97 1 98 -36 10 c-20 5 -41 10 -48 10 -6 0 -24 5 -39 10 -26 10 -26
12 -10 28 22 22 139 23 283 3 91 -13 126 -13 320 2 120 9 279 20 353 24 146 7
135 14 -50 28 -52 3 -102 11 -112 16 -9 5 -28 9 -42 9 -14 0 -26 5 -26 10 0
14 38 13 330 -10 140 -11 280 -19 310 -19 34 1 12 5 -55 10 -233 17 -499 41
-708 65 -264 29 -317 30 -475 4 -68 -11 -135 -17 -150 -14 -59 13 -82 26 -82
49 0 56 -95 73 -141 24 -31 -34 -149 -64 -222 -56 -107 10 -286 -9 -392 -43
-55 -17 -109 -36 -120 -40 -17 -8 -171 -51 -233 -65 -106 -25 -160 -37 -232
-51 -47 -9 -105 -22 -130 -29 l-45 -12 59 -8 c35 -4 134 -3 235 4 444 30 831
40 857 23 10 -6 22 -161 29 -346 0 -5 -31 -19 -70 -31 -174 -56 -217 -90 -231
-184 -9 -56 23 -121 75 -157 43 -29 118 -32 196 -9 l49 15 23 -27 c12 -16 22
-34 23 -41 0 -7 11 -24 25 -37 29 -30 65 -33 65 -6 0 15 11 19 77 25 42 3 109
6 149 6 63 0 75 -3 84 -20 23 -43 75 -11 75 47 0 36 2 38 40 45 22 4 103 7
181 7 l141 1 6 -67 c4 -38 7 -87 7 -110 0 -33 5 -46 26 -62 l26 -21 -97 -472
c-231 -1128 -277 -1342 -295 -1367 -25 -36 -45 -152 -31 -179 12 -23 67 -38
99 -28 33 11 68 130 57 190 -6 30 71 415 250 1256 30 140 66 311 80 380 41
198 41 197 78 209 24 8 43 27 68 66 19 30 37 55 40 55 13 0 99 121 99 139 0
11 4 22 9 26 6 3 209 12 453 20 244 8 513 16 599 19 177 7 169 11 169 -80 0
-39 2 -42 43 -58 23 -9 59 -16 79 -16 43 0 53 -11 38 -40 -9 -17 -21 -20 -79
-20 -73 0 -273 -18 -280 -26 -13 -13 18 -14 114 -4 58 7 108 10 110 8 2 -1 -4
-19 -14 -38 -14 -31 -20 -35 -53 -34 -21 1 -35 -3 -32 -7 2 -4 -10 -4 -28 2
-43 12 -61 12 -53 -1 4 -6 11 -7 17 -4 6 4 13 2 17 -4 6 -9 53 -22 94 -25 22
-2 21 -5 -4 -64 -30 -71 -24 -166 14 -199 24 -20 27 -28 21 -62 -4 -25 -2 -42
5 -46 6 -4 11 -15 11 -25 0 -37 87 -35 92 3 3 20 7 21 141 20 147 -2 197 -13
197 -45 0 -21 38 -34 74 -25 19 5 25 14 30 56 9 68 28 65 63 -10 24 -52 31
-60 55 -60 20 0 29 -6 33 -22 2 -13 18 -178 35 -368 149 -1693 180 -2058 180
-2095 0 -24 -5 -45 -11 -47 -18 -6 6 -215 27 -239 30 -33 127 -18 163 24 18
23 0 211 -24 237 -16 17 -18 36 -145 1480 -17 190 -37 419 -45 510 -24 269
-30 410 -17 410 17 0 15 37 -3 44 -9 3 -15 19 -15 41 0 31 3 35 28 36 15 1 30
1 35 0 4 0 7 9 7 21 0 12 5 47 12 78 10 48 16 59 39 67 28 11 28 11 40 -44 13
-58 36 -77 85 -71 12 2 35 -6 51 -18 15 -11 38 -26 51 -33 23 -12 23 -12 7 12
-20 31 -6 38 43 24 23 -8 36 -7 44 1 9 9 7 12 -10 12 -12 0 -22 6 -22 14 0 8
-9 18 -20 21 -13 4 -20 15 -20 31 0 25 0 25 70 18 l71 -7 -2 111 c-1 107 -2
111 -25 116 -13 4 -23 10 -23 14 3 19 -2 25 -11 12 -8 -12 -24 -12 -122 8 -62
12 -114 26 -116 31 -2 5 -13 7 -25 4 -13 -3 -8 3 12 13 25 13 36 15 39 6 6
-19 22 -14 22 7 0 25 24 33 76 25 32 -5 41 -10 37 -21 -8 -19 14 -33 53 -33
22 0 34 -7 44 -25 16 -30 23 -26 15 8 -4 15 -16 28 -31 31 -13 4 -24 11 -24
17 0 11 42 5 125 -17 28 -8 72 -19 99 -26 31 -8 51 -18 53 -29 7 -27 34 -33
40 -9 6 22 18 26 29 9 12 -19 -24 -43 -61 -41 -20 2 -35 -2 -35 -8 0 -8 -16
-9 -47 -4 -57 8 -50 -6 10 -21 l42 -10 3 -124 4 -124 -29 7 c-15 4 -36 9 -47
13 -12 3 -17 1 -14 -8 3 -8 23 -18 46 -23 l42 -9 0 -130 c0 -72 2 -128 4 -126
2 2 6 127 7 277 3 269 4 273 24 267 58 -16 78 -18 70 -5 -4 7 -2 16 6 22 10 7
8 8 -8 3 -20 -5 -21 -4 -10 19 15 31 70 44 93 22 8 -8 20 -14 27 -12 7 1 9 1
5 -1 -5 -3 -8 -15 -8 -29 0 -17 -4 -22 -15 -18 -8 4 -15 2 -15 -4 0 -6 6 -13
13 -15 6 -3 -9 -6 -36 -6 l-47 -1 2 -177 3 -178 35 -16 c19 -9 64 -22 100 -28
36 -7 76 -19 90 -26 31 -16 110 -18 127 -3 9 7 13 7 13 -1 0 -7 10 -11 23 -9
21 3 22 7 19 66 -2 34 0 62 5 62 15 0 298 -56 423 -84 103 -23 382 -82 575
-122 39 -8 142 -31 230 -51 88 -19 221 -48 295 -63 74 -16 198 -42 275 -59
236 -50 427 -91 430 -91 2 0 6 8 8 18 3 9 5 -8 6 -38 2 -64 30 -133 62 -150
12 -7 40 -10 63 -7 76 10 136 104 136 213 0 108 -38 164 -111 164 -48 0 -100
-43 -125 -104 l-18 -43 -75 25 c-42 13 -83 25 -91 27 -8 2 -69 15 -135 29 -66
14 -137 30 -157 35 -20 5 -39 6 -42 4 -6 -6 -85 12 -190 43 -44 13 -86 24 -95
24 -19 0 -210 44 -305 71 -37 10 -72 16 -77 13 -5 -3 -26 -1 -46 5 -21 5 -74
17 -118 26 -202 43 -620 140 -790 184 -60 16 -113 27 -117 24 -5 -2 -8 2 -8
10 0 8 -18 19 -40 26 -45 13 -52 37 -22 64 33 30 139 16 126 -16 -5 -14 60
-32 231 -63 112 -20 309 -60 395 -79 36 -8 101 -21 145 -29 44 -8 155 -30 245
-50 256 -57 288 -64 390 -81 52 -9 124 -23 160 -32 36 -8 85 -17 110 -19 25
-2 59 -8 75 -13 17 -5 89 -21 160 -36 72 -14 139 -30 150 -35 17 -7 78 -20
158 -35 9 -2 17 1 17 6 0 14 -31 26 -85 35 -27 4 -94 22 -148 40 -54 18 -148
40 -210 49 -205 29 -411 69 -439 85 -10 6 -24 10 -32 10 -8 0 -16 5 -18 11 -2
6 -44 21 -93 34 -101 26 -99 33 3 10 243 -53 1035 -216 1038 -212 2 2 -32 12
-76 22 -43 10 -77 22 -74 27 3 5 0 15 -6 23 -10 12 -9 15 9 15 27 0 27 17 0
25 -48 16 -6 13 81 -5 107 -22 130 -24 130 -11 0 11 -45 26 -120 40 -158 29
-601 124 -785 167 -60 14 -139 30 -175 36 -36 6 -133 28 -216 49 -82 22 -163
39 -180 39 -16 1 -40 7 -54 15 l-25 14 29 1 c39 0 29 8 -32 24 -46 12 -51 11
-55 -5 -4 -14 -11 -16 -31 -11 -32 9 -34 25 -4 33 17 4 8 8 -37 18 -33 6 -73
18 -90 25 l-30 13 59 13 c33 7 71 17 85 24 25 11 25 11 -14 17 l-40 5 47 8
c39 7 50 5 65 -9 24 -25 108 -15 158 19 38 26 75 32 165 27 25 -2 48 -8 51
-13 4 -7 75 -10 193 -9 121 1 200 -2 223 -10 25 -8 38 -8 46 0 6 6 38 11 71
12 88 0 158 14 171 33 15 20 25 21 25 0 0 -13 7 -15 37 -9 71 13 71 14 75 129
2 58 1 103 -1 100 -2 -2 -9 3 -15 10 -8 11 -22 12 -56 6 -77 -13 -106 -18 -90
-13 52 16 21 37 -67 45 -42 4 -53 2 -53 -10 0 -10 7 -12 25 -8 14 4 25 2 25
-4 0 -15 -47 -12 -64 5 -12 12 -46 15 -178 15 -178 1 -238 8 -263 34 -15 15
-10 16 77 18 293 6 443 -9 550 -54 26 -11 55 -17 64 -14 26 10 4 26 -53 42
-45 12 -37 13 114 13 l162 1 13 -25 c24 -45 131 -210 151 -232 11 -13 26 -23
33 -23 7 0 16 -5 20 -12 5 -7 26 -132 49 -278 l40 -265 50 -12 c27 -7 50 -11
51 -10 1 1 -18 132 -42 292 l-43 289 29 26 c25 21 32 40 49 128 12 57 23 108
26 113 12 19 285 7 285 -12 0 -5 -7 -6 -15 -3 -11 5 -14 0 -12 -17 3 -18 11
-25 32 -27 15 -2 31 2 36 10 6 9 13 2 24 -25 17 -41 53 -52 62 -18 8 30 28 33
160 25 107 -6 122 -9 126 -25 3 -12 14 -19 30 -19 27 0 28 3 42 96 l6 42 62
12 c89 17 179 61 207 100 36 51 26 125 -21 150 -18 10 -100 35 -197 60 -19 4
-35 10 -36 12 -2 1 1 59 5 128 5 69 10 145 11 169 l3 44 -55 14 c-30 8 -61 20
-69 28 -38 37 112 49 239 18 65 -16 116 -18 375 -16 165 1 356 8 425 15 l125
12 -50 12 c-40 9 -44 12 -20 13 17 0 55 -3 85 -8 30 -5 100 -11 155 -14 l100
-6 -125 15 c-336 39 -549 67 -695 89 -276 43 -324 46 -483 27 -112 -12 -148
-13 -163 -4 -10 7 -25 12 -32 12 -7 0 -14 12 -15 26 -2 27 -26 53 -49 54 -29
0 -63 -21 -69 -44 -4 -19 -15 -27 -43 -33 -52 -11 -162 -7 -223 8 -98 25 -224
17 -438 -28 -171 -36 -313 -61 -577 -103 -40 -7 -73 -16 -73 -21 0 -23 47 -26
275 -16 181 8 308 8 515 -2 151 -7 291 -15 310 -18 l35 -5 -3 -163 -3 -164 23
-6 c13 -3 48 -9 78 -13 40 -5 56 -12 58 -25 2 -10 -3 -17 -11 -17 -8 0 -28 -7
-45 -16 -18 -8 -40 -13 -51 -9 -22 7 -51 -18 -51 -44 0 -10 10 -23 23 -30 21
-11 21 -11 0 -6 -12 3 -24 1 -28 -5 -4 -6 -55 -10 -130 -10 -108 0 -125 2
-134 18 -8 15 -31 18 -178 22 -191 6 -223 3 -223 -16 0 -12 -57 -14 -338 -14
-187 0 -407 3 -491 7 -152 6 -153 6 -163 32 l-10 26 -9 -22 c-9 -24 -17 -27
-42 -17 -16 6 -12 53 7 69 14 13 33 42 51 80 12 27 12 31 -3 43 -15 11 -14 14
10 36 26 25 57 121 80 244 10 56 62 206 79 228 5 6 45 12 92 12 240 4 667 17
637 20 -37 3 -280 27 -387 38 -71 8 -76 16 -47 82 9 20 17 54 19 75 3 37 2 39
-43 58 -35 16 -51 18 -64 10 -14 -9 -16 -8 -11 5 3 8 0 26 -7 38 -10 20 -7 33
25 97 92 182 330 549 503 775 153 199 439 503 461 489 15 -9 234 34 249 49 8
8 22 49 32 92 19 80 18 83 -15 120 -5 6 -26 30 -45 52 -19 23 -40 42 -47 42
-6 0 -19 -35 -28 -79 l-17 -79 -81 -16 c-45 -9 -85 -20 -89 -24 -5 -5 -12 -36
-16 -69 l-7 -60 -147 -154 c-167 -176 -238 -259 -353 -414 -164 -220 -310
-445 -458 -706 l-27 -47 -62 15 c-35 9 -72 19 -83 24 -29 11 -239 109 -242
113 -9 9 135 457 199 619 76 192 175 383 303 578 l62 95 104 28 c57 15 114 34
126 42 15 9 30 41 47 98 37 119 36 124 -33 185 -60 52 -91 60 -153 44z m-1288
-1607 c0 -3 -4 -8 -10 -11 -5 -3 -10 -1 -10 4 0 6 5 11 10 11 6 0 10 -2 10 -4z
m347 -37 c24 -10 43 -20 43 -22 0 -5 -143 43 -150 50 -9 10 63 -9 107 -28z
m-25 -54 c78 -20 218 -84 218 -100 0 -7 -9 -57 -19 -111 -11 -54 -23 -121 -28
-149 l-8 -50 -50 -6 c-62 -7 -103 6 -107 34 -2 13 -14 25 -31 32 -24 8 -31 6
-43 -10 -8 -11 -12 -25 -10 -31 6 -15 -32 -26 -40 -12 -3 5 -3 28 0 52 13 85
-41 227 -81 212 -8 -3 -12 -2 -9 3 3 4 -17 11 -44 14 -91 11 -93 17 -18 89
l66 64 71 -7 c39 -4 99 -15 133 -24z m-1731 -73 c-12 -23 -41 -48 -41 -35 0 5
5 14 12 21 9 9 8 12 -5 12 -10 0 -25 -9 -34 -20 -10 -11 -22 -20 -27 -20 -5 0
3 14 19 30 34 35 93 44 76 12z m991 -34 c10 -7 9 -12 -6 -23 -27 -21 -39 -19
-31 6 7 20 6 20 -27 3 -39 -21 -66 -23 -218 -22 -63 0 -131 0 -151 -1 -20 -1
-49 6 -65 14 l-29 15 45 1 c25 0 54 4 65 9 26 11 400 10 417 -2z m163 -28 c3
-5 1 -10 -4 -10 -6 0 -11 5 -11 10 0 6 2 10 4 10 3 0 8 -4 11 -10z m-1205 -10
c0 -6 -7 -13 -15 -16 -8 -4 -15 -17 -15 -31 0 -22 -2 -24 -15 -13 -13 10 -19
9 -37 -6 -21 -19 -21 -19 -9 3 6 12 16 25 21 28 6 4 8 15 5 26 -5 16 -1 19 29
19 20 0 36 -5 36 -10z m2147 -41 c85 -64 133 -109 133 -126 0 -7 18 -22 40
-33 42 -21 48 -35 28 -63 -12 -15 -21 -15 -108 -2 -52 8 -125 15 -162 15 -38
0 -68 4 -68 8 0 18 41 236 46 244 9 15 22 9 91 -43z m-1247 -4 c-43 -36 -58
-39 -47 -10 4 8 15 15 25 15 11 0 25 7 32 15 7 8 17 15 22 15 6 0 -9 -16 -32
-35z m-971 -103 c-13 -9 -25 -16 -26 -14 -7 5 -2 17 7 17 5 0 15 6 21 12 7 7
15 10 18 8 3 -3 -6 -13 -20 -23z m2573 -128 c20 -2 54 -12 75 -24 l38 -21 -35
5 c-19 3 -55 8 -80 11 -77 10 -90 15 -90 31 0 13 6 15 28 8 15 -4 44 -8 64
-10z m-572 -119 c0 -28 -4 -29 -49 -14 -48 17 -40 39 16 39 29 0 33 -3 33 -25z
m253 -5 c53 0 97 -3 97 -7 0 -15 -53 -149 -65 -163 -7 -8 -19 -35 -28 -60 -8
-25 -29 -83 -47 -130 -19 -52 -27 -86 -21 -88 6 -2 11 -8 11 -13 0 -6 -6 -7
-12 -3 -7 4 -4 -3 7 -16 l20 -22 -32 6 c-31 7 -31 7 -42 -44 -6 -28 -11 -55
-11 -60 0 -18 19 -10 25 10 4 11 10 18 14 15 13 -7 0 -56 -16 -62 -8 -3 -11
-13 -8 -23 8 -25 -8 -32 -31 -15 -11 8 -14 14 -6 15 6 0 12 4 12 10 0 5 -7 7
-16 3 -10 -4 -14 -14 -11 -29 4 -25 -14 -49 -34 -42 -8 3 -6 9 5 20 21 22 20
28 -5 28 -11 0 -18 4 -15 9 3 4 8 28 10 52 4 37 3 40 -6 22 -6 -13 -15 -23
-20 -23 -4 0 -8 -9 -8 -20 0 -10 -8 -24 -17 -29 -10 -6 -12 -11 -5 -11 18 0
15 -18 -7 -41 -17 -19 -20 -19 -35 -4 -17 18 -21 30 -7 20 11 -6 26 13 17 22
-5 6 -27 10 -63 12 -7 1 -13 8 -13 16 0 20 54 20 74 -1 15 -14 16 -10 16 46 0
34 -4 69 -9 79 -8 13 -5 17 11 18 13 1 18 -3 14 -13 -3 -9 1 -14 14 -14 10 0
22 -4 25 -10 11 -18 23 -10 18 11 -4 15 0 27 12 35 16 12 17 25 11 161 -4 81
-11 154 -16 163 -8 15 -4 146 5 176 2 8 17 9 47 3 24 -4 87 -8 141 -9z m-5650
-17 c-7 -2 -19 -2 -25 0 -7 3 -2 5 12 5 14 0 19 -2 13 -5z m8685 -130 c-10 -2
-26 -2 -35 0 -10 3 -2 5 17 5 19 0 27 -2 18 -5z m-5832 -132 c5 -5 20 -11 34
-14 14 -2 8 -3 -14 -2 -37 3 -77 25 -45 25 8 0 19 -4 25 -9z m369 -18 c7 -4
-22 -7 -66 -7 -43 1 -76 -2 -73 -7 3 -5 -6 -9 -20 -9 -37 0 -126 -22 -126 -31
0 -5 -7 -6 -15 -4 -49 16 -48 14 -34 31 7 8 20 13 29 11 18 -5 151 20 160 30
7 7 127 -4 145 -14z m2145 -8 c0 -8 -4 -15 -9 -15 -13 0 -22 16 -14 24 11 11
23 6 23 -9z m-2043 -51 c-7 -7 -37 7 -37 17 0 6 9 5 21 -1 11 -7 19 -14 16
-16z m138 -92 c19 -16 29 -33 28 -46 -2 -18 -2 -18 5 -3 7 16 13 13 62 -23 29
-22 56 -40 59 -40 8 0 71 -56 71 -63 0 -3 -19 -9 -42 -13 -103 -17 -118 -14
-118 25 0 16 -9 33 -21 41 -51 36 -59 48 -57 81 1 18 -3 34 -9 36 -6 2 -23 15
-38 29 -14 13 -30 24 -35 24 -5 0 -14 10 -21 21 -9 18 -3 16 38 -12 26 -18 62
-44 78 -57z m-1810 68 c3 -5 -1 -10 -9 -10 -9 0 -16 5 -16 10 0 6 4 10 9 10 6
0 13 -4 16 -10z m1008 -177 c-7 -2 -19 -2 -25 0 -7 3 -2 5 12 5 14 0 19 -2 13
-5z m2457 -43 c0 -5 -7 -10 -16 -10 -8 0 -12 5 -9 10 3 6 10 10 16 10 5 0 9
-4 9 -10z m-5190 -24 c0 -8 -4 -17 -9 -21 -5 -3 -13 -20 -17 -37 -3 -18 -13
-42 -21 -54 -7 -12 -13 -38 -11 -58 3 -44 -2 -49 -71 -76 -66 -26 -152 -28
-186 -6 -29 19 -34 70 -11 115 22 42 83 91 114 91 15 0 63 13 107 29 96 34
105 35 105 17z m67 8 c-3 -3 -12 -4 -19 -1 -8 3 -5 6 6 6 11 1 17 -2 13 -5z
m3823 -4 c0 -5 -4 -10 -10 -10 -5 0 -10 5 -10 10 0 6 5 10 10 10 6 0 10 -4 10
-10z m4152 -60 c74 0 127 -81 81 -123 -21 -18 -75 -33 -154 -42 -67 -7 -73 1
-63 81 5 44 3 55 -15 73 -12 12 -27 18 -37 14 -9 -3 -19 -1 -23 4 -3 6 -19 17
-36 26 l-30 16 25 9 c18 7 46 1 120 -24 52 -19 112 -34 132 -34z m-2758 29 c6
-5 -3 -11 -22 -15 -17 -4 -36 -12 -42 -19 -6 -8 -26 -12 -43 -11 -18 2 -24 1
-14 -1 13 -3 17 -12 15 -30 -3 -24 -6 -26 -70 -28 -50 -2 -72 2 -86 14 -18 16
-32 22 -64 24 -10 1 -18 4 -18 8 0 4 41 10 91 14 64 5 92 11 95 21 2 8 6 21 9
29 3 11 17 13 72 8 37 -3 72 -9 77 -14z m-1119 -9 c3 -5 -1 -10 -10 -10 -9 0
-13 5 -10 10 3 6 8 10 10 10 2 0 7 -4 10 -10z m585 -80 c0 -5 -7 -10 -16 -10
-8 0 -12 5 -9 10 3 6 10 10 16 10 5 0 9 -4 9 -10z m320 -50 c0 -5 -4 -10 -10
-10 -5 0 -10 5 -10 10 0 6 5 10 10 10 6 0 10 -4 10 -10z m383 -157 c3 -5 8
-23 12 -40 6 -29 4 -33 -13 -33 -24 0 -32 17 -25 53 5 26 17 35 26 20z m43
-30 c-10 -10 -19 5 -10 18 6 11 8 11 12 0 2 -7 1 -15 -2 -18z m59 -8 c-16 -13
-34 -24 -38 -25 -17 0 0 25 24 37 39 20 46 15 14 -12z m172 -1 c-3 -3 -12 -4
-19 -1 -8 3 -5 6 6 6 11 1 17 -2 13 -5z m-2522 -29 c-27 -13 -55 -28 -61 -33
-16 -14 -124 -25 -124 -13 0 6 13 11 28 11 16 0 60 13 98 29 83 35 131 40 59
6z m1396 -46 c-6 -24 -9 -28 -10 -12 -1 24 9 56 16 50 2 -3 0 -20 -6 -38z
m-1431 -29 c0 -5 -2 -10 -4 -10 -3 0 -8 5 -11 10 -3 6 -1 10 4 10 6 0 11 -4
11 -10z m260 -20 c-19 -13 -30 -13 -30 0 0 6 10 10 23 10 18 0 19 -2 7 -10z
m-860 -10 c0 -5 -8 -10 -17 -10 -15 0 -16 2 -3 10 19 12 20 12 20 0z m1246
-25 c31 -8 67 -12 80 -9 24 6 34 -10 12 -18 -24 -8 -120 0 -131 11 -6 6 -17
11 -24 11 -7 0 -13 5 -13 10 0 13 9 13 76 -5z m2012 -22 c-10 -2 -28 -2 -40 0
-13 2 -5 4 17 4 22 1 32 -1 23 -4z m607 -23 c-3 -5 -18 -10 -33 -9 -24 0 -25
1 -7 9 28 12 47 12 40 0z m-3949 -48 c-18 -16 -18 -16 -6 6 6 13 14 21 18 18
3 -4 -2 -14 -12 -24z m162 8 c-7 -11 -19 -22 -28 -25 -8 -4 -4 5 9 19 29 31
36 33 19 6z m2355 -43 l58 -25 -33 -6 c-62 -11 -258 -8 -274 4 -18 16 -18 31
0 24 8 -3 22 3 31 14 25 28 140 22 218 -11z m247 3 c-20 -13 -73 -13 -65 0 3
6 23 10 43 10 28 0 33 -3 22 -10z m-608 -30 c18 -16 38 -30 45 -30 17 0 16
-11 0 -35 -14 -18 -43 -12 -31 6 4 7 -10 8 -40 4 -31 -5 -46 -4 -46 4 0 6 -12
11 -27 12 -23 1 -25 2 -8 7 11 4 20 13 21 20 1 6 2 19 3 27 2 25 48 17 83 -15z
m508 20 c0 -5 -12 -10 -27 -9 l-28 1 25 8 c14 4 26 8 28 9 1 1 2 -3 2 -9z
m-1692 -154 c-3 -41 -5 -43 -21 -32 -16 12 -16 17 -2 56 8 23 16 59 17 79 1
30 2 28 5 -11 2 -27 3 -68 1 -92z m1322 65 c0 -11 -26 -22 -34 -14 -12 12 -5
23 14 23 11 0 20 -4 20 -9z m-1493 -23 c-3 -8 -6 -5 -6 6 -1 11 2 17 5 13 3
-3 4 -12 1 -19z m1656 -19 c-13 -13 -70 -29 -77 -22 -13 13 17 31 50 31 22 0
32 -4 27 -9z m-1631 -23 c7 4 8 2 4 -5 -9 -13 -26 -5 -25 12 0 9 2 8 6 -1 2
-6 10 -9 15 -6z m1398 -27 c0 -4 -7 -6 -15 -3 -8 4 -15 10 -15 15 0 4 7 6 15
3 8 -4 15 -10 15 -15z m797 -195 c-3 -3 -12 -4 -19 -1 -8 3 -5 6 6 6 11 1 17
-2 13 -5z m293 -5 c19 -5 71 -12 115 -13 55 -2 95 -10 125 -24 39 -17 41 -20
19 -21 -14 -1 -48 6 -75 14 -59 18 -57 18 -48 4 7 -12 -44 -10 -62 3 -5 4 -36
14 -69 22 -32 9 -60 18 -63 21 -9 8 21 6 58 -6z m-243 -5 c-3 -3 -12 -4 -19
-1 -8 3 -5 6 6 6 11 1 17 -2 13 -5z m50 -10 c-3 -3 -12 -4 -19 -1 -8 3 -5 6 6
6 11 1 17 -2 13 -5z m46 -11 c-7 -2 -19 -2 -25 0 -7 3 -2 5 12 5 14 0 19 -2
13 -5z m50 -10 c-7 -2 -19 -2 -25 0 -7 3 -2 5 12 5 14 0 19 -2 13 -5z m414
-29 c-3 -3 -12 -4 -19 -1 -8 3 -5 6 6 6 11 1 17 -2 13 -5z m230 0 c-3 -3 -12
-4 -19 -1 -8 3 -5 6 6 6 11 1 17 -2 13 -5z m53 -18 c0 -9 -7 -12 -20 -9 -11 3
-20 9 -20 14 0 5 9 9 20 9 11 0 20 -6 20 -14z m240 -42 c34 -13 34 -13 5 -9
-44 6 -77 14 -83 20 -11 10 44 3 78 -11z"/>
<path d="M7786 5335 c-3 -8 -1 -15 4 -15 6 0 10 7 10 15 0 8 -2 15 -4 15 -2 0
-6 -7 -10 -15z"/>
<path d="M7756 5225 c-3 -8 -1 -15 4 -15 6 0 10 7 10 15 0 8 -2 15 -4 15 -2 0
-6 -7 -10 -15z"/>
<path d="M3383 4983 c26 -2 68 -2 95 0 26 2 4 3 -48 3 -52 0 -74 -1 -47 -3z"/>
<path d="M3588 4973 c17 -2 47 -2 65 0 17 2 3 4 -33 4 -36 0 -50 -2 -32 -4z"/>
<path d="M10848 4883 c12 -2 30 -2 40 0 9 3 -1 5 -23 4 -22 0 -30 -2 -17 -4z"/>
<path d="M10968 4873 c6 -2 18 -2 25 0 6 3 1 5 -13 5 -14 0 -19 -2 -12 -5z"/>
<path d="M5340 3446 c0 -16 28 -42 36 -33 3 3 3 15 -1 26 -7 23 -35 29 -35 7z"/>
<path d="M5055 3293 c-54 -23 -66 -35 -51 -54 26 -37 81 -42 81 -9 0 6 7 15
15 20 13 8 12 10 -2 10 -28 0 -21 17 9 25 21 5 24 8 12 16 -18 11 -16 11 -64
-8z"/>
<path d="M6090 3239 c0 -5 5 -7 10 -4 6 3 10 8 10 11 0 2 -4 4 -10 4 -5 0 -10
-5 -10 -11z"/>
<path d="M8500 3240 c36 -11 50 -11 50 0 0 6 -17 10 -37 9 -34 -1 -35 -2 -13
-9z"/>
<path d="M8608 3223 c7 -3 16 -2 19 1 4 3 -2 6 -13 5 -11 0 -14 -3 -6 -6z"/>
<path d="M6131 3191 c-11 -7 -11 -9 0 -14 8 -3 9 -6 3 -6 -6 -1 -9 -14 -6 -31
3 -24 9 -30 28 -30 16 0 24 6 25 18 1 9 3 29 5 45 2 22 -1 27 -19 27 -12 0
-28 -4 -36 -9z"/>
<path d="M5448 3173 c6 -2 10 -9 7 -13 -12 -19 8 -60 31 -66 25 -6 58 12 49
27 -3 4 2 12 11 17 13 7 10 12 -19 25 -19 10 -48 17 -64 16 -15 0 -22 -3 -15
-6z"/>
<path d="M6215 3170 c-3 -5 -1 -10 4 -10 6 0 11 5 11 10 0 6 -2 10 -4 10 -3 0
-8 -4 -11 -10z"/>
<path d="M6262 3158 c3 -20 9 -23 42 -23 46 0 59 20 19 29 -15 4 -36 9 -46 12
-15 5 -18 1 -15 -18z"/>
<path d="M8872 3159 c16 -11 48 -12 48 -1 0 4 -14 7 -31 8 -20 1 -26 -2 -17
-7z"/>
<path d="M9042 3140 c-101 -62 -119 -305 -25 -341 37 -14 107 22 140 72 34 52
43 150 19 214 -29 74 -73 92 -134 55z"/>
<path d="M8428 3143 c6 -2 18 -2 25 0 6 3 1 5 -13 5 -14 0 -19 -2 -12 -5z"/>
<path d="M5695 3130 c-15 -6 -8 -9 27 -9 26 -1 50 4 53 9 8 12 -52 12 -80 0z"/>
<path d="M6490 3033 c-1 -91 -10 -215 -26 -340 -8 -64 4 -83 52 -83 45 0 58
25 49 98 -4 32 -8 134 -9 229 0 94 -3 173 -6 176 -3 2 -17 7 -32 11 l-28 6 0
-97z"/>
<path d="M8539 3112 c16 -12 73 -29 165 -47 78 -16 163 -34 191 -41 42 -12 68
-12 54 -1 -2 2 -92 24 -199 50 -107 25 -204 49 -215 52 -17 6 -16 4 4 -13z"/>
<path d="M5646 3101 c-4 -6 -3 -11 3 -11 6 0 8 -6 5 -14 -5 -13 20 -46 36 -46
20 0 40 13 40 27 0 9 7 21 16 28 13 9 14 12 3 13 -8 1 -33 5 -55 8 -26 4 -44
2 -48 -5z"/>
<path d="M8634 2833 c4 -16 33 -199 66 -407 44 -282 57 -383 49 -393 -13 -15
5 -161 21 -177 17 -17 91 -10 111 11 18 18 19 25 9 89 -6 38 -17 75 -25 84 -7
8 -25 90 -39 185 -15 94 -35 226 -45 295 -11 69 -25 169 -32 222 l-13 97 -42
10 c-62 16 -66 15 -60 -16z"/>
</g>
</svg>
