<?xml version="1.0" standalone="no"?>
<!DOCTYPE svg PUBLIC "-//W3C//DTD SVG 20010904//EN"
 "http://www.w3.org/TR/2001/REC-SVG-20010904/DTD/svg10.dtd">
<svg version="1.0" xmlns="http://www.w3.org/2000/svg"
 width="1200.000000pt" height="200.000000pt" viewBox="0 0 1200.000000 200.000000"
 preserveAspectRatio="xMidYMid meet">

<g transform="translate(0.000000,200.000000) scale(0.100000,-0.100000)"
fill="#000000" stroke="none">
<path d="M210 1107 l0 -502 180 -180 180 -180 180 180 180 180 0 502 0 503
-360 0 -360 0 0 -503z m37 361 c-2 -24 -4 -7 -4 37 0 44 2 63 4 43 2 -21 2
-57 0 -80z m634 -110 c0 -132 4 -196 10 -183 7 17 8 17 6 2 -1 -10 -5 -17 -9
-15 -10 5 -57 -43 -55 -55 1 -6 -5 -11 -13 -12 -8 -1 -14 -7 -12 -14 1 -7 -2
-10 -7 -7 -10 7 -26 -11 -26 -29 0 -5 -6 -10 -12 -10 -7 0 -12 -3 -10 -7 3
-11 -65 -77 -77 -75 -6 1 -10 -3 -9 -9 1 -6 -5 -11 -13 -11 -16 0 -19 33 -4
42 6 4 7 11 4 17 -4 6 -2 8 4 4 11 -6 27 10 27 29 0 6 7 10 15 10 8 1 13 7 12
15 -2 8 0 12 4 7 11 -10 45 23 37 37 -3 6 -3 8 2 4 11 -11 36 12 28 26 -3 6
-2 8 2 3 5 -4 17 0 27 10 15 13 18 32 18 110 0 51 -3 93 -7 93 -4 0 -47 -39
-95 -87 l-88 -88 -2 80 c-1 44 -2 87 -4 95 -1 8 -2 21 -3 29 -1 11 -5 10 -21
-4 -11 -10 -17 -22 -13 -28 3 -5 2 -7 -4 -4 -10 6 -51 -30 -52 -45 -1 -5 -4
-8 -7 -7 -11 2 -63 -54 -58 -63 3 -5 0 -7 -8 -6 -7 2 -12 -3 -10 -10 1 -8 -1
-11 -6 -8 -10 6 -185 -167 -177 -175 3 -3 -4 -14 -15 -24 -20 -18 -20 -18 -18
201 l2 219 6 -210 c3 -115 7 -205 8 -200 1 6 2 133 2 283 l-1 272 311 0 310 0
1 -202z m16 -80 c-3 -7 -5 -2 -5 12 0 14 2 19 5 13 2 -7 2 -19 0 -25z m-167
-53 c-24 -25 -46 -45 -49 -45 -3 0 15 20 39 45 24 25 46 45 49 45 3 0 -15 -20
-39 -45z m-290 -48 c0 -1 -33 -34 -72 -72 l-73 -70 70 73 c64 67 75 77 75 69z
m50 -110 c0 -1 -30 -32 -67 -67 l-68 -65 65 68 c60 62 70 72 70 64z m-94 -146
l-96 -96 0 -93 c0 -50 4 -92 8 -92 15 0 72 66 65 75 -5 4 -3 5 3 2 10 -6 64
42 67 60 1 4 5 7 9 6 3 -1 12 4 18 12 25 30 30 13 30 -97 l0 -113 190 190 190
190 0 -170 0 -170 -155 -155 -155 -155 -155 155 -155 155 0 95 0 95 112 112
c62 62 115 108 117 102 2 -6 -40 -55 -93 -108z m504 75 c0 -2 -7 -7 -16 -10
-8 -3 -12 -2 -9 4 6 10 25 14 25 6z m-3 -58 c-3 -8 -6 -5 -6 6 -1 11 2 17 5
13 3 -3 4 -12 1 -19z m-77 -12 c0 -2 -8 -10 -17 -17 -16 -13 -17 -12 -4 4 13
16 21 21 21 13z m-523 -54 l-47 -48 -2 -94 -2 -95 -3 94 -4 95 48 48 c26 26
49 48 52 48 3 0 -16 -22 -42 -48z m600 -164 c-1 -40 -3 -8 -3 72 0 80 2 112 3
73 2 -40 2 -106 0 -145z m-527 158 c0 -2 -8 -10 -17 -17 -16 -13 -17 -12 -4 4
13 16 21 21 21 13z m350 -41 c-24 -25 -46 -45 -49 -45 -3 0 15 20 39 45 24 25
46 45 49 45 3 0 -15 -20 -39 -45z m-130 -130 c-41 -41 -77 -75 -79 -75 -3 0
28 34 69 75 41 41 77 75 79 75 3 0 -28 -34 -69 -75z m300 -88 c0 -2 -15 -16
-32 -33 l-33 -29 29 33 c28 30 36 37 36 29z"/>
<path d="M306 1497 c-29 -72 -30 -77 -2 -77 14 0 26 5 26 10 0 6 9 10 20 10
11 0 20 -4 20 -9 0 -6 40 -9 93 -8 l92 2 0 50 0 50 -65 0 c-55 0 -65 -3 -68
-18 -3 -16 2 -18 40 -14 23 2 35 2 26 0 -10 -2 -18 -11 -18 -18 0 -7 8 -16 18
-18 9 -2 0 -2 -22 1 -23 2 -41 0 -46 -7 -4 -7 -14 6 -24 33 -15 40 -21 46 -47
46 -23 0 -31 -6 -43 -33z"/>
<path d="M577 1524 c-9 -9 -9 -67 -1 -88 5 -12 20 -16 64 -16 68 0 83 12 78
67 l-3 38 -65 3 c-36 2 -69 0 -73 -4z m93 -49 c0 -20 -5 -25 -25 -25 -20 0
-25 5 -25 25 0 20 5 25 25 25 20 0 25 -5 25 -25z"/>
<path d="M730 1475 l0 -56 63 3 62 3 3 53 3 52 -65 0 -66 0 0 -55z m83 18 c-7
-2 -21 -2 -30 0 -10 3 -4 5 12 5 17 0 24 -2 18 -5z m0 -40 c-7 -2 -21 -2 -30
0 -10 3 -4 5 12 5 17 0 24 -2 18 -5z"/>
<path d="M704 988 l-29 -33 33 29 c30 28 37 36 29 36 -2 0 -16 -15 -33 -32z"/>
<path d="M3238 1603 c12 -2 30 -2 40 0 9 3 -1 5 -23 4 -22 0 -30 -2 -17 -4z"/>
<path d="M3308 1593 c6 -2 18 -2 25 0 6 3 1 5 -13 5 -14 0 -19 -2 -12 -5z"/>
<path d="M2973 1581 c-61 -10 -174 -43 -237 -71 l-46 -19 0 -61 0 -60 42 21
c47 24 70 32 173 59 93 25 346 22 445 -5 78 -21 171 -61 182 -78 4 -7 8 19 8
56 l0 68 -56 25 c-110 48 -192 66 -329 69 -71 2 -153 0 -182 -4z m97 -22 c0
-6 -8 -8 -19 -4 -14 4 -21 0 -26 -14 -7 -22 0 -41 16 -41 5 0 9 7 9 15 0 8 6
15 13 15 23 0 15 -30 -10 -36 -41 -11 -70 35 -41 64 15 15 58 16 58 1z m95
-26 c1 -35 -4 -40 -23 -21 -9 9 -12 9 -12 0 0 -7 -7 -12 -15 -12 -10 0 -14 10
-13 36 1 33 3 35 32 32 28 -3 31 -7 31 -35z m85 16 c0 -11 5 -29 11 -41 14
-27 5 -33 -17 -11 -12 13 -19 14 -22 5 -2 -6 -10 -12 -19 -12 -8 0 -13 3 -11
8 3 4 11 22 18 40 16 36 40 43 40 11z m-300 -29 c0 -25 -5 -40 -12 -40 -8 0
-13 13 -12 33 1 43 2 47 14 47 6 0 10 -18 10 -40z m402 12 c11 -13 10 -15 -6
-9 -16 6 -18 3 -14 -23 4 -24 1 -30 -13 -30 -15 0 -17 6 -12 35 4 23 2 35 -6
35 -6 0 -11 4 -11 9 0 13 48 0 62 -17z m-462 -2 c0 -5 -6 -7 -14 -4 -8 3 -17
1 -21 -5 -3 -7 2 -11 13 -11 24 0 36 -25 19 -38 -7 -5 -22 -13 -34 -16 -21 -7
-23 -4 -23 32 0 23 5 43 13 45 21 9 47 7 47 -3z m515 -40 c0 -22 -1 -40 -2
-40 -19 0 -28 16 -26 48 2 46 1 42 16 37 7 -3 12 -22 12 -45z m-595 -10 c0
-15 -44 -58 -65 -64 -17 -5 -20 -1 -20 33 -1 32 3 40 25 48 25 10 60 0 60 -17z
m664 24 c9 -3 13 -10 10 -15 -3 -5 4 -25 15 -44 16 -28 17 -35 6 -35 -8 0 -19
9 -25 20 -8 16 -17 19 -37 14 l-27 -7 22 28 c12 15 19 31 16 36 -6 11 -1 11
20 3z"/>
<path d="M3130 1550 c0 -5 5 -10 10 -10 6 0 10 5 10 10 0 6 -4 10 -10 10 -5 0
-10 -4 -10 -10z"/>
<path d="M2860 1484 c0 -8 5 -12 10 -9 6 3 10 10 10 16 0 5 -4 9 -10 9 -5 0
-10 -7 -10 -16z"/>
<path d="M2750 1459 c0 -27 2 -30 15 -19 8 7 15 21 15 31 0 11 -7 19 -15 19
-10 0 -15 -10 -15 -31z"/>
<path d="M3358 1583 c7 -3 16 -2 19 1 4 3 -2 6 -13 5 -11 0 -14 -3 -6 -6z"/>
<path d="M4352 1579 c-62 -8 -167 -37 -159 -45 2 -2 41 6 87 17 143 36 338 18
478 -46 28 -13 52 -22 52 -19 0 3 -28 18 -62 34 -107 51 -266 74 -396 59z"/>
<path d="M5394 1576 c-75 -14 -111 -24 -207 -59 l-59 -20 4 -351 c5 -389 7
-407 75 -546 50 -104 175 -229 290 -288 44 -23 89 -42 98 -42 10 0 54 19 99
43 114 59 239 184 289 287 68 139 70 157 75 543 l4 347 -54 24 c-110 49 -212
68 -383 72 -108 2 -183 -1 -231 -10z m73 -58 c-3 -8 -6 -5 -6 6 -1 11 2 17 5
13 3 -3 4 -12 1 -19z m33 10 c0 -9 4 -8 10 2 7 11 10 6 10 -20 0 -26 -3 -31
-10 -20 -8 13 -10 12 -10 -4 0 -15 -3 -16 -15 -6 -12 10 -15 10 -15 0 0 -8 -3
-11 -6 -7 -8 7 18 67 28 67 5 0 8 -6 8 -12z m65 4 c-5 -4 -10 -14 -10 -22 0
-8 5 -18 10 -22 6 -4 2 -8 -7 -8 -13 0 -18 8 -18 30 0 22 5 30 18 30 9 0 13
-4 7 -8z m35 -4 c0 -9 3 -8 10 2 13 21 22 7 14 -25 -5 -20 -9 -23 -15 -13 -6
10 -9 10 -9 1 0 -7 -4 -13 -10 -13 -5 0 -10 14 -10 30 0 17 5 30 10 30 6 0 10
-6 10 -12z m60 -18 c0 -16 -4 -30 -10 -30 -5 0 -10 14 -10 30 0 17 5 30 10 30
6 0 10 -13 10 -30z m77 -8 c2 -26 -1 -32 -17 -32 -16 0 -20 7 -20 36 0 28 4
35 17 32 12 -2 18 -14 20 -36z m-297 9 c0 -11 3 -27 7 -37 4 -12 2 -15 -8 -12
-8 3 -23 1 -33 -5 -16 -8 -18 -6 -13 8 4 9 7 28 7 41 0 17 6 24 20 24 13 0 20
-7 20 -19z m355 0 c7 -23 -4 -53 -18 -48 -18 6 -31 33 -24 51 9 22 34 20 42
-3z m-417 -23 c-4 -44 -38 -53 -38 -10 0 32 7 42 27 42 10 0 13 -10 11 -32z
m454 2 c-2 -16 -8 -30 -13 -30 -5 0 -9 14 -9 30 0 18 5 30 13 30 9 0 12 -10 9
-30z m-512 0 c0 -11 -4 -20 -9 -20 -5 0 -12 -8 -14 -17 -3 -10 -5 -4 -6 13 0
17 2 34 6 37 12 13 23 7 23 -13z m551 8 c0 -10 2 -10 6 0 7 19 23 4 23 -23 0
-28 -20 -45 -21 -18 0 10 -3 13 -6 6 -9 -24 -23 -13 -23 17 0 28 19 44 21 18z
m64 -36 c1 -20 -4 -32 -12 -32 -8 0 -13 13 -13 36 0 45 24 41 25 -4z m-665 -1
c0 -18 -6 -31 -16 -35 -23 -9 -25 -4 -18 32 8 41 34 43 34 3z m-50 -15 c0 -25
-5 -35 -20 -39 -17 -4 -20 0 -20 28 0 24 5 35 18 38 9 3 18 5 20 6 1 0 2 -14
2 -33z m776 24 c9 0 14 -11 14 -34 0 -34 0 -34 -30 -23 -24 9 -30 17 -30 40 0
22 4 28 16 23 9 -3 22 -6 30 -6z m-236 -55 c52 -7 140 -29 195 -47 l100 -33
-227 -3 c-125 -1 -332 -1 -460 0 l-233 3 98 33 c176 59 349 74 527 47z m-257
-189 c58 -20 106 -31 112 -26 19 16 178 61 234 66 38 4 69 1 96 -10 39 -14 39
-15 10 -16 -16 0 -64 -7 -105 -15 -222 -43 -223 -43 -142 -84 34 -17 66 -31
72 -31 6 0 19 15 30 33 11 17 20 26 20 19 0 -7 -5 -21 -12 -31 -6 -10 -9 -25
-6 -33 8 -20 83 -41 120 -33 27 6 29 5 26 -17 -4 -32 -53 -36 -114 -9 -50 22
-67 18 -79 -20 -4 -10 -10 -19 -15 -19 -5 0 -2 12 6 28 7 15 14 32 14 37 0 9
-157 85 -177 85 -22 0 -173 -77 -173 -88 0 -7 5 -22 11 -34 6 -11 8 -22 5 -25
-3 -3 -10 6 -15 20 -14 37 -22 38 -80 17 -64 -25 -97 -25 -110 -1 -14 25 -4
32 36 25 47 -9 117 22 109 48 -18 57 -18 62 3 31 11 -18 25 -33 31 -33 6 0 38
14 72 31 81 41 80 41 -142 84 -41 8 -88 15 -105 15 l-30 2 35 14 c52 21 146
10 263 -30z m187 -245 c0 -5 -4 -20 -9 -33 -25 -67 -48 -166 -38 -163 7 2 46
13 87 25 41 12 83 24 93 26 15 5 17 -4 17 -90 0 -53 -3 -96 -7 -96 -5 0 -48
12 -96 26 -49 14 -91 23 -94 20 -5 -5 7 -55 43 -178 5 -16 -4 -18 -90 -18 -53
0 -96 3 -96 7 0 3 12 46 27 95 14 48 24 91 20 94 -3 3 -46 -6 -96 -20 -49 -14
-92 -26 -95 -26 -3 0 -6 43 -6 95 0 52 2 95 3 95 2 0 47 -13 100 -29 66 -20
97 -25 97 -17 0 7 -11 50 -25 97 -13 46 -25 87 -25 92 0 4 43 7 95 7 52 0 95
-4 95 -9z m-258 -49 c7 -10 19 -22 27 -27 11 -6 13 -3 8 16 l-6 24 20 -24 c28
-34 25 -55 -6 -47 -34 9 -31 0 6 -19 45 -24 29 -28 -36 -11 -63 16 -94 36 -58
36 20 0 21 3 12 29 -6 17 -17 35 -25 42 -8 6 -14 16 -14 20 0 13 56 -18 72
-39z m385 21 c-8 -10 -20 -30 -26 -46 -9 -24 -8 -27 11 -27 39 0 4 -21 -58
-36 -67 -15 -79 -12 -35 11 37 19 40 28 6 19 -29 -7 -34 11 -10 42 14 19 14
19 15 0 0 -18 4 -16 33 11 51 48 104 69 64 26z m-317 -308 c-7 -8 -18 -15 -25
-15 -7 0 -18 -7 -25 -16 -12 -13 -10 -14 13 -3 35 16 43 7 27 -31 -14 -35 -31
-40 -23 -7 5 19 1 17 -33 -14 -22 -20 -47 -39 -56 -42 -14 -5 -13 2 8 41 l25
47 -23 6 c-20 5 -21 7 -6 14 19 7 107 33 122 34 5 1 3 -6 -4 -14z m263 -6 c50
-12 72 -29 39 -29 -24 0 -20 -29 10 -72 18 -26 18 -27 1 -21 -10 3 -35 22 -57
42 -34 31 -38 33 -33 14 8 -33 -9 -28 -23 7 -16 38 -11 44 25 30 25 -9 26 -9
15 5 -7 8 -18 15 -25 15 -7 0 -19 7 -26 16 -12 15 -11 16 6 11 11 -3 41 -11
68 -18z"/>
<path d="M5417 1500 c-3 -11 -1 -20 4 -20 5 0 9 9 9 20 0 11 -2 20 -4 20 -2 0
-6 -9 -9 -20z"/>
<path d="M5772 1500 c0 -14 2 -19 5 -12 2 6 2 18 0 25 -3 6 -5 1 -5 -13z"/>
<path d="M5351 1484 c0 -11 3 -14 6 -6 3 7 2 16 -1 19 -3 4 -6 -2 -5 -13z"/>
<path d="M1335 1549 c-4 -5 -4 -160 0 -344 5 -319 7 -340 31 -423 50 -174 189
-337 355 -418 126 -62 116 -62 231 -5 113 54 218 135 273 209 48 64 130 235
144 300 7 33 11 174 11 370 l0 317 -152 -6 c-157 -6 -853 -1 -875 6 -7 2 -15
0 -18 -6z m705 -66 c0 -4 -17 -25 -37 -47 -21 -23 -26 -30 -10 -17 15 14 27
20 26 15 0 -5 -14 -20 -32 -34 -17 -14 -28 -19 -24 -12 11 17 -8 15 -23 -3 -7
-8 -9 -15 -5 -15 5 0 0 -9 -10 -20 -10 -11 -22 -17 -26 -14 -5 3 -9 1 -9 -5 0
-5 -7 -11 -15 -13 -25 -5 -195 -159 -188 -170 4 -7 1 -8 -6 -3 -17 10 -59 -31
-66 -66 -8 -37 6 -64 16 -29 7 23 7 24 8 3 1 -25 -47 -57 -72 -47 -21 8 -35
46 -27 70 5 11 70 78 146 149 77 70 167 154 201 186 34 33 72 63 85 68 28 12
68 14 68 4z m170 -5 c0 -8 3 -9 8 -3 4 6 27 11 51 12 l45 2 -33 -20 c-19 -11
-63 -42 -99 -70 -47 -35 -74 -49 -97 -49 -32 0 -61 20 -48 33 10 11 25 8 18
-3 -3 -6 1 -7 9 -4 9 3 16 14 16 24 0 11 5 22 12 26 7 4 8 3 4 -4 -4 -7 -4
-12 -1 -12 8 0 60 40 85 64 19 18 30 20 30 4z m-45 -8 c-3 -5 -12 -10 -18 -10
-7 0 -6 4 3 10 19 12 23 12 15 0z m153 -27 c-3 -23 -30 -44 -178 -139 -96 -62
-176 -117 -178 -122 -1 -5 8 -9 20 -8 13 1 29 -2 36 -7 7 -6 17 -5 25 2 10 8
14 7 14 -4 0 -8 -24 -28 -53 -45 -49 -27 -75 -50 -58 -50 7 0 114 47 272 121
97 45 106 47 97 18 -5 -16 -4 -19 5 -14 9 5 11 4 6 -3 -4 -7 -16 -12 -26 -12
-10 0 -22 -5 -25 -11 -4 -5 -12 -8 -18 -6 -7 2 -18 -2 -25 -9 -7 -7 -19 -11
-27 -8 -8 4 -15 1 -15 -6 0 -6 -4 -8 -10 -5 -5 3 -10 2 -10 -4 0 -6 -7 -7 -17
-4 -11 4 -14 3 -9 -5 4 -7 1 -12 -6 -13 -38 -2 -72 -9 -77 -16 -3 -4 -17 -10
-31 -11 -14 -2 -34 -12 -45 -22 -11 -10 -30 -21 -42 -25 -26 -7 -31 -25 -8
-25 9 0 27 12 41 27 25 27 26 27 56 10 22 -12 27 -13 19 -4 -9 12 -8 16 4 21
9 3 13 2 10 -4 -3 -6 1 -10 10 -10 34 0 8 -22 -55 -47 -36 -14 -70 -30 -76
-35 -6 -4 -20 -6 -30 -2 -11 3 -26 8 -34 11 -12 4 -12 7 4 19 15 10 17 17 9
25 -9 9 -8 15 1 25 8 8 11 24 8 41 -6 25 -7 26 -10 6 -2 -13 -8 -23 -13 -23
-6 0 -7 -4 -4 -10 3 -5 1 -10 -5 -10 -8 0 -8 -6 0 -20 7 -14 7 -20 0 -20 -5 0
-10 -7 -10 -16 0 -11 -5 -14 -16 -10 -10 4 -25 -1 -34 -9 -14 -12 -20 -13 -26
-4 -4 8 -3 10 4 5 8 -5 12 1 12 14 0 12 4 18 10 15 6 -3 7 1 4 10 -4 8 -3 35
0 60 6 38 14 50 59 84 29 23 57 45 63 49 5 5 30 22 55 38 24 15 56 38 71 50
l27 22 -22 10 c-22 11 -21 11 3 9 14 -1 27 -5 30 -8 3 -4 48 26 100 66 52 41
101 74 108 74 9 1 12 -8 10 -26z m4 -108 c6 6 1 -53 -6 -72 -3 -6 -2 -14 2
-16 4 -2 2 -3 -4 -1 -6 1 -30 -7 -54 -17 -43 -19 -100 -18 -100 2 0 5 19 18
43 30 69 35 99 60 92 77 -4 12 -2 12 8 4 8 -7 16 -9 19 -7z m-41 -18 c-13 -13
-26 -3 -16 12 3 6 11 8 17 5 6 -4 6 -10 -1 -17z m-39 -14 c-7 -3 -19 -11 -27
-20 -8 -8 -15 -10 -15 -5 0 12 43 42 50 35 3 -3 -1 -8 -8 -10z m-352 -13 c0
-5 7 -10 15 -10 8 0 15 3 15 8 0 4 16 8 36 9 35 2 36 1 18 -15 -39 -36 -275
-212 -283 -212 -5 0 -12 -6 -14 -12 -3 -7 -6 -3 -6 10 -1 12 -7 22 -13 23 -10
0 -10 2 0 6 6 2 12 11 12 19 0 8 8 14 18 14 13 0 14 -2 4 -9 -8 -5 -12 -17
-10 -27 3 -16 7 -14 20 11 9 17 31 45 48 63 17 17 25 32 18 32 -7 0 -2 6 12
13 14 8 24 19 23 25 -2 7 4 9 14 5 12 -5 15 -2 10 10 -3 9 -1 19 5 23 7 5 9 2
4 -7 -4 -8 1 -4 10 9 17 22 44 30 44 12z m300 -18 c0 -5 -12 -14 -27 -21 l-28
-11 24 20 c26 22 31 24 31 12z m-33 -79 c-2 -2 -26 0 -52 4 -35 4 -44 8 -30
13 18 6 90 -9 82 -17z m53 3 c0 -2 -9 -6 -20 -9 -11 -3 -18 -1 -14 4 5 9 34
13 34 5z m-480 -31 c-7 -8 -17 -12 -22 -9 -5 3 -1 12 9 19 22 17 30 11 13 -10z
m515 -74 c3 -5 1 -12 -5 -16 -5 -3 -10 1 -10 9 0 18 6 21 15 7z m-17 -36 c-2
-2 -21 2 -42 9 -22 8 -33 16 -25 18 14 5 74 -20 67 -27z m-480 -17 c2 -13 -4
-30 -12 -37 -12 -10 -14 -9 -9 7 2 11 0 23 -6 26 -7 4 -8 1 -5 -8 3 -9 1 -16
-5 -16 -21 0 -25 32 -6 47 25 18 39 12 43 -19z m580 -30 c-3 -7 -33 -18 -68
-25 -56 -12 -358 -95 -398 -110 -9 -4 -13 -2 -9 4 4 6 1 13 -5 16 -7 2 -2 4
12 4 34 0 210 55 205 64 -3 4 9 12 25 18 18 6 28 6 25 1 -4 -6 -13 -10 -22
-10 -9 0 -14 -3 -10 -6 3 -3 35 4 71 16 55 18 108 30 169 39 5 0 7 -4 5 -11z
m-627 -36 c-7 -2 -18 1 -23 6 -8 8 -4 9 13 5 13 -4 18 -8 10 -11z m-181 -2 c0
-5 -4 -10 -10 -10 -5 0 -10 5 -10 10 0 6 5 10 10 10 6 0 10 -4 10 -10z m46
-22 c-3 -18 -25 -55 -26 -42 0 5 3 14 8 20 4 5 -5 -4 -20 -20 -21 -21 -28 -39
-28 -67 0 -39 0 -39 19 -20 11 11 27 33 35 50 9 16 30 39 47 51 26 20 34 21
54 10 13 -7 32 -10 42 -7 16 6 16 5 -1 -6 -46 -30 -75 -59 -70 -71 3 -8 0 -17
-7 -22 -8 -4 -10 -3 -5 4 4 7 2 12 -3 12 -20 0 -12 -68 9 -83 18 -12 15 -13
-24 -11 -51 3 -101 26 -116 53 -21 40 -12 89 23 126 32 34 67 47 63 23z m313
-5 c-20 -8 -50 -11 -85 -7 -84 10 -72 19 27 19 81 1 86 0 58 -12z m-99 -28 c0
-7 -30 -13 -34 -7 -3 4 4 9 15 9 10 1 19 0 19 -2z m1 -53 c-6 -11 -30 -27 -55
-36 -25 -10 -50 -25 -56 -34 -9 -16 -9 -16 -10 -1 0 20 39 47 80 56 17 3 30
12 30 19 0 8 5 14 10 14 7 0 7 -6 1 -18z m-32 -188 c23 15 10 -12 -14 -28 -24
-16 -25 -16 -26 6 -1 17 -2 19 -6 6 -5 -20 -23 -23 -41 -8 -7 5 -6 3 1 -6 8
-8 29 -15 48 -16 19 0 43 -3 54 -6 17 -5 16 -7 -10 -13 l-30 -7 35 -1 c33 -2
34 -3 13 -13 -13 -6 -23 -17 -23 -24 0 -7 -4 -15 -10 -19 -14 -8 -51 18 -45
32 2 7 0 13 -6 13 -6 0 -9 -10 -7 -22 2 -11 -3 -23 -9 -25 -8 -3 -13 4 -13 16
0 13 -10 26 -26 33 -24 11 -24 13 -9 25 12 8 16 21 12 38 -4 24 -2 26 19 21
17 -5 26 -1 35 16 l11 21 18 -23 c10 -13 22 -20 29 -16z m299 -7 c20 -1 19
-27 0 -27 -5 0 -6 5 -3 11 4 6 -3 5 -15 -3 -18 -11 -23 -11 -27 0 -4 10 -8 10
-19 1 -11 -9 -18 -8 -29 1 -13 11 -14 10 -10 -3 7 -16 73 -29 81 -15 6 10 54
-21 54 -35 0 -7 -4 -7 -12 1 -7 7 -21 12 -32 12 -19 -1 -19 -2 4 -15 14 -8 19
-14 13 -15 -7 0 -13 -9 -13 -21 0 -16 -4 -19 -17 -14 -10 4 -26 7 -36 7 -14
-1 -15 3 -6 19 6 12 8 23 5 26 -3 3 -12 -9 -20 -28 -13 -32 -14 -32 -18 -9 -1
14 -13 30 -26 36 -20 10 -21 12 -6 18 12 4 15 15 12 37 -4 27 -3 30 18 25 17
-5 26 0 35 16 l12 22 18 -23 c10 -12 27 -23 37 -24z m-273 -16 c-3 -6 -11 -11
-17 -11 -6 0 -6 6 2 15 14 17 26 13 15 -4z m89 -67 c8 -21 -4 -41 -14 -24 -4
7 -7 1 -7 -14 l0 -27 19 20 c10 12 24 21 30 21 6 0 3 -9 -7 -20 -10 -11 -13
-20 -7 -20 6 0 18 10 27 23 l17 22 -7 -23 c-5 -16 -1 -30 12 -44 18 -21 18
-21 -4 -9 -27 14 -66 16 -43 2 8 -6 17 -8 21 -5 4 2 10 0 14 -6 3 -5 -1 -10
-9 -10 -9 0 -16 -8 -16 -17 0 -14 -9 -18 -44 -19 -38 -1 -45 2 -49 22 -3 16 2
24 17 30 20 6 20 7 -3 11 -13 3 -27 -1 -31 -7 -5 -8 -10 -8 -14 -2 -3 5 1 13
10 16 12 4 14 14 9 37 -6 28 -5 30 14 24 21 -6 56 16 44 29 -4 3 -2 6 4 6 6 0
14 -7 17 -16z"/>
<path d="M1910 1360 c-8 -5 -12 -12 -9 -15 4 -3 12 1 19 10 14 17 11 19 -10 5z"/>
<path d="M1950 1151 c0 -5 5 -13 10 -16 6 -3 10 -2 10 4 0 5 -4 13 -10 16 -5
3 -10 2 -10 -4z"/>
<path d="M1915 1129 c-4 -6 -4 -13 -1 -16 3 -4 6 -1 6 6 0 7 5 9 10 6 6 -3 10
-1 10 4 0 14 -17 14 -25 0z"/>
<path d="M1520 802 c0 -12 9 -26 21 -32 20 -11 20 -11 3 17 -10 15 -19 30 -21
32 -2 2 -3 -5 -3 -17z"/>
<path d="M1646 611 c-18 -7 -18 -8 -2 -14 19 -8 36 -1 36 14 0 10 -7 11 -34 0z"/>
<path d="M1945 610 c-19 -8 -19 -9 3 -9 12 -1 22 4 22 9 0 6 -1 10 -2 9 -2 0
-12 -4 -23 -9z"/>
<path d="M2010 570 c6 -11 13 -20 16 -20 2 0 0 9 -6 20 -6 11 -13 20 -16 20
-2 0 0 -9 6 -20z"/>
<path d="M1802 534 c10 -10 20 -16 22 -13 3 3 -5 11 -17 18 -21 13 -21 12 -5
-5z"/>
<path d="M1826 464 c-5 -14 -4 -15 9 -4 17 14 19 20 6 20 -5 0 -12 -7 -15 -16z"/>
<path d="M4280 1530 c-41 -11 -104 -34 -139 -50 l-64 -30 6 -283 c4 -155 7
-293 7 -307 0 -15 3 -20 8 -13 4 6 32 12 62 14 30 1 61 4 68 7 22 8 12 30 -25
53 l-36 23 39 11 c54 15 83 67 68 123 l-11 39 39 -17 c36 -16 43 -16 94 -1 30
9 48 17 40 19 -12 3 -13 9 -4 33 13 38 24 37 38 -6 9 -26 21 -39 48 -51 35
-14 40 -14 81 6 l44 21 -7 -23 c-3 -13 -9 -32 -11 -43 -7 -25 49 -95 75 -95
30 0 32 -17 5 -38 -14 -11 -25 -27 -25 -36 0 -13 13 -16 74 -16 l73 0 -4 148
c-2 81 -6 156 -8 167 -6 28 -106 78 -200 101 -54 13 -194 24 -234 19 -74 -10
-151 -35 -215 -68 -80 -42 -76 -40 -76 -28 0 17 99 69 173 92 60 19 86 21 205
16 145 -5 206 -20 298 -71 24 -14 45 -21 46 -18 2 4 2 57 0 118 l-3 111 -54
27 c-83 41 -160 57 -285 62 -94 3 -129 0 -190 -16z m80 -10 c0 -5 -8 -11 -17
-11 -16 -1 -16 -2 0 -6 18 -5 18 -5 0 -19 -17 -12 -16 -13 10 -14 24 0 27 4
28 33 1 17 3 24 6 15 2 -10 11 -18 19 -18 8 0 14 8 15 18 1 19 17 -22 18 -48
0 -12 -2 -11 -13 3 -16 21 -26 22 -26 2 0 -11 -11 -15 -40 -15 -22 0 -40 4
-40 9 0 5 -3 16 -6 25 -5 13 12 27 44 35 1 1 2 -3 2 -9z m137 -7 c3 -7 -4 -9
-17 -6 -18 5 -21 2 -18 -13 2 -12 10 -18 23 -16 15 3 17 1 9 -7 -14 -15 -44
-3 -44 18 0 33 38 52 47 24z m43 -8 c0 -8 7 -15 15 -15 8 0 15 -7 15 -15 0 -8
-5 -15 -11 -15 -5 0 -7 5 -4 10 3 6 -1 10 -10 10 -9 0 -13 -4 -10 -10 3 -5 1
-10 -4 -10 -6 0 -11 14 -11 30 0 17 5 30 10 30 6 0 10 -7 10 -15z m-235 -35
c6 -20 5 -22 -5 -13 -7 6 -18 9 -25 7 -14 -6 -41 24 -30 34 4 4 10 1 12 -5 7
-19 23 -16 23 4 0 22 16 6 25 -27z m300 23 c-5 -15 -4 -16 6 -5 7 6 18 12 23
12 6 0 5 -5 -2 -12 -7 -7 -12 -21 -12 -32 0 -17 -2 -18 -10 -6 -9 13 -11 13
-21 0 -8 -12 -10 -10 -5 10 3 14 6 31 6 38 0 6 5 12 11 12 6 0 8 -7 4 -17z
m-387 -17 c-25 -19 -22 -29 5 -16 20 10 20 10 5 -3 -25 -20 -22 -30 5 -22 17
5 19 4 7 -4 -25 -17 -39 -13 -46 15 -4 17 -2 29 7 35 22 14 36 10 17 -5z m445
-3 c-5 -15 -3 -16 8 -5 7 6 19 12 26 12 11 0 10 -6 -2 -30 -17 -33 -28 -40
-18 -12 5 14 3 15 -8 5 -25 -24 -38 -16 -26 17 12 31 31 43 20 13z m107 -22
c0 -9 -10 -27 -21 -41 -14 -16 -19 -19 -15 -7 6 18 -9 24 -19 7 -4 -6 -11 -8
-16 -5 -9 6 16 53 35 67 14 10 36 -2 36 -21z m-592 -15 c10 -23 9 -24 -21 -23
-23 2 -33 7 -35 22 -3 16 -1 18 9 8 18 -18 32 -16 25 2 -9 25 10 17 22 -9z
m412 -45 c0 -33 -19 -67 -20 -36 -1 19 -1 19 -14 3 -7 -10 -17 -18 -21 -18
-10 0 2 60 16 76 16 20 39 5 39 -25z m-215 -1 c19 -36 19 -46 1 -31 -10 8 -16
9 -21 1 -8 -13 -25 -13 -25 -1 0 14 19 61 24 61 3 0 12 -13 21 -30z m74 -2
c-2 -31 -2 -31 -6 -5 -5 34 -23 36 -23 3 0 -14 -4 -27 -9 -30 -6 -4 -8 38 -2
62 1 1 10 2 21 2 16 0 20 -6 19 -32z m52 2 c24 0 23 -30 -1 -38 -13 -5 -13 -3
-1 11 11 15 11 17 -2 17 -8 0 -18 -6 -20 -12 -3 -7 -5 3 -5 22 0 19 2 27 5 18
2 -10 13 -18 24 -18z m-189 8 c-7 -7 -8 -17 -2 -29 6 -10 6 -20 1 -23 -5 -3
-12 5 -15 19 -4 14 -12 25 -19 26 -6 0 -3 4 8 9 29 12 41 12 27 -2z m-50 -25
c20 -18 24 -33 7 -33 -5 0 -27 -11 -47 -25 -34 -23 -38 -24 -49 -8 -18 23 -16
50 3 57 30 11 39 5 14 -9 l-25 -14 33 -1 c28 0 32 3 32 25 0 29 7 31 32 8z
m393 -13 c0 -16 -6 -26 -19 -28 -25 -5 -39 12 -31 38 10 31 50 24 50 -10z m40
0 c-5 -14 -2 -20 9 -20 9 0 16 5 16 10 0 6 4 10 9 10 5 0 4 -13 -2 -30 -6 -16
-15 -30 -20 -30 -5 0 -7 7 -3 15 7 18 -15 20 -33 3 -10 -11 -10 -7 -1 16 6 16
13 33 16 37 10 16 15 9 9 -11z m-330 -102 l8 -23 4 23 c8 39 33 18 33 -27 0
-22 -36 -23 -51 -1 -9 13 -10 12 -5 -2 3 -10 1 -18 -4 -18 -6 0 -10 16 -10 35
0 40 14 46 25 13z m95 10 l-25 -11 25 -7 c24 -8 24 -8 3 -9 -13 -1 -23 -6 -23
-12 0 -24 45 -3 57 26 7 18 12 23 12 13 1 -20 27 -24 34 -5 9 24 16 0 9 -28
-7 -23 -10 -26 -15 -12 -8 21 -27 22 -27 2 0 -11 -11 -15 -39 -15 -45 0 -54 9
-45 45 5 19 12 25 33 24 l26 0 -25 -11z m-134 -43 c4 -21 3 -27 -4 -20 -6 6
-14 24 -18 40 -4 21 -3 27 4 20 6 -5 14 -23 18 -40z m264 36 c0 -24 -13 -70
-19 -66 -10 6 -1 75 10 75 5 0 9 -4 9 -9z"/>
<path d="M4726 1444 c-5 -14 -4 -15 9 -4 17 14 19 20 6 20 -5 0 -12 -7 -15
-16z"/>
<path d="M4555 1399 c-11 -17 1 -21 15 -4 8 9 8 15 2 15 -6 0 -14 -5 -17 -11z"/>
<path d="M4185 1320 c-3 -5 -2 -10 4 -10 5 0 13 5 16 10 3 6 2 10 -4 10 -5 0
-13 -4 -16 -10z"/>
<path d="M4617 1365 c-7 -16 8 -29 23 -20 15 9 12 35 -4 35 -8 0 -16 -7 -19
-15z"/>
<path d="M3544 1515 c11 -8 22 -12 25 -9 6 6 -19 24 -34 24 -5 -1 -1 -7 9 -15z"/>
<path d="M2656 1501 c-3 -4 -2 -28 3 -52 l9 -44 1 53 c1 51 -2 61 -13 43z"/>
<path d="M9050 1364 c-200 -133 -251 -170 -200 -144 66 34 426 280 410 280 -3
0 -97 -61 -210 -136z"/>
<path d="M6359 1476 c-10 -10 9 -613 20 -651 22 -72 54 -149 85 -200 36 -61
87 -121 99 -117 5 1 6 -2 3 -7 -8 -13 145 -132 162 -126 7 3 11 1 8 -4 -7 -11
22 -23 35 -15 5 3 12 -1 15 -9 3 -9 14 -13 27 -10 16 3 18 2 9 -5 -11 -7 -10
-10 3 -16 27 -10 42 -7 93 16 48 22 163 95 195 122 9 9 19 16 21 16 14 0 86
84 86 100 0 11 6 19 13 17 6 -1 11 4 10 11 -2 6 4 12 13 12 10 0 14 5 10 16
-4 10 -2 13 6 8 8 -5 9 -2 5 9 -4 10 -2 16 5 14 16 -3 39 44 32 68 -4 15 -3
16 4 6 7 -10 12 -5 21 22 24 71 36 246 35 482 l-2 240 -504 3 c-278 1 -506 0
-509 -2z m235 -148 c13 -29 46 -82 72 -117 27 -35 59 -78 71 -96 12 -18 45
-53 75 -79 29 -25 48 -46 42 -46 -16 0 -153 146 -199 212 -37 54 -55 70 -55
50 0 -13 95 -148 125 -178 14 -14 46 -44 71 -65 25 -21 39 -39 32 -39 -15 0
-124 109 -180 180 -62 79 -93 152 -89 213 2 28 10 20 35 -35z m654 -15 c-7
-16 -15 -32 -19 -38 -3 -5 -12 -27 -18 -47 -7 -20 -19 -42 -27 -48 -12 -11
-13 -7 -7 21 3 19 12 40 20 47 12 13 19 52 8 52 -2 0 -27 -9 -55 -20 -28 -11
-61 -20 -73 -20 -12 0 16 13 61 29 46 16 89 34 95 40 20 20 27 12 15 -16z
m-90 -64 c-35 -28 -54 -60 -26 -43 7 4 8 3 4 -4 -6 -9 -36 -6 -36 4 0 8 74 74
84 74 6 -1 -6 -14 -26 -31z m-141 -137 c-68 -69 -96 -105 -67 -87 18 11 11 -1
-12 -21 -19 -15 -20 -16 -9 -1 7 9 9 17 3 17 -14 0 -35 -28 -28 -38 8 -13 -18
-34 -29 -24 -5 4 -6 3 -3 -3 3 -5 -7 -26 -24 -45 -16 -19 -26 -27 -22 -17 6
17 5 18 -15 6 -22 -14 -30 -35 -8 -23 6 4 -8 -14 -32 -39 -24 -25 -49 -43 -54
-40 -6 3 -7 1 -3 -5 3 -6 2 -13 -4 -17 -5 -3 -8 -16 -6 -28 1 -12 1 -17 -1
-10 -2 6 -11 14 -19 17 -8 3 -13 2 -10 -3 7 -11 -49 -63 -59 -54 -4 5 -5 3 -1
-4 8 -14 -10 -27 -29 -19 -9 3 74 93 242 260 141 141 258 256 262 256 3 0 -29
-35 -72 -78z m33 4 c0 -2 -8 -10 -17 -17 -16 -13 -17 -12 -4 4 13 16 21 21 21
13z m-87 -215 c-2 -3 -16 8 -31 24 l-27 28 31 -24 c17 -13 30 -26 27 -28z
m-27 -8 c49 -45 78 -82 54 -68 -29 17 -110 88 -110 97 0 16 16 8 56 -29z m179
6 c4 -6 -2 -17 -14 -25 -12 -8 -21 -22 -21 -30 0 -8 -5 -14 -11 -14 -7 0 -8 7
-4 18 4 9 10 27 12 40 6 23 27 30 38 11z m-419 -62 c4 -4 -7 -7 -25 -7 -19 0
-30 4 -26 10 6 10 40 8 51 -3z m354 -27 c0 -5 -4 -10 -10 -10 -5 0 -10 5 -10
10 0 6 5 10 10 10 6 0 10 -4 10 -10z m-298 -62 c-10 -22 -11 -21 -11 12 -1 26
2 31 11 22 8 -8 8 -17 0 -34z m260 9 c-12 -13 -19 -27 -15 -30 3 -4 -3 -7 -15
-7 -29 0 -28 5 10 39 38 34 52 32 20 -2z m123 -19 c43 -51 23 -70 -22 -22 -20
21 -22 29 -11 36 9 6 6 7 -9 3 -12 -3 -24 -2 -27 3 -3 5 6 10 19 10 16 0 35
-12 50 -30z m-522 15 c-7 -2 -21 -2 -30 0 -10 3 -4 5 12 5 17 0 24 -2 18 -5z
m-29 -24 c3 -3 -6 -6 -19 -7 -14 -1 -25 3 -25 8 0 10 35 9 44 -1z m594 -14
c-3 -3 -9 2 -12 12 -6 14 -5 15 5 6 7 -7 10 -15 7 -18z m-491 -22 c-3 -10 -5
-4 -5 12 0 17 2 24 5 18 2 -7 2 -21 0 -30z m-20 -30 c-3 -10 -5 -2 -5 17 0 19
2 27 5 18 2 -10 2 -26 0 -35z m519 -9 c-6 -16 -46 -19 -46 -3 0 6 10 19 23 29
18 16 23 16 25 4 2 -8 1 -22 -2 -30z m-549 -11 c-3 -10 -5 -4 -5 12 0 17 2 24
5 18 2 -7 2 -21 0 -30z"/>
<path d="M6836 924 c-5 -14 -4 -15 9 -4 17 14 19 20 6 20 -5 0 -12 -7 -15 -16z"/>
<path d="M6762 850 c-12 -12 -22 -24 -22 -27 0 -4 11 4 25 17 23 22 29 30 22
30 -2 0 -13 -9 -25 -20z"/>
<path d="M10145 1461 c-81 -22 -170 -56 -202 -77 -20 -13 -23 -23 -23 -79 0
-37 4 -65 10 -65 6 0 10 28 10 64 l0 63 62 28 c114 51 190 66 338 66 103 0
154 -5 213 -20 87 -23 173 -58 164 -67 -4 -4 -28 3 -54 14 -102 43 -172 56
-318 56 -152 1 -243 -17 -346 -69 -49 -25 -49 -25 -49 -75 0 -28 2 -50 5 -50
4 0 18 6 33 14 15 8 63 27 107 42 74 26 91 28 235 29 133 0 166 -3 235 -23 44
-13 94 -31 111 -42 l32 -18 -5 54 c-3 34 -1 54 6 54 5 0 12 -28 14 -62 l3 -63
2 76 c1 52 -2 80 -11 87 -7 6 -55 25 -107 43 -87 30 -107 33 -245 36 -124 2
-162 0 -220 -16z m222 -68 c-3 -10 -5 -4 -5 12 0 17 2 24 5 18 2 -7 2 -21 0
-30z m-137 1 c0 -8 -4 -12 -10 -9 -5 3 -10 13 -10 21 0 8 5 12 10 9 6 -3 10
-13 10 -21z m41 1 c8 30 8 30 6 2 -2 -33 -22 -37 -23 -5 -1 20 0 20 4 -2 5
-25 5 -25 13 5z m181 0 c-2 -14 -6 -25 -7 -25 -1 0 -5 11 -7 25 -3 16 -1 25 7
25 8 0 10 -9 7 -25z m-114 -16 c-3 -8 -7 -3 -11 10 -4 17 -3 21 5 13 5 -5 8
-16 6 -23z m144 6 c3 -13 1 -22 -3 -19 -9 5 -13 44 -5 44 2 0 6 -11 8 -25z
m25 -12 c-3 -10 -5 -4 -5 12 0 17 2 24 5 18 2 -7 2 -21 0 -30z m43 33 c0 -2
-7 -7 -16 -10 -8 -3 -12 -2 -9 4 6 10 25 14 25 6z m-398 -31 c3 -14 1 -25 -3
-25 -5 0 -9 11 -9 25 0 14 2 25 4 25 2 0 6 -11 8 -25z m-50 -10 c3 -13 1 -22
-3 -19 -9 5 -13 44 -5 44 2 0 6 -11 8 -25z m303 7 c-3 -3 -11 0 -18 7 -9 10
-8 11 6 5 10 -3 15 -9 12 -12z m139 -1 c-10 -10 -21 -16 -24 -14 -3 3 4 11 14
19 28 20 33 17 10 -5z m33 -18 c-3 -10 -5 -4 -5 12 0 17 2 24 5 18 2 -7 2 -21
0 -30z m37 22 c3 -8 1 -15 -4 -15 -6 0 -10 7 -10 15 0 8 2 15 4 15 2 0 6 -7
10 -15z m-543 -10 c6 17 8 16 8 -7 1 -15 -3 -30 -9 -33 -5 -3 -10 0 -10 7 0 9
-3 9 -10 -2 -7 -11 -10 -6 -10 20 1 31 2 33 12 15 11 -19 11 -19 19 0z m56 -7
c-3 -8 -6 -5 -6 6 -1 11 2 17 5 13 3 -3 4 -12 1 -19z m533 -18 c5 0 11 6 13
13 3 6 6 -4 6 -23 0 -29 -1 -32 -10 -17 -6 9 -14 15 -20 12 -5 -4 -8 6 -8 22
1 17 3 21 6 11 2 -10 8 -18 13 -18z m-633 -17 c-3 -10 -5 -4 -5 12 0 17 2 24
5 18 2 -7 2 -21 0 -30z m-30 20 c-4 -3 -2 -12 4 -19 12 -15 4 -34 -14 -34 -7
0 -6 4 3 10 13 8 13 11 1 19 -12 8 -8 31 6 31 4 0 3 -3 0 -7z m623 3 c0 -2 -7
-7 -16 -10 -8 -3 -12 -2 -9 4 6 10 25 14 25 6z"/>
<path d="M9060 1333 l-205 -138 -2 -270 -3 -270 131 -85 c72 -47 164 -109 205
-137 41 -29 78 -53 83 -53 5 0 69 40 142 88 74 49 167 110 207 136 l72 47 0
273 0 273 -201 132 c-110 73 -206 134 -212 137 -7 2 -104 -58 -217 -133z m261
60 c13 -17 13 -17 -6 -3 -11 8 -22 16 -24 17 -2 2 0 3 6 3 6 0 17 -8 24 -17z
m-116 -19 c-26 -20 -55 -36 -55 -30 0 5 63 46 70 46 3 -1 -4 -8 -15 -16z m291
-95 c3 -5 -24 10 -61 32 -36 23 -68 45 -71 50 -3 5 24 -10 61 -32 36 -23 68
-45 71 -50z m64 -46 c0 -7 -39 17 -46 28 -3 6 5 3 20 -6 14 -10 26 -19 26 -22z
m-189 -5 c16 -21 18 -42 19 -214 l0 -190 -28 -27 c-25 -24 -36 -27 -98 -27
-89 0 -108 16 -109 93 l0 52 35 3 c34 3 35 2 35 -30 0 -32 1 -33 48 -36 41 -3
47 -1 48 17 5 71 5 87 1 97 -2 8 -26 11 -62 11 -88 -2 -99 12 -102 135 -2 130
5 138 114 138 71 0 82 -3 99 -22z m-406 -14 c-26 -20 -55 -36 -55 -30 0 5 63
46 70 46 3 -1 -4 -8 -15 -16z m663 -21 l32 -24 0 -249 c0 -249 0 -249 -22
-260 -21 -10 -21 -10 -5 3 15 13 17 38 17 260 l0 247 -40 26 c-22 15 -40 29
-40 31 0 6 19 -5 58 -34z m-731 -50 c-3 -10 -5 -4 -5 12 0 17 2 24 5 18 2 -7
2 -21 0 -30z m0 -280 c-1 -49 -3 -9 -3 87 0 96 2 136 3 88 2 -49 2 -127 0
-175z m0 -125 c-3 -7 -5 -2 -5 12 0 14 2 19 5 13 2 -7 2 -19 0 -25z m18 -68
c10 -11 16 -20 13 -20 -3 0 -13 9 -23 20 -10 11 -16 20 -13 20 3 0 13 -9 23
-20z m106 -72 c20 -17 18 -16 -16 3 -22 12 -47 29 -55 37 -20 20 37 -13 71
-40z m50 -35 c13 -16 12 -17 -3 -4 -17 13 -22 21 -14 21 2 0 10 -8 17 -17z
m394 -13 c-3 -5 -16 -15 -28 -21 -19 -9 -19 -8 3 10 28 23 34 26 25 11z m-293
-52 c31 -21 60 -43 63 -48 4 -6 -28 12 -69 41 -42 28 -76 53 -76 56 0 5 12 -1
82 -49z m238 19 c0 -6 -128 -97 -135 -97 -4 0 23 23 61 50 67 49 74 53 74 47z"/>
<path d="M9220 1116 l0 -56 53 0 52 0 0 53 0 52 -52 3 -53 3 0 -55z"/>
<path d="M7563 1173 c6 -317 10 -349 73 -480 70 -146 176 -249 342 -332 l93
-46 93 48 c198 103 309 229 373 422 26 78 27 88 31 378 l4 297 -507 0 -507 0
5 -287z m232 175 c69 -60 75 -84 75 -298 l0 -190 198 2 197 3 5 200 c5 187 6
202 28 237 22 36 79 85 87 76 3 -2 0 -20 -5 -39 -6 -18 -10 -157 -10 -306 l0
-273 -125 0 -125 0 0 -55 c0 -51 2 -55 23 -55 12 1 39 7 60 14 l37 14 0 -80
c0 -78 0 -79 -22 -72 -61 19 -89 22 -94 9 -5 -12 5 -58 21 -98 6 -15 -1 -17
-74 -17 -45 0 -81 3 -81 8 0 4 7 29 15 56 8 26 13 52 10 56 -5 7 -27 4 -97
-15 l-28 -7 0 80 0 81 41 -14 c23 -8 52 -15 65 -15 22 0 24 4 24 55 l0 55
-124 0 -124 0 -4 283 c-3 183 -8 292 -16 310 -15 36 -1 34 43 -5z"/>
<path d="M2935 1435 c-112 -25 -237 -76 -263 -108 -10 -12 -9 -16 5 -22 10 -5
21 -8 24 -7 3 0 198 4 432 7 l426 7 4 -59 3 -58 2 66 2 66 -57 30 c-68 36
-164 68 -247 82 -81 15 -258 12 -331 -4z"/>
<path d="M9460 1376 c0 -3 39 -32 88 -64 97 -65 122 -80 107 -65 -16 16 -195
134 -195 129z"/>
<path d="M10997 1363 c-3 -4 -8 -107 -12 -228 -6 -189 -5 -229 9 -283 52 -199
160 -332 333 -414 l61 -29 82 41 c92 46 150 95 217 184 94 126 113 208 113
503 l0 218 -353 1 c-194 1 -374 4 -399 8 -26 4 -48 3 -51 -1z m218 -110 l35 6
-17 -26 c-16 -24 -16 -26 3 -40 16 -12 17 -15 4 -23 -8 -5 -21 -10 -28 -10 -8
0 -10 -8 -6 -25 7 -29 -2 -32 -28 -8 -17 15 -19 15 -36 0 -26 -24 -35 -21 -28
8 5 20 2 26 -19 31 -30 7 -31 12 -8 29 15 11 15 17 5 40 -12 26 -12 27 17 20
24 -5 32 -2 42 16 l12 23 9 -23 c7 -20 13 -23 43 -18z m198 7 c4 -16 11 -19
37 -13 31 6 32 5 20 -16 -9 -19 -9 -26 5 -41 16 -18 16 -19 -10 -26 -24 -6
-26 -10 -21 -37 l6 -31 -25 24 -25 23 -26 -24 -27 -24 6 32 c5 27 3 32 -20 37
-24 7 -24 8 -8 26 13 14 14 23 6 39 -16 29 -14 32 16 20 25 -9 42 0 43 24 0
16 18 6 23 -13z m272 -10 c32 14 35 11 23 -15 -8 -19 -8 -28 2 -40 12 -14 11
-18 0 -25 -8 -5 -18 -6 -22 -4 -4 3 -8 -12 -8 -32 l0 -37 -23 21 -23 22 -22
-22 -22 -22 0 31 c0 25 -5 32 -27 38 l-28 7 22 16 c17 13 20 21 13 32 -18 28
-12 40 15 30 20 -8 27 -6 37 10 13 20 13 20 28 1 11 -14 20 -17 35 -11z"/>
<path d="M10204 1319 c-72 -12 -221 -67 -251 -93 l-25 -22 1 -184 c2 -172 11
-289 27 -357 17 -69 89 -184 128 -205 14 -7 8 3 -16 30 -48 53 -93 142 -107
212 -6 30 -13 154 -17 275 l-5 220 273 1 c319 1 305 -11 -22 -20 -124 -3 -226
-5 -228 -6 -9 -1 3 -405 14 -459 19 -94 60 -168 134 -242 73 -74 122 -107 196
-134 l51 -18 69 37 c115 60 207 162 256 285 22 54 23 67 21 314 -1 142 3 257
8 257 4 0 10 -51 12 -112 l3 -113 2 121 2 122 -52 24 c-147 69 -318 93 -474
67z m486 -119 c0 -6 -40 -9 -102 -8 -102 2 -102 2 -33 8 114 11 135 11 135 0z
m-100 -143 c-14 -30 -19 -58 -15 -84 5 -40 -3 -30 -25 30 -10 28 -11 28 -77
23 -38 -2 -76 -5 -85 -5 -16 -1 -18 -13 -18 -102 0 -99 1 -102 37 -162 42 -71
62 -97 75 -97 4 0 8 5 8 11 0 6 6 25 14 42 8 18 26 59 39 92 28 67 48 78 72
42 15 -23 14 -27 -20 -78 -20 -30 -55 -91 -77 -137 l-41 -82 -23 21 c-12 11
-28 34 -34 50 -7 16 -16 29 -19 29 -4 0 -18 20 -30 45 -12 25 -26 45 -30 45
-4 0 -13 -12 -20 -27 -7 -16 -33 -61 -58 -101 l-46 -73 -18 31 c-11 17 -19 34
-19 39 0 4 -25 45 -55 90 -79 119 -80 119 -59 142 9 10 21 19 25 19 5 0 32
-47 61 -105 29 -58 54 -105 57 -105 4 0 26 37 51 81 31 56 45 93 44 118 0 20
-1 66 -2 104 l-2 67 -84 0 -84 0 -17 -50 c-9 -27 -18 -50 -20 -50 -1 0 0 19 2
43 4 32 -1 55 -16 85 l-21 42 57 0 c108 0 478 13 482 16 13 11 9 -8 -9 -49z"/>
<path d="M2908 1282 l-218 -2 0 -238 c0 -273 10 -335 66 -442 63 -121 138
-191 284 -267 72 -37 76 -38 105 -24 211 106 315 212 372 380 21 62 23 83 23
329 l0 262 -67 1 c-174 3 -366 4 -565 1z m287 -87 c52 -9 103 -36 140 -75 l30
-32 -40 4 c-39 3 -40 2 -45 -31 l-5 -35 -24 36 c-25 36 -78 78 -99 78 -9 0
-12 -31 -12 -105 l0 -105 33 0 c70 -1 172 -74 203 -147 20 -46 18 -56 -8 -42
-18 10 -24 8 -38 -11 l-17 -23 -6 32 c-9 43 -35 79 -81 112 -32 24 -49 29 -98
29 -32 0 -73 -6 -91 -14 -44 -18 -94 -77 -108 -128 l-11 -43 -15 28 c-14 27
-16 28 -38 13 -34 -22 -37 -9 -10 44 36 72 105 127 176 142 l59 12 0 103 c0
57 -4 103 -8 103 -18 0 -93 -62 -104 -85 -15 -34 -28 -31 -28 6 0 31 -1 32
-40 26 -47 -6 -49 0 -12 35 55 53 169 92 237 82 11 -2 38 -6 60 -9z m-85 -430
c0 -5 21 11 46 35 39 38 45 41 38 20 -5 -14 -8 -41 -9 -60 0 -33 2 -36 43 -44
53 -12 53 -22 2 -30 -48 -8 -57 -24 -43 -78 6 -21 8 -38 5 -38 -4 0 -21 14
-39 32 l-33 32 -38 -37 c-21 -20 -41 -37 -44 -37 -4 0 -1 21 7 47 8 25 12 50
9 55 -3 4 -25 13 -50 19 -55 14 -56 25 -3 32 22 3 43 8 46 11 3 2 1 29 -4 60
l-10 54 38 -31 c21 -18 39 -36 39 -42z m249 -168 c-52 -139 -190 -207 -333
-165 -59 18 -128 90 -155 162 -28 75 -23 90 12 35 47 -75 148 -129 237 -129
91 0 209 75 241 153 23 56 21 7 -2 -56z"/>
<path d="M9670 1236 c0 -3 9 -10 20 -16 11 -6 20 -8 20 -6 0 3 -9 10 -20 16
-11 6 -20 8 -20 6z"/>
<path d="M3561 1164 c0 -11 3 -14 6 -6 3 7 2 16 -1 19 -3 4 -6 -2 -5 -13z"/>
<path d="M4381 1042 l-33 -17 6 -58 c3 -32 13 -65 21 -73 24 -24 19 -59 -10
-72 -14 -7 -33 -12 -41 -12 -25 0 -11 -23 32 -53 51 -35 136 -47 180 -24 30
15 72 56 61 58 -64 12 -106 68 -71 95 9 8 14 31 14 72 0 54 -3 63 -26 81 -32
25 -85 26 -133 3z m79 -18 c0 -16 -16 -19 -25 -4 -8 13 4 32 16 25 5 -4 9 -13
9 -21z m-40 -4 c0 -13 -49 -44 -57 -36 -9 8 27 46 44 46 7 0 13 -4 13 -10z
m100 -11 c0 -5 -7 -9 -15 -9 -15 0 -20 12 -9 23 8 8 24 -1 24 -14z m-35 -58
c3 -5 1 -12 -5 -16 -5 -3 -10 -14 -10 -24 0 -26 -38 -34 -50 -11 -14 25 -13
37 2 22 17 -17 28 -15 28 4 0 8 -4 12 -10 9 -11 -7 -14 8 -3 18 10 10 41 8 48
-2z m15 -45 c0 -3 -4 -8 -10 -11 -5 -3 -10 -1 -10 4 0 6 5 11 10 11 6 0 10 -2
10 -4z"/>
<path d="M3561 854 c0 -11 3 -14 6 -6 3 7 2 16 -1 19 -3 4 -6 -2 -5 -13z"/>
<path d="M4090 786 c0 -31 3 -37 16 -32 9 3 35 6 59 6 37 0 47 5 64 29 l21 29
-80 4 -80 3 0 -39z"/>
<path d="M4697 821 l-28 -6 29 -28 c27 -26 33 -28 81 -21 48 6 51 8 51 35 0
28 -1 29 -52 28 -29 -1 -66 -4 -81 -8z"/>
<path d="M10721 714 c0 -11 3 -14 6 -6 3 7 2 16 -1 19 -3 4 -6 -2 -5 -13z"/>
<path d="M4170 713 l-75 -4 5 -70 5 -69 100 -47 c55 -26 116 -56 135 -68 19
-11 56 -32 82 -45 52 -27 43 -29 159 37 37 21 98 56 135 77 127 72 125 70 122
135 l-3 56 -130 0 -130 0 -3 -37 c-4 -44 -9 -46 -39 -14 -32 33 -92 34 -131 1
-39 -32 -42 -32 -42 9 0 38 -17 47 -80 44 -19 -1 -69 -4 -110 -5z m-13 -81
c-10 -10 -14 -22 -10 -25 3 -4 15 5 25 20 10 16 18 23 18 16 0 -6 -4 -15 -10
-18 -5 -3 -10 -12 -10 -18 1 -7 10 -1 20 12 11 13 20 18 20 12 0 -6 9 -11 20
-11 11 0 20 -4 20 -10 0 -5 -8 -7 -17 -4 -15 5 -15 3 2 -11 20 -17 20 -17 -2
-10 -14 4 -23 2 -23 -4 0 -6 5 -11 10 -11 6 0 10 -4 10 -10 0 -5 -7 -7 -16 -3
-11 4 -14 14 -9 37 5 28 4 29 -7 9 -13 -26 -40 -30 -57 -9 -10 12 -9 20 5 41
9 14 19 23 22 20 3 -3 -2 -13 -11 -23z m653 -19 c0 -2 -8 -3 -17 -1 -10 2 -17
-3 -15 -9 1 -7 -2 -13 -8 -13 -5 0 -10 5 -10 11 0 6 -6 9 -12 6 -7 -2 -12 -13
-10 -23 1 -12 -4 -9 -15 11 l-18 30 -3 -37 c-2 -21 -7 -38 -11 -38 -5 0 -8 8
-7 17 1 12 -8 18 -26 19 -18 2 -28 -2 -28 -11 0 -19 17 -28 23 -13 2 7 8 10
12 5 13 -11 -11 -31 -29 -24 -9 4 -16 16 -16 27 0 26 39 43 59 26 12 -9 13 -8
8 6 -4 13 2 20 28 30 19 6 35 16 35 20 0 5 14 -1 30 -14 17 -12 30 -23 30 -25z
m-494 -18 c12 -13 24 -21 27 -17 2 4 2 1 0 -6 -1 -8 -3 -19 -3 -26 0 -6 -9
-12 -21 -13 -17 -2 -18 1 -9 12 7 8 9 23 5 32 -6 15 -9 13 -21 -12 -8 -16 -12
-21 -9 -11 6 20 6 20 -16 0 l-22 -19 7 30 c7 29 23 55 34 55 2 0 15 -11 28
-25z m83 -65 c1 -17 -2 -21 -7 -12 -5 7 -16 10 -25 6 -13 -5 -16 -2 -11 10 3
9 11 13 17 9 6 -3 7 -1 3 6 -4 7 -5 20 -1 29 6 15 8 15 15 -3 5 -11 9 -31 9
-45z m210 28 c9 -26 9 -30 -1 -20 -17 17 -31 15 -24 -3 3 -8 2 -15 -3 -15 -10
0 -24 50 -16 58 3 3 5 0 5 -6 0 -7 5 -12 10 -12 6 0 10 7 10 15 0 24 7 18 19
-17z m-139 0 l9 -23 0 23 c1 34 21 16 21 -18 0 -26 -4 -29 -25 -28 -21 2 -25
7 -25 35 0 38 7 42 20 11z m79 -8 c7 -22 7 -29 -1 -24 -5 4 -14 0 -19 -7 -12
-20 -17 -8 -12 29 7 40 18 41 32 2z"/>
<path d="M4276 593 c-6 -14 -5 -15 5 -6 7 7 10 15 7 18 -3 3 -9 -2 -12 -12z"/>
<path d="M10696 638 c-51 -145 -199 -288 -336 -324 l-45 -13 35 0 c106 -2 312
194 360 342 18 58 7 53 -14 -5z"/>
<path d="M3494 578 c-19 -38 -71 -107 -93 -125 -8 -7 -10 -13 -4 -13 7 0 25
16 41 36 31 38 87 134 78 134 -3 0 -13 -15 -22 -32z"/>
</g>
</svg>
