<?xml version="1.0" standalone="no"?>
<!DOCTYPE svg PUBLIC "-//W3C//DTD SVG 20010904//EN"
 "http://www.w3.org/TR/2001/REC-SVG-20010904/DTD/svg10.dtd">
<svg version="1.0" xmlns="http://www.w3.org/2000/svg"
 width="600.000000pt" height="600.000000pt" viewBox="0 0 600.000000 600.000000"
 preserveAspectRatio="xMidYMid meet">

<g transform="translate(0.000000,600.000000) scale(0.100000,-0.100000)"
fill="#000000" stroke="none">
<path d="M950 3330 c0 -5 35 -27 78 -49 65 -33 307 -173 319 -185 2 -2 -31
-37 -73 -77 -103 -99 -225 -239 -221 -253 2 -6 19 -19 38 -28 33 -16 35 -16
84 13 72 42 233 119 250 119 10 0 15 -10 15 -29 0 -20 9 -36 25 -49 19 -15 25
-29 25 -60 0 -26 5 -42 15 -46 8 -3 15 -14 15 -25 0 -23 18 -37 43 -33 10 2
17 -3 17 -12 0 -8 6 -17 13 -20 6 -2 3 -4 -8 -2 -11 1 -38 12 -61 23 -33 18
-51 20 -102 16 -35 -3 -65 -10 -68 -14 -3 -5 1 -9 8 -9 8 0 23 -7 34 -16 15
-13 16 -15 2 -10 -11 3 -15 1 -12 -8 3 -9 -6 -15 -26 -19 -23 -5 -35 -2 -50
13 -24 24 -53 25 -157 5 -107 -21 -134 -20 -140 5 -4 14 -14 20 -32 20 -34 0
-55 -14 -48 -33 9 -24 120 -31 218 -13 90 17 152 18 143 4 -3 -4 -16 -8 -30
-8 -13 0 -24 -6 -24 -13 0 -25 41 -51 88 -57 l47 -5 0 -184 c0 -195 -4 -211
-47 -211 -12 0 -51 5 -87 10 -36 6 -81 13 -99 16 l-32 5 30 44 c16 24 30 50
30 58 0 7 -15 22 -34 32 -43 23 -72 13 -142 -50 l-49 -44 33 -7 c17 -3 32 -7
32 -8 0 0 -9 -23 -19 -51 l-19 -50 -91 2 c-80 1 -170 15 -371 54 l-54 11 99
48 c97 47 100 48 116 29 9 -10 38 -23 63 -29 26 -6 56 -16 67 -23 16 -10 21
-9 29 3 5 8 10 18 10 23 0 12 -40 24 -103 32 -31 4 -57 11 -57 15 0 12 261
116 351 140 23 6 53 16 67 21 l26 10 -30 19 c-33 23 -85 25 -214 10 -47 -6
-168 -19 -270 -31 -280 -31 -527 -68 -571 -85 l-39 -16 0 -544 c0 -299 3 -544
8 -543 4 0 36 10 72 22 55 18 67 27 79 55 16 35 37 40 67 16 10 -8 14 -13 7
-10 -15 8 -27 -10 -13 -19 5 -3 10 -12 10 -18 0 -7 -4 -6 -10 3 -5 8 -12 11
-16 7 -4 -3 -1 -15 7 -24 13 -16 12 -17 -2 -5 -14 10 -19 9 -32 -10 -8 -13
-27 -36 -42 -52 -18 -20 -25 -36 -22 -53 3 -19 -2 -27 -24 -39 -17 -8 -39 -35
-54 -64 l-25 -49 30 -16 c41 -21 254 -20 268 2 12 17 41 23 88 16 41 -5 50
-12 85 -59 21 -29 39 -57 39 -62 0 -5 -22 -56 -49 -113 -27 -57 -86 -196 -131
-308 -44 -112 -102 -247 -128 -301 l-47 -97 63 -2 c45 -2 62 1 62 11 0 9 3 9
10 -2 8 -13 13 -13 31 -2 11 8 18 9 14 3 -4 -8 32 -11 118 -11 l125 0 22 52
c24 56 41 117 70 247 l18 83 -23 -5 c-14 -2 -22 -1 -20 4 3 4 -1 10 -7 12 -7
3 2 3 19 0 31 -5 34 -3 49 33 20 49 23 52 33 35 7 -11 15 -11 41 -2 18 6 46
11 61 11 47 0 47 35 4 195 -8 28 -11 62 -8 78 4 19 1 27 -8 28 -8 0 -5 4 7 9
14 6 25 24 33 57 15 60 51 125 66 119 6 -2 12 5 12 15 1 10 -4 19 -11 19 -13
0 -59 130 -69 195 -3 17 -12 49 -20 73 l-15 42 41 0 c22 0 56 -5 74 -12 37
-13 26 15 153 -408 34 -113 64 -207 66 -209 7 -7 5 12 -5 46 -7 22 -6 34 2 37
9 5 9 8 -1 12 -17 8 -35 54 -61 151 -11 43 -36 129 -55 191 l-34 112 25 -5
c34 -6 38 -12 22 -31 -12 -15 -11 -19 9 -32 13 -8 22 -25 22 -39 0 -28 16 -63
29 -63 5 0 7 9 4 20 -6 24 9 26 27 5 7 -8 18 -15 25 -15 13 0 24 -47 17 -68
-2 -7 -10 -12 -18 -12 -9 0 -13 -4 -9 -9 3 -5 -3 -16 -13 -23 -25 -17 -36 -53
-24 -74 9 -15 10 -15 16 4 4 12 11 22 15 22 19 0 71 62 71 85 0 30 5 31 48 5
18 -11 42 -20 53 -20 15 0 19 -5 15 -17 -14 -45 -55 -233 -62 -278 -3 -27 -9
-52 -13 -55 -4 -3 -10 -12 -13 -21 -8 -21 -98 -43 -139 -35 -24 4 -29 2 -29
-13 0 -26 29 -48 80 -61 38 -9 54 -8 100 7 l55 18 65 131 64 131 47 -1 47 -1
-5 -52 c-5 -50 -4 -53 21 -63 15 -5 32 -8 37 -4 13 7 11 -5 -7 -76 -9 -34 -14
-71 -11 -81 3 -11 2 -17 -3 -14 -4 2 -15 -35 -25 -83 -9 -48 -30 -132 -45
-187 -16 -55 -32 -118 -35 -140 -4 -22 -12 -48 -17 -57 -8 -16 5 -17 176 -16
l185 1 15 66 c35 156 45 248 27 237 -9 -6 -26 82 -18 90 2 3 7 -13 11 -36 9
-56 23 -50 36 17 6 32 15 77 20 100 6 23 10 57 10 77 0 57 8 67 45 60 30 -5
33 -3 51 38 19 43 54 64 54 33 0 -9 -5 -13 -10 -10 -11 7 -30 -35 -30 -66 0
-11 17 -37 39 -59 44 -45 33 -46 191 13 52 19 139 49 194 67 l98 31 50 -18
c27 -9 55 -24 62 -33 8 -8 17 -49 21 -91 l6 -76 -53 -23 c-73 -31 -158 -87
-158 -104 0 -13 -80 -78 -204 -164 -33 -23 -66 -47 -73 -52 -7 -6 -23 -15 -37
-21 -30 -14 -49 -52 -33 -68 14 -14 110 -14 162 0 22 6 68 24 102 40 34 16 69
29 78 29 8 0 15 7 15 15 0 33 172 83 241 70 11 -2 17 0 15 4 -7 10 78 74 139
104 89 44 152 53 130 17 -3 -5 14 -1 39 9 42 18 46 19 65 3 11 -9 45 -32 76
-51 42 -26 55 -39 55 -58 0 -29 17 -63 31 -63 6 0 25 -12 42 -26 39 -33 141
-84 167 -84 28 0 41 38 46 139 3 79 5 85 40 123 36 40 36 41 29 106 l-7 65 34
-22 c18 -12 58 -34 88 -49 30 -15 57 -30 60 -34 3 -4 25 -10 48 -14 41 -6 42
-6 57 29 8 20 15 47 15 60 0 13 4 27 9 33 5 5 3 37 -5 74 -20 89 -16 111 21
123 70 22 83 49 95 206 5 64 16 141 24 171 13 51 13 56 -6 83 -11 15 -17 31
-14 35 14 14 248 3 263 -12 4 -3 11 -6 17 -6 6 0 4 5 -4 10 -20 13 -7 12 74
-5 38 -8 72 -13 76 -10 4 2 44 -7 88 -21 82 -25 107 -45 55 -43 -23 0 -25 2
-9 8 15 6 9 10 -30 20 -27 7 -58 16 -69 19 -11 3 -24 5 -29 3 -5 -1 -31 3 -57
9 -27 7 -54 10 -60 8 -7 -2 38 -15 100 -27 61 -13 110 -26 107 -28 -2 -2 -44
2 -93 11 -207 35 -343 47 -203 18 33 -7 60 -17 60 -22 0 -6 7 -10 15 -10 8 0
23 -4 33 -10 20 -11 94 -27 707 -151 527 -106 525 -106 525 -89 0 13 34 10
150 -15 59 -12 125 -25 218 -39 30 -5 32 -4 32 24 0 23 -5 30 -19 30 -10 0
-88 18 -172 39 -85 21 -192 44 -238 51 -46 6 -152 29 -235 50 -84 21 -165 41
-181 44 -87 16 -219 46 -290 64 -121 32 -428 97 -632 135 -186 34 -216 44
-195 70 7 8 9 17 5 20 -3 4 -1 7 6 7 7 0 11 6 8 13 -4 11 6 12 51 4 32 -5 62
-13 67 -17 6 -3 28 -8 50 -9 22 -1 60 -7 85 -13 25 -6 56 -12 70 -14 59 -9 79
-13 154 -32 44 -12 84 -18 89 -15 5 3 12 1 16 -5 4 -6 36 -16 73 -21 36 -6 81
-17 99 -25 19 -7 50 -13 69 -12 19 1 40 -1 45 -5 6 -3 51 -12 100 -19 50 -7
95 -16 100 -21 6 -4 20 -8 30 -8 28 1 103 -11 150 -23 56 -16 64 -17 120 -23
28 -3 83 -14 123 -25 91 -25 92 -25 92 5 0 17 -8 29 -22 35 -13 5 -147 34
-298 64 -366 74 -367 75 -338 104 15 15 -19 55 -39 47 -8 -2 -12 -1 -8 4 8 13
-162 134 -176 125 -7 -4 -9 -3 -6 3 9 14 -40 46 -55 37 -6 -4 -8 -3 -5 3 10
16 -27 44 -49 37 -13 -4 -15 -3 -7 3 9 6 -47 51 -184 146 l-197 137 -48 -47
c-34 -33 -48 -42 -48 -30 0 9 -4 17 -10 17 -5 0 -10 5 -10 11 0 6 6 9 14 6 7
-3 20 0 27 6 11 10 11 9 0 -5 -8 -11 -9 -18 -3 -18 17 0 25 21 13 33 -16 16
-13 30 5 23 9 -4 13 -2 8 5 -4 6 -1 15 5 19 8 4 -12 23 -53 50 -36 23 -66 47
-66 52 0 7 4 7 13 1 20 -16 191 -138 204 -147 15 -9 6 19 -28 86 -20 40 -22
41 -30 20 -5 -12 -16 -22 -24 -22 -10 0 -13 5 -9 12 4 7 3 8 -4 4 -6 -4 -18 6
-27 23 -14 28 -14 31 8 46 21 15 23 14 44 -12 17 -21 23 -24 23 -11 0 9 -5 20
-11 24 -15 9 -4 58 20 92 21 29 24 40 22 90 -1 35 -20 44 -28 12 -5 -20 -5
-20 -23 0 -9 11 -20 16 -24 12 -4 -4 -5 10 -1 31 5 25 4 37 -4 37 -6 0 -12 -8
-12 -17 -1 -10 -2 -23 -3 -29 -1 -12 -36 -48 -48 -50 -4 -1 -12 -2 -18 -3 -5
0 -10 -6 -10 -12 0 -5 6 -7 13 -3 9 6 9 5 0 -8 -7 -8 -10 -18 -6 -21 3 -4 -6
-6 -21 -5 -32 3 -41 13 -48 51 -4 18 -1 27 8 27 8 0 14 -4 14 -10 0 -5 7 -7
15 -4 8 3 14 9 13 12 -3 23 3 42 12 37 6 -3 10 1 10 9 0 8 -4 18 -10 21 -22
14 -7 23 57 35 50 10 68 10 71 2 4 -14 50 -5 73 14 8 8 32 14 51 14 44 0 98
45 98 83 0 13 6 30 14 36 8 7 17 24 20 39 29 164 40 202 56 202 9 0 52 -9 95
-20 43 -11 148 -27 234 -35 309 -31 501 -57 899 -123 43 -8 55 -6 59 5 3 8 1
19 -5 25 -6 6 -93 35 -194 63 -101 29 -326 96 -501 149 -175 53 -349 101 -385
106 -37 5 -111 7 -165 3 -107 -7 -171 6 -188 39 -5 10 -19 17 -32 16 -34 -3
-76 31 -158 129 -41 49 -81 94 -89 100 -22 19 -60 27 -71 16 -31 -31 -3 -101
64 -159 42 -38 117 -140 117 -161 0 -6 -28 -13 -62 -17 -35 -4 -83 -13 -108
-21 -25 -7 -89 -21 -142 -31 -54 -10 -98 -22 -98 -27 0 -4 -9 -5 -20 -2 -11 3
-20 2 -20 -2 0 -5 -6 -18 -14 -28 -12 -17 -13 -15 -11 22 2 36 0 40 -18 35
-17 -4 -18 -7 -5 -16 8 -6 15 -25 15 -42 0 -25 -3 -29 -13 -20 -7 6 -9 15 -4
20 11 11 1 36 -15 36 -17 0 -26 -39 -14 -62 13 -23 46 -23 58 1 7 12 34 24 78
35 90 22 258 46 308 45 l40 -1 -33 -8 c-43 -10 -44 -11 -46 -62 -2 -24 -7 -77
-11 -119 -7 -71 -6 -77 13 -91 21 -14 21 -15 -23 -51 -26 -22 -63 -41 -92 -48
-26 -6 -58 -15 -71 -20 -13 -5 -43 -9 -68 -9 -25 0 -55 -5 -66 -11 -14 -8 -18
-8 -14 0 7 11 -39 7 -74 -6 -8 -4 -19 -7 -25 -8 -5 -1 -17 -3 -25 -5 -8 -1 0
-5 19 -9 19 -3 36 -12 39 -20 3 -10 -2 -13 -22 -9 -17 4 -26 1 -26 -8 0 -7 -3
-21 -6 -31 -5 -14 -4 -15 4 -4 8 12 19 8 62 -19 l53 -34 61 16 c33 9 62 15 63
14 2 -1 -17 -13 -42 -25 -25 -12 -45 -25 -45 -29 0 -4 23 -22 51 -40 28 -18
49 -36 46 -38 -2 -3 -56 31 -118 74 -72 50 -118 76 -125 71 -6 -5 -14 -6 -17
-2 -4 3 -7 1 -7 -5 0 -7 -5 -12 -11 -12 -8 0 -8 5 1 15 8 9 9 15 2 15 -17 0
-25 -21 -13 -33 15 -15 14 -30 -3 -24 -10 4 -12 0 -9 -14 5 -18 3 -19 -20 -8
l-26 12 34 42 c19 23 35 44 35 47 0 3 -25 23 -55 43 -59 41 -69 59 -14 26 43
-26 64 -27 66 -1 2 23 -1 24 -29 9 -15 -8 -19 -8 -14 0 7 10 -20 16 -64 13 -8
0 -56 29 -108 65 -51 36 -95 63 -98 60 -2 -2 2 -10 10 -16 10 -9 12 -17 6 -24
-6 -7 -19 -23 -29 -37 -16 -20 -22 -23 -33 -12 -9 9 -10 15 -2 20 12 8 37 50
40 69 3 16 -44 46 -58 37 -6 -4 -8 -3 -4 4 9 14 -32 42 -52 35 -9 -4 -13 -2
-9 4 7 12 -10 29 -33 35 -8 2 -21 11 -28 21 -7 9 -23 17 -34 17 -12 0 -18 3
-15 7 10 9 -31 35 -43 28 -6 -3 -10 1 -10 9 0 19 -36 39 -53 30 -6 -4 -9 -4
-5 1 11 12 -11 35 -33 35 -23 0 -25 -16 -3 -28 13 -7 14 -13 5 -31 -12 -21
-31 -27 -44 -14 -10 9 14 34 25 26 6 -3 9 0 7 6 -7 20 -21 15 -38 -14 -15 -25
-15 -27 3 -40 16 -12 22 -12 35 -2 12 10 13 9 7 -1 -10 -17 11 -42 35 -42 11
0 19 -7 19 -15 0 -8 11 -17 25 -21 14 -3 25 -10 25 -15 0 -5 12 -15 27 -22 15
-6 36 -20 46 -30 15 -15 21 -16 33 -6 12 9 13 9 9 -2 -3 -8 -29 -24 -58 -37
-46 -20 -59 -22 -99 -13 -26 6 -89 17 -140 25 -51 8 -153 24 -226 36 -73 11
-158 23 -190 27 -85 9 -95 15 -111 67 -7 25 -18 46 -23 46 -6 0 -24 15 -40 33
-20 20 -40 32 -57 32 -16 0 -26 5 -26 15 0 8 -6 19 -12 23 -7 4 -13 14 -13 22
0 7 6 15 13 18 7 2 -2 18 -26 41 -57 54 -87 50 -245 -29 -76 -38 -144 -65
-161 -65 -30 0 -31 1 -31 48 0 41 4 49 29 63 23 14 29 25 34 70 12 95 9 132
-9 125 -8 -3 -13 -2 -10 3 3 5 0 11 -8 14 -8 3 -13 -1 -12 -10 0 -9 -6 -18
-14 -20 -12 -4 -13 -3 -1 5 11 8 7 14 -20 28 -30 15 -32 18 -14 24 12 5 34 0
58 -12 38 -19 38 -19 28 0 -6 11 -22 23 -36 26 -26 7 -33 20 -15 31 14 9 460
19 785 18 154 0 249 1 210 3 -38 2 -205 12 -370 21 -165 10 -375 17 -467 17
-133 -1 -168 1 -172 12 -3 8 -13 14 -23 14 -10 0 -24 9 -31 21 -10 15 -17 18
-26 10 -9 -7 -17 -3 -31 16 -28 37 -85 59 -205 78 -58 8 -163 27 -235 40 -137
26 -205 31 -205 15z m670 -200 c0 -5 -5 -10 -11 -10 -5 0 -7 5 -4 10 3 6 8 10
11 10 2 0 4 -4 4 -10z m-30 -31 l25 -20 -32 16 c-18 8 -33 18 -33 20 0 10 16
4 40 -16z m148 4 c-10 -2 -28 -2 -40 0 -13 2 -5 4 17 4 22 1 32 -1 23 -4z
m-75 -150 c-7 -2 -21 -2 -30 0 -10 3 -4 5 12 5 17 0 24 -2 18 -5z m2704 -179
c-3 -3 -12 -4 -19 -1 -8 3 -5 6 6 6 11 1 17 -2 13 -5z m80 -54 c1 -11 -3 -20
-9 -20 -6 0 -3 -10 8 -22 18 -20 18 -21 1 -15 -11 4 -30 10 -43 13 -33 8 -30
21 9 44 17 11 32 20 32 20 1 0 1 -9 2 -20z m-2787 -50 c0 -5 -2 -10 -4 -10 -3
0 -8 5 -11 10 -3 6 -1 10 4 10 6 0 11 -4 11 -10z m2667 -32 c-3 -8 -6 -5 -6 6
-1 11 2 17 5 13 3 -3 4 -12 1 -19z m30 -10 c-3 -8 -6 -5 -6 6 -1 11 2 17 5 13
3 -3 4 -12 1 -19z m188 4 c-3 -3 -11 0 -18 7 -9 10 -8 11 6 5 10 -3 15 -9 12
-12z m-3065 -12 c0 -5 -4 -10 -9 -10 -6 0 -13 5 -16 10 -3 6 1 10 9 10 9 0 16
-4 16 -10z m1483 -5 c-3 -9 -8 -14 -10 -11 -3 3 -2 9 2 15 9 16 15 13 8 -4z
m37 -25 c-14 -27 -30 -34 -43 -21 -9 9 -8 14 3 21 8 5 18 6 22 4 4 -3 5 2 2
11 -5 11 -2 14 10 9 12 -5 13 -10 6 -24z m1295 12 c22 -4 36 -10 30 -13 -5 -3
-32 0 -60 6 -55 14 -34 18 30 7z m154 -18 c2 -2 -19 -4 -47 -4 -29 0 -52 4
-52 10 0 9 88 3 99 -6z m44 9 c-7 -2 -19 -2 -25 0 -7 3 -2 5 12 5 14 0 19 -2
13 -5z m-1436 -20 c2 -5 -5 -21 -16 -34 -19 -23 -21 -23 -37 -7 -15 15 -16 20
-5 30 11 10 12 10 7 1 -4 -7 -3 -13 3 -13 5 0 13 9 16 21 7 20 26 22 32 2z
m-1457 -2 c0 -11 -38 -30 -62 -31 -30 0 -31 1 -22 24 4 10 18 14 45 13 21 -1
39 -3 39 -6z m1515 -31 c3 -6 0 -17 -8 -25 -9 -8 -17 -20 -20 -27 -3 -9 -12
-5 -28 11 -19 20 -20 23 -5 18 14 -6 17 -3 12 8 -3 9 -2 13 3 10 5 -3 12 -1
16 5 8 13 22 13 30 0z m-1790 -20 c3 -5 -1 -10 -10 -10 -9 0 -13 5 -10 10 3 6
8 10 10 10 2 0 7 -4 10 -10z m1845 -28 c0 -4 -8 -17 -18 -30 l-18 -23 -19 21
c-14 16 -15 19 -3 15 17 -7 32 20 22 37 -4 6 3 5 15 -1 11 -7 21 -15 21 -19z
m54 -30 c7 -12 -22 -52 -39 -52 -7 0 -12 10 -11 24 0 13 4 22 8 20 4 -2 9 0
13 6 8 12 22 13 29 2z m61 -33 c4 -5 2 -9 -4 -9 -5 0 -8 -15 -6 -32 4 -25 2
-29 -6 -18 -8 11 -12 12 -16 3 -7 -19 -21 -16 -34 8 -9 17 -8 20 2 14 9 -6 11
-3 6 8 -4 10 -2 16 6 14 7 -1 11 3 10 8 -2 14 35 17 42 4z m-1835 -44 c0 -14
-2 -25 -4 -25 -2 0 -11 11 -20 25 -16 24 -16 25 4 25 15 0 20 -7 20 -25z
m1311 -6 c-12 -13 -21 -19 -21 -14 0 11 32 46 38 41 2 -3 -5 -15 -17 -27z
m-453 -5 c51 -9 91 -19 88 -21 -6 -7 -199 28 -216 39 -11 7 -9 8 10 4 14 -3
67 -13 118 -22z m542 7 c0 -5 -7 -11 -14 -14 -10 -4 -13 -1 -9 9 6 15 23 19
23 5z m-106 -26 c17 -13 17 -15 3 -15 -11 0 -15 -7 -12 -20 2 -12 0 -18 -6
-15 -5 4 -7 11 -4 16 4 5 1 9 -4 9 -6 0 -11 -4 -11 -10 0 -5 -10 -10 -22 -9
-22 0 -22 1 -3 9 12 4 27 15 34 24 12 14 12 16 -4 10 -13 -5 -16 -4 -11 4 9
15 17 15 40 -3z m1463 -2 c-9 -9 -20 -13 -24 -9 -4 4 -1 11 7 16 25 16 35 11
17 -7z m-982 -3 c3 -5 -3 -10 -14 -10 -12 0 -21 5 -21 10 0 6 6 10 14 10 8 0
18 -4 21 -10z m-1716 -48 c6 -9 11 -13 11 -7 0 5 11 -7 25 -28 14 -20 32 -37
40 -37 26 0 104 -44 110 -62 3 -9 14 -19 23 -21 9 -3 3 -5 -13 -6 -30 -1 -74
23 -147 80 -46 37 -75 45 -81 22 -3 -10 -4 -6 -3 9 1 15 5 30 9 34 4 4 0 18
-9 31 -15 24 -15 24 5 14 11 -6 25 -19 30 -29z m1443 18 c-36 -22 -42 -24 -42
-12 0 11 39 30 60 31 8 1 0 -8 -18 -19z m1208 10 c0 -5 -5 -10 -11 -10 -5 0
-7 5 -4 10 3 6 8 10 11 10 2 0 4 -4 4 -10z m-2710 -25 c-7 -8 -17 -15 -23 -15
-6 0 -2 7 9 15 25 19 30 19 14 0z m1350 1 c0 -9 -7 -12 -20 -9 -11 3 -20 9
-20 14 0 5 9 9 20 9 11 0 20 -6 20 -14z m1267 8 c-3 -3 -12 -4 -19 -1 -8 3 -5
6 6 6 11 1 17 -2 13 -5z m-1481 -14 c16 0 18 -9 4 -30 -7 -12 -12 -12 -29 4
-25 23 -28 41 -5 32 9 -3 22 -6 30 -6z m704 -10 c0 -5 -7 -7 -15 -4 -8 4 -12
10 -9 15 6 11 24 2 24 -11z m-1070 -13 c0 -18 -40 -41 -52 -29 -12 12 0 40 20
45 21 4 32 -1 32 -16z m233 7 c29 -9 59 -18 67 -22 8 -3 18 -5 22 -4 12 3 29
-36 19 -42 -5 -3 -32 -1 -61 4 -29 6 -55 10 -57 10 -2 0 -2 3 0 8 3 4 -9 8
-25 9 -17 1 -36 7 -43 13 -10 8 -19 8 -34 1 -25 -14 -51 -4 -51 20 0 16 8 19
56 19 30 0 79 -7 107 -16z m1760 4 c4 -10 7 -10 18 0 21 19 42 15 36 -8 -3
-10 0 -21 7 -24 6 -2 -6 -5 -27 -5 -23 -1 -36 3 -32 9 3 6 0 10 -8 10 -7 0
-14 7 -14 15 0 18 14 20 20 3z m-1525 -13 c49 -15 52 -18 52 -48 0 -25 -11
-45 -48 -85 -27 -29 -47 -54 -45 -56 3 -2 -1 -7 -7 -11 -6 -3 -9 -1 -8 6 2 6
-3 14 -9 16 -8 3 -13 -5 -13 -21 0 -23 -4 -26 -33 -26 -36 0 -58 -15 -51 -35
3 -6 -2 -18 -11 -25 -9 -7 -15 -8 -15 -2 0 6 -10 12 -22 14 -14 2 -23 9 -22
20 1 11 -8 19 -25 22 -44 9 -263 46 -272 46 -22 0 -5 -20 34 -39 23 -12 38
-21 32 -21 -18 0 19 -20 58 -30 20 -6 37 -15 37 -20 0 -14 28 -12 32 1 3 8 9
7 19 -4 10 -9 26 -13 45 -10 16 3 26 2 22 -2 -4 -4 0 -13 9 -20 14 -10 12 -12
-13 -10 -39 2 -267 43 -324 58 l-45 11 40 7 c23 4 46 3 55 -3 8 -6 2 1 -13 16
-15 14 -25 26 -21 26 10 0 78 -43 86 -54 4 -6 10 -7 14 -3 14 14 -77 75 -116
78 -23 1 -23 2 5 9 23 6 25 8 9 9 -28 1 -38 28 -16 40 10 5 34 12 55 16 41 8
60 25 28 25 -30 0 -31 23 0 42 23 14 34 15 59 6 30 -10 31 -11 13 -32 -16 -19
-16 -19 8 2 14 12 28 20 31 17 3 -3 31 -7 62 -9 34 -2 64 -10 74 -20 14 -12
21 -13 30 -4 9 9 12 9 12 -3 0 -8 -5 -20 -11 -26 -6 -6 -9 -23 -7 -39 2 -25 8
-29 36 -32 28 -3 32 0 32 22 0 14 5 28 12 32 7 5 4 10 -11 16 -12 4 -20 12
-17 17 7 10 49 1 85 -19 33 -17 38 -4 13 30 -12 16 -22 41 -22 56 l0 27 25
-29 25 -29 0 27 c0 15 -4 30 -10 33 -12 7 -13 35 -2 35 5 0 32 -7 60 -15z
m1692 5 c0 -5 -10 -10 -22 -10 -19 0 -20 2 -8 10 19 13 30 13 30 0z m-2267
-11 c15 -6 27 -13 27 -14 0 -2 -13 -32 -30 -67 -16 -34 -30 -56 -30 -48 0 13
-1 13 -10 0 -8 -13 -10 -12 -10 3 0 9 4 17 8 17 5 0 9 7 9 15 0 12 -6 10 -25
-7 l-25 -23 5 27 c3 17 1 25 -5 21 -9 -5 -2 61 8 77 7 11 50 10 78 -1z m1015
-38 c1 -5 21 -5 43 -1 22 4 42 3 45 -2 3 -5 13 -8 22 -7 38 6 132 -13 151 -30
27 -23 26 -31 0 -31 -20 0 -21 -1 -5 -22 28 -40 37 -58 28 -58 -5 0 -26 25
-47 55 -49 72 -58 64 -10 -10 34 -54 35 -58 18 -70 -16 -12 -20 -10 -36 21 -9
19 -22 34 -27 34 -16 0 -23 2 -47 11 -15 5 -23 5 -23 -2 0 -6 -5 -7 -11 -4 -5
4 -22 3 -37 -3 -15 -5 -66 -20 -114 -33 -49 -13 -88 -26 -88 -30 0 -3 -24 -1
-53 4 -51 9 -54 12 -70 53 l-16 44 27 0 c15 1 38 7 52 15 23 13 22 14 -27 8
-47 -5 -53 -4 -53 13 0 27 53 48 120 46 44 -1 50 1 30 8 -17 7 -1 8 50 4 41
-3 76 -9 78 -13z m869 12 c-4 -3 0 -18 9 -32 l16 -26 -22 21 c-19 19 -21 44
-3 44 4 0 3 -3 0 -7z m-2470 -10 c-4 -3 1 -12 11 -19 16 -12 15 -13 -5 -14
-12 0 -25 5 -28 10 -8 12 2 30 17 30 6 0 8 -3 5 -7z m233 -15 c10 -21 10 -22
-4 -5 -16 20 -56 16 -56 -6 0 -7 -4 -6 -10 3 -11 17 4 30 37 30 13 0 27 -9 33
-22z m-290 -34 c0 -14 -4 -23 -9 -20 -5 3 -7 15 -4 26 7 28 13 25 13 -6z
m2004 -32 c-21 -5 -28 4 -20 24 6 16 8 15 21 -2 12 -16 12 -19 -1 -22z m-1509
8 c-3 -5 -12 -10 -18 -10 -7 0 -6 4 3 10 19 12 23 12 15 0z m-38 -13 c9 -9
-26 -7 -57 3 -21 7 -19 8 12 6 21 -1 41 -6 45 -9z m220 7 c-3 -3 -12 -4 -19
-1 -8 3 -5 6 6 6 11 1 17 -2 13 -5z m554 -71 c-8 -15 -10 -15 -11 -2 0 17 10
32 18 25 2 -3 -1 -13 -7 -23z m-1300 -7 c5 3 9 1 9 -5 0 -5 -9 -9 -20 -8 -21
1 -25 9 -13 21 4 4 9 2 11 -3 2 -6 8 -9 13 -5z m1106 8 c-3 -3 -12 -4 -19 -1
-8 3 -5 6 6 6 11 1 17 -2 13 -5z m-1020 -28 c-4 -10 3 -16 21 -19 22 -3 21 -4
-8 -6 -29 -1 -36 3 -37 19 -1 12 4 20 14 20 9 0 13 -6 10 -14z m441 3 c-16
-10 -78 -9 -78 1 0 5 20 8 44 7 24 -1 39 -5 34 -8z m1509 -9 c4 -16 14 -20 43
-20 35 0 38 -2 32 -22 -3 -13 -10 -26 -16 -30 -8 -6 -8 -8 0 -8 7 0 9 -11 6
-26 l-5 -25 -17 28 c-12 19 -14 30 -6 35 7 5 6 8 -4 8 -14 0 -60 57 -60 73 0
16 22 5 27 -13z m183 -27 c0 -13 -6 -23 -13 -23 -9 0 -12 11 -9 36 5 39 22 29
22 -13z m-3163 18 c54 -11 127 -29 163 -40 36 -11 103 -27 150 -36 47 -10 87
-21 90 -25 7 -10 182 -40 251 -43 32 -1 55 -5 52 -9 -6 -11 11 -10 22 1 19 17
72 20 91 6 11 -8 29 -15 41 -15 16 0 29 -12 43 -40 32 -63 24 -68 -28 -17 -52
51 -74 57 -123 31 -17 -8 -47 -15 -67 -13 -21 1 -57 1 -80 0 l-44 -1 25 -30
c14 -16 28 -39 32 -50 3 -11 14 -20 24 -20 26 0 41 -20 41 -57 0 -22 -6 -36
-20 -43 -11 -6 -20 -19 -20 -29 0 -23 -56 -47 -64 -28 -2 7 -5 -1 -5 -18 0
-16 3 -25 7 -19 4 6 20 14 36 18 40 10 76 50 76 86 0 27 3 29 86 49 47 11 88
22 90 23 2 2 -1 21 -7 42 -6 21 -7 41 -4 44 9 9 55 -45 55 -64 0 -8 5 -14 10
-14 6 0 10 -22 10 -50 0 -27 3 -50 8 -50 8 0 57 72 55 81 -3 9 117 62 124 55
3 -3 -8 -13 -25 -23 -30 -17 -31 -22 -44 -108 -9 -63 -46 -206 -53 -205 -6 0
-9 16 -7 35 2 18 -4 47 -13 64 -11 22 -12 31 -3 31 13 0 58 39 58 51 0 10 -65
-9 -103 -30 -22 -12 -33 -27 -35 -45 -2 -14 0 -26 5 -25 20 3 34 -2 28 -11 -3
-5 -2 -10 4 -10 12 0 24 -36 17 -49 -3 -4 -23 -4 -46 2 -30 8 -40 16 -40 32
-1 17 -2 18 -10 4 -8 -13 -20 -15 -57 -11 -27 2 -56 9 -65 14 -16 8 -16 10 2
28 11 11 20 28 20 38 0 10 -3 13 -8 6 -4 -6 -24 -14 -44 -18 -29 -5 -38 -12
-38 -27 0 -16 -5 -18 -27 -13 -16 4 -32 10 -38 14 -5 4 -50 15 -100 24 -49 9
-104 21 -121 27 -17 5 -38 9 -47 9 -9 0 -14 6 -11 13 3 8 57 25 126 41 l120
28 -4 48 c-6 58 -39 100 -80 100 -15 0 -55 6 -90 14 -65 15 -124 21 -168 16
-23 -2 -22 -3 9 -11 18 -6 32 -12 30 -14 -6 -5 -152 21 -303 54 l-140 31 -35
-24 c-56 -37 -71 -43 -97 -38 -30 5 -31 18 -3 27 17 6 19 9 8 16 -19 12 -32
11 -24 -1 3 -5 4 -10 1 -10 -3 0 -10 10 -17 21 -8 15 -8 19 0 15 6 -4 11 -2
11 3 0 6 -6 11 -14 11 -7 0 -16 8 -19 19 -4 18 -2 18 54 5 32 -8 109 -23 171
-34 62 -11 127 -23 143 -26 20 -4 27 -3 20 4 -5 6 -21 12 -35 15 -15 2 -6 5
20 5 25 1 144 -18 265 -42 121 -25 223 -41 228 -37 4 4 -55 19 -130 35 -76 15
-178 36 -227 47 -49 11 -98 18 -108 16 -11 -3 -15 -1 -11 5 4 8 -5 9 -28 5
-21 -4 -29 -4 -20 2 17 11 -70 25 -102 16 -15 -4 -18 -3 -9 3 9 6 -25 17 -105
33 l-118 23 60 7 c44 6 170 35 202 48 1 1 46 -8 100 -18z m1120 0 c1 -14 -3
-18 -13 -14 -11 4 -12 9 -3 19 15 18 14 18 16 -5z m1859 -49 c8 -29 -12 -52
-45 -52 -25 0 -26 3 -26 50 0 62 20 82 48 47 9 -12 20 -32 23 -45z m-2063 51
c-7 -2 -19 -2 -25 0 -7 3 -2 5 12 5 14 0 19 -2 13 -5z m1347 -10 c0 -34 -12
-63 -26 -63 -17 0 -19 51 -2 68 17 17 28 15 28 -5z m-719 -22 c28 32 47 12 29
-30 -13 -32 -45 -45 -33 -14 4 10 2 14 -5 10 -6 -4 -24 -9 -41 -11 -27 -3 -29
-1 -20 15 5 11 14 19 19 19 5 0 12 10 17 23 7 21 8 21 11 -6 l3 -28 20 22z
m254 19 c3 -5 1 -10 -4 -10 -6 0 -11 5 -11 10 0 6 2 10 4 10 3 0 8 -4 11 -10z
m62 -6 c-3 -3 -12 -4 -19 -1 -8 3 -5 6 6 6 11 1 17 -2 13 -5z m311 -51 c-13
-16 -43 -17 -69 -3 -17 10 -18 13 -5 25 8 8 22 12 31 9 9 -4 15 -3 14 2 -4 23
3 24 20 3 14 -17 16 -28 9 -36z m116 21 c-4 -38 -14 -42 -14 -6 0 18 4 32 9
32 4 0 7 -12 5 -26z m186 11 c0 -7 17 -15 39 -19 30 -5 44 -14 65 -46 14 -22
25 -40 24 -40 -2 0 -63 11 -137 25 -74 14 -136 25 -138 25 -1 0 -3 15 -3 33
l0 32 75 2 c55 1 75 -2 75 -12z m-1396 -10 c3 -8 11 -14 18 -13 9 2 12 -6 10
-22 -2 -14 -5 -26 -6 -27 -4 -4 -160 -43 -173 -43 -43 0 52 102 97 105 11 1
23 5 27 8 10 11 20 8 27 -8z m952 -27 l29 -31 -37 28 c-39 28 -45 35 -30 35 5
0 21 -14 38 -32z m871 26 c-3 -3 -12 -4 -19 -1 -8 3 -5 6 6 6 11 1 17 -2 13
-5z m652 -25 c13 -11 21 -22 19 -25 -3 -3 -19 6 -34 20 -34 30 -20 35 15 5z
m-1881 -12 c2 -10 -3 -17 -12 -17 -9 0 -16 2 -16 4 0 2 -3 12 -6 21 -5 13 -2
16 12 13 10 -2 20 -11 22 -21z m454 -25 c29 -26 53 -50 53 -54 0 -15 39 -48
45 -38 5 7 11 6 18 -3 10 -11 6 -13 -21 -12 -17 1 -34 -1 -37 -6 -3 -4 -28 18
-55 49 -51 59 -36 53 22 -8 18 -19 33 -30 33 -23 0 14 -62 90 -98 120 -15 12
-24 22 -20 23 4 0 31 -21 60 -48z m1338 18 c-8 -5 -11 -10 -6 -10 6 0 1 -6 -9
-14 -11 -8 -16 -19 -12 -30 9 -24 -39 -21 -52 3 -12 22 9 37 27 19 7 -7 16 -2
27 16 10 14 22 26 29 26 6 0 4 -5 -4 -10z m-1724 -25 c4 -8 13 -15 22 -15 8 0
13 -2 10 -5 -10 -10 -68 8 -68 21 0 19 29 18 36 -1z m-506 -22 c0 21 26 22 34
1 9 -23 7 -36 -3 -29 -5 3 -12 1 -16 -5 -3 -6 4 -10 17 -10 18 0 20 -2 8 -10
-12 -8 -12 -10 3 -16 9 -3 14 -10 11 -15 -3 -5 2 -9 10 -9 8 0 17 -4 21 -9 3
-6 -7 -6 -27 0 -18 5 -34 9 -35 9 -2 0 -3 9 -3 20 0 11 -7 20 -16 20 -8 0 -13
4 -10 9 4 5 2 11 -3 13 -4 1 -11 14 -15 28 -7 24 -6 24 8 6 14 -17 16 -18 16
-3z m787 5 c6 -7 13 -26 15 -41 5 -24 2 -28 -15 -25 -11 2 -22 9 -25 17 -3 8
0 11 7 7 6 -4 11 -2 11 3 0 6 -5 11 -11 11 -5 0 -7 5 -4 10 3 6 1 10 -5 10 -6
0 -8 5 -5 10 8 14 21 13 32 -2z m-64 -15 c4 -2 7 -10 7 -18 0 -10 -10 -11 -52
-1 -70 15 -79 40 -12 31 27 -4 52 -9 57 -12z m290 10 c-7 -2 -19 -2 -25 0 -7
3 -2 5 12 5 14 0 19 -2 13 -5z m-1106 -18 c3 -9 -2 -22 -13 -30 -17 -12 -16
-13 9 -8 52 10 27 -17 -53 -57 -78 -39 -129 -49 -126 -22 1 7 16 21 32 31 16
10 52 37 79 59 56 46 63 49 72 27z m1271 8 c-16 -2 -40 -2 -55 0 -16 2 -3 4
27 4 30 0 43 -2 28 -4z m619 -19 c-3 -3 -12 -4 -19 -1 -8 3 -5 6 6 6 11 1 17
-2 13 -5z m-1207 -30 c147 -26 255 -65 263 -95 6 -21 29 -27 25 -7 -2 7 4 13
12 13 8 0 15 -7 15 -16 0 -8 8 -27 18 -42 9 -14 17 -34 17 -42 0 -9 5 -26 11
-37 10 -19 9 -20 -17 -14 -16 4 -74 16 -129 26 -219 41 -507 100 -518 107 -13
8 -23 11 -82 23 -43 8 -43 9 -7 16 13 2 36 11 52 19 16 8 35 15 43 15 7 0 23
14 36 31 l23 31 76 -7 c43 -3 115 -13 162 -21z m464 -13 c-2 -3 -12 3 -22 13
-16 17 -16 18 5 5 12 -7 20 -15 17 -18z m976 -1 c0 -5 -4 -10 -10 -10 -5 0
-10 5 -10 10 0 6 5 10 10 10 6 0 10 -4 10 -10z m-823 -6 c-3 -3 -12 -4 -19 -1
-8 3 -5 6 6 6 11 1 17 -2 13 -5z m-34 -13 c27 -4 66 -5 88 -1 23 4 65 2 99 -5
33 -7 60 -10 60 -8 0 3 7 0 15 -7 21 -17 19 -34 -2 -25 -10 4 -63 8 -118 10
-140 6 -206 15 -229 31 -20 13 -19 14 9 13 17 0 52 -4 78 -8z m-2676 -7 c-3
-3 -12 -4 -19 -1 -8 3 -5 6 6 6 11 1 17 -2 13 -5z m46 -11 c-7 -2 -19 -2 -25
0 -7 3 -2 5 12 5 14 0 19 -2 13 -5z m50 -10 c-7 -2 -19 -2 -25 0 -7 3 -2 5 12
5 14 0 19 -2 13 -5z m1573 -2 c-5 -8 -56 -3 -56 5 0 2 14 4 31 4 16 0 28 -4
25 -9z m-1676 -12 c-11 -7 -4 -8 25 -4 31 5 37 4 25 -5 -12 -9 -7 -10 20 -5
27 5 31 4 20 -5 -11 -8 -5 -9 25 -5 31 5 37 4 25 -5 -12 -8 -6 -9 25 -5 32 5
37 4 25 -5 -13 -10 -12 -11 4 -6 10 4 35 3 54 0 35 -7 35 -7 12 -16 -14 -5
-63 -11 -110 -14 -47 -3 -86 -9 -88 -14 -2 -6 -23 -10 -47 -10 l-44 0 -7 46
c-7 48 2 64 36 64 13 0 13 -1 0 -11z m147 5 c-3 -3 -12 -4 -19 -1 -8 3 -5 6 6
6 11 1 17 -2 13 -5z m3519 -26 c25 -18 71 -55 102 -81 l57 -49 9 26 10 25 23
-27 c13 -15 23 -30 23 -34 0 -4 7 -5 15 -2 9 4 15 0 15 -10 0 -21 22 -16 38 9
11 18 12 17 6 -9 -6 -26 -5 -28 17 -21 13 4 37 19 53 32 31 26 48 24 102 -8
23 -14 44 -48 92 -149 l61 -130 -27 0 c-15 0 -101 15 -191 34 -138 28 -168 31
-188 21 -13 -7 -24 -17 -23 -21 0 -5 -4 -30 -10 -55 -11 -44 -13 -46 -46 -45
-40 1 -42 13 -18 91 9 28 16 63 16 78 -1 24 2 26 14 16 9 -7 14 -8 14 -1 0 6
-5 12 -11 14 -7 2 -10 9 -8 16 3 8 18 1 42 -19 39 -32 49 -53 20 -42 -11 4
-14 3 -9 -5 16 -26 35 -10 50 43 32 110 33 107 -20 148 -26 20 -49 36 -50 34
-8 -8 -76 -245 -77 -268 -1 -16 -7 -25 -14 -22 -8 3 -9 12 -2 30 16 42 11 49
-44 62 l-53 12 -23 72 c-24 74 -47 103 -136 174 l-40 31 40 -3 c22 -1 32 -1
23 2 -27 7 -21 22 15 36 22 10 34 11 39 3 4 -6 9 -4 14 7 9 25 29 21 80 -15z
m-3473 15 c-7 -2 -19 -2 -25 0 -7 3 -2 5 12 5 14 0 19 -2 13 -5z m50 -10 c-7
-2 -19 -2 -25 0 -7 3 -2 5 12 5 14 0 19 -2 13 -5z m978 -10 c13 -16 12 -17 -3
-4 -10 7 -18 15 -18 17 0 8 8 3 21 -13z m-901 -3 c20 -6 21 -8 5 -8 -11 0 -29
3 -40 8 -25 11 1 11 35 0z m2528 -9 c17 -1 32 -6 32 -12 0 -8 -12 -10 -33 -6
-43 7 -87 -2 -87 -18 0 -7 13 -27 29 -44 15 -16 25 -32 20 -33 -4 -2 -5 -15
-2 -31 4 -18 9 -25 17 -19 6 5 23 12 39 16 57 13 109 -92 55 -110 -32 -11 -49
-6 -78 21 -25 22 -80 39 -80 25 0 -5 -8 -6 -17 -4 -10 3 -27 -2 -38 -10 -20
-14 -20 -14 2 -44 13 -17 20 -38 17 -49 -8 -29 42 -38 73 -13 32 25 96 35 125
19 29 -15 77 -70 78 -88 0 -10 -8 -7 -25 9 -27 25 -75 38 -75 20 0 -7 -7 -7
-21 1 -17 9 -25 8 -38 -5 -15 -16 -14 -20 7 -56 22 -38 22 -39 3 -50 -16 -8
-23 -5 -41 17 -11 15 -18 33 -16 40 8 20 -2 15 -14 -7 -9 -17 -6 -24 17 -44
l27 -23 -29 -15 c-17 -9 -36 -13 -42 -11 -7 3 -13 -1 -13 -9 -1 -19 -40 34
-40 54 0 18 -29 58 -41 58 -4 0 -10 -17 -14 -37 -4 -25 -9 -32 -15 -23 -4 7
-6 20 -2 28 3 10 1 13 -6 8 -12 -7 -42 31 -42 55 0 10 -5 19 -11 21 -6 2 -14
33 -18 68 -4 36 -10 70 -14 76 -4 7 0 18 9 25 14 11 19 10 38 -12 l22 -26 43
38 c24 22 58 41 78 45 l35 7 -31 29 c-17 16 -31 32 -31 36 0 4 -14 22 -30 41
-17 18 -30 37 -30 40 0 4 39 6 88 5 48 -2 102 -3 120 -3z m-2425 -18 c-7 -2
-19 -2 -25 0 -7 3 -2 5 12 5 14 0 19 -2 13 -5z m2553 -3 c16 0 60 -66 70 -104
3 -15 2 -32 -3 -39 -6 -6 -13 -20 -17 -31 -5 -14 -2 -17 9 -12 8 3 14 0 12 -7
-1 -6 17 -21 40 -32 47 -23 93 -63 93 -81 0 -7 17 -26 37 -43 42 -35 28 -42
-33 -16 -19 8 -35 14 -37 14 -1 0 -15 3 -32 7 -26 6 -27 8 -10 15 17 7 18 8 2
8 -9 1 -25 5 -35 11 -9 5 -30 15 -47 21 -21 7 -26 12 -16 18 9 6 10 11 2 15
-6 4 -14 1 -17 -8 -10 -26 -34 -6 -34 29 0 18 4 35 8 37 5 2 12 15 16 30 5 23
2 30 -21 42 l-28 15 33 1 c36 0 43 19 12 38 -11 7 -20 21 -20 31 0 11 -8 28
-17 37 -17 17 -17 18 0 11 10 -4 25 -7 33 -7z m-49 -16 c-3 -3 -12 -4 -19 -1
-8 3 -5 6 6 6 11 1 17 -2 13 -5z m-961 -42 c21 -6 94 -20 162 -32 86 -16 122
-26 122 -36 0 -15 3 -16 125 -40 44 -8 85 -21 92 -27 13 -13 43 -100 43 -123
0 -17 -3 -16 -125 11 -110 25 -125 26 -125 10 0 -8 -3 -15 -6 -15 -3 0 -78 15
-167 34 -89 19 -179 38 -199 41 -20 4 -44 16 -54 26 -9 11 -35 24 -57 30 -35
9 -38 12 -24 27 8 9 25 37 38 62 l23 45 7 -30 c6 -29 7 -29 8 -4 0 14 4 29 7
32 8 8 78 2 130 -11z m979 -2 c0 -7 -7 -15 -15 -17 -13 -4 -13 -3 0 6 13 10
13 12 0 22 -13 9 -13 10 0 6 8 -2 15 -10 15 -17z m-2460 0 c3 -5 1 -10 -4 -10
-6 0 -11 5 -11 10 0 6 2 10 4 10 3 0 8 -4 11 -10z m-95 -20 c0 -5 -2 -10 -4
-10 -3 0 -8 5 -11 10 -3 6 -1 10 4 10 6 0 11 -4 11 -10z m985 -57 c-3 -27 -2
-43 3 -36 13 20 84 11 112 -14 13 -12 38 -25 55 -28 64 -13 302 -66 338 -76
l37 -10 -15 -29 c-8 -16 -15 -30 -15 -32 0 -6 79 -2 85 4 3 3 -9 9 -27 13 -18
4 -28 9 -21 12 7 2 85 -12 175 -32 203 -46 203 -46 190 -54 -7 -4 -4 -11 9
-19 17 -11 21 -9 31 13 13 28 33 31 106 14 74 -17 77 -18 64 -31 -6 -6 -9 -30
-5 -59 6 -47 5 -49 -19 -49 -13 0 -48 6 -78 14 -49 13 -96 22 -155 30 -11 2
-28 7 -38 11 -10 4 -20 5 -23 2 -3 -3 -22 3 -41 14 -19 11 -38 17 -43 14 -12
-7 -151 24 -183 42 -37 20 -250 73 -296 74 -54 0 -246 54 -243 67 1 7 -5 13
-13 13 -31 3 -35 4 -35 14 -1 12 31 147 37 158 10 17 13 4 8 -40z m1540 37
l20 -9 -20 0 c-11 0 -27 4 -35 9 -13 9 -13 10 0 9 8 0 24 -4 35 -9z m-2619
-29 c-3 -5 1 -14 9 -21 11 -9 15 -9 15 -1 0 7 5 9 10 6 6 -3 10 -13 10 -21 0
-11 -8 -14 -30 -10 -41 6 -40 -19 1 -28 17 -3 29 -10 27 -15 -7 -21 -100 -110
-121 -117 -12 -4 -32 -15 -45 -25 -13 -10 -30 -15 -38 -12 -8 3 -14 1 -14 -5
0 -9 -102 17 -115 30 -11 11 -13 58 -2 58 6 0 6 5 0 13 -10 12 -12 57 -3 56 3
0 17 4 31 9 26 11 144 26 191 25 15 0 25 3 23 8 -3 4 -1 10 5 14 5 3 10 15 10
26 0 13 7 19 21 19 11 0 18 -4 15 -9z m926 -41 c3 -16 3 -30 2 -30 -9 0 -24
42 -19 50 10 16 12 12 17 -20z m460 18 c-4 -4 -21 -3 -37 1 -30 9 -30 9 7 8
20 -1 34 -5 30 -9z m43 -8 c3 -5 2 -10 -4 -10 -5 0 -13 5 -16 10 -3 6 -2 10 4
10 5 0 13 -4 16 -10z m2653 -14 c-1 -14 -7 -24 -13 -23 -5 1 -9 -4 -7 -11 1
-8 -2 -11 -7 -8 -5 4 -12 2 -16 -3 -6 -11 -35 -3 -35 10 0 4 7 5 17 2 11 -4
14 -3 9 5 -4 8 0 12 11 12 15 0 16 2 3 10 -13 9 -13 11 0 20 26 17 40 11 38
-14z m-3829 -22 c3 -4 -5 -4 -19 -1 -14 4 -33 7 -43 7 -10 0 -16 4 -12 9 5 10
62 -2 74 -15z m3886 -4 c4 -6 2 -17 -4 -24 -6 -7 -7 -17 -3 -21 4 -5 2 -5 -5
-2 -6 4 -19 0 -28 -9 -27 -27 -42 -1 -18 30 11 14 23 22 27 19 3 -3 6 -1 6 5
0 15 17 16 25 2z m-3810 -18 c-3 -3 -11 0 -18 7 -9 10 -8 11 6 5 10 -3 15 -9
12 -12z m3719 -44 c11 -10 26 -18 33 -18 8 0 11 -5 8 -10 -6 -9 41 -35 58 -32
4 1 7 -2 7 -7 0 -5 9 -13 20 -16 11 -4 31 -17 43 -30 12 -13 29 -25 37 -27 8
-2 21 -11 28 -20 7 -10 23 -18 34 -18 21 0 21 1 3 13 -19 14 -12 43 7 31 6 -4
8 -2 5 3 -4 6 -1 16 7 22 11 9 18 8 30 -4 19 -19 20 -26 4 -23 -6 2 -19 -13
-29 -32 -14 -30 -21 -34 -45 -32 -29 4 -195 39 -225 48 -15 4 -86 137 -104
194 l-7 22 33 -23 c18 -13 42 -32 53 -41z m141 11 c4 -5 0 -18 -9 -28 -9 -10
-13 -21 -9 -25 7 -7 -22 2 -40 12 -9 4 31 52 44 52 4 0 11 -5 14 -11z m-862
-26 c9 -21 9 -27 -1 -31 -6 -2 -12 -10 -12 -18 0 -20 -26 -17 -34 4 -3 9 -8
22 -11 28 -6 12 20 44 36 44 5 0 15 -12 22 -27z m-823 -3 c0 -5 -4 -10 -10
-10 -5 0 -10 5 -10 10 0 6 5 10 10 10 6 0 10 -4 10 -10z m1751 -22 c6 -13 8
-20 4 -16 -13 12 -34 -12 -28 -30 3 -10 2 -13 -4 -6 -4 6 -16 13 -26 17 -10 4
-15 11 -12 17 4 6 12 7 18 4 7 -4 9 -4 5 1 -8 9 9 35 23 35 5 0 14 -10 20 -22z
m-3751 -24 c0 -2 -9 -4 -20 -4 -11 0 -20 4 -20 9 0 5 9 7 20 4 11 -3 20 -7 20
-9z m1317 10 c-3 -3 -12 -4 -19 -1 -8 3 -5 6 6 6 11 1 17 -2 13 -5z m50 -10
c-3 -3 -12 -4 -19 -1 -8 3 -5 6 6 6 11 1 17 -2 13 -5z m2444 -15 c6 -12 7 -19
1 -15 -12 7 -36 -20 -28 -33 3 -5 -3 -7 -14 -4 -31 8 -34 22 -9 49 28 29 35
30 50 3z m-3891 -9 c23 -6 40 -13 38 -16 -8 -8 -108 19 -108 29 0 5 6 7 14 4
8 -3 33 -11 56 -17z m429 5 c10 -10 -6 -12 -61 -8 -32 3 -58 10 -58 16 0 9
108 2 119 -8z m1058 9 c-3 -3 -12 -4 -19 -1 -8 3 -5 6 6 6 11 1 17 -2 13 -5z
m33 -15 c-11 -8 -5 -9 25 -4 30 4 36 3 25 -5 -11 -9 -7 -10 19 -5 24 5 32 4
29 -5 -5 -15 -5 -15 -85 0 -51 10 -63 15 -48 21 11 4 27 8 35 8 13 1 13 0 0
-10z m-1326 -8 c3 -5 15 -7 26 -4 11 3 20 0 20 -6 0 -6 -4 -11 -9 -11 -5 0 -8
-8 -7 -17 2 -12 12 -18 27 -18 13 0 27 -4 30 -8 3 -5 23 -9 45 -10 21 -1 42
-6 45 -10 3 -5 9 1 12 12 3 15 0 21 -11 21 -21 0 -13 6 21 14 17 4 27 2 27 -4
0 -6 -4 -8 -10 -5 -5 3 -10 1 -10 -4 0 -6 6 -11 13 -11 6 0 4 -5 -6 -11 -12
-7 -16 -17 -12 -30 6 -18 2 -19 -56 -15 -39 3 -67 10 -73 18 -19 26 -66 31
-102 12 -36 -20 -48 -16 -38 10 4 11 14 16 25 13 12 -3 19 0 19 9 0 8 5 14 10
14 6 0 10 7 10 15 0 8 -4 15 -10 15 -5 0 -10 5 -10 10 0 12 17 13 24 1z m371
-13 c7 -8 4 -9 -8 -4 -10 3 -32 6 -48 6 -16 0 -29 5 -29 11 0 14 70 3 85 -13z
m2205 -4 c0 -8 -4 -12 -10 -9 -5 3 -10 13 -10 21 0 8 5 12 10 9 6 -3 10 -13
10 -21z m-876 -170 c9 -13 16 -25 16 -27 0 -2 -20 0 -45 6 l-45 10 1 101 0
101 29 -83 c16 -46 36 -95 44 -108z m426 176 c-8 -5 -19 -10 -25 -10 -5 0 -3
5 5 10 8 5 20 10 25 10 6 0 3 -5 -5 -10z m-1640 -21 c19 0 29 -3 22 -6 -19 -7
-122 7 -122 17 0 5 15 4 32 -1 18 -5 49 -9 68 -10z m1579 -13 c-3 -3 -11 5
-18 17 -13 21 -12 21 5 5 10 -10 16 -20 13 -22z m-1910 8 c11 -10 -8 -9 -44 3
l-40 13 40 -6 c22 -3 42 -8 44 -10z m95 -11 c-9 -38 -13 -43 -32 -43 -16 1
-16 1 1 11 9 5 17 21 17 34 0 14 5 25 10 25 6 0 8 -11 4 -27z m2518 5 c-7 -7
-12 -8 -12 -2 0 14 12 26 19 19 2 -3 -1 -11 -7 -17z m-89 -19 c-17 -17 -37 -1
-22 17 8 10 15 12 23 4 7 -7 7 -13 -1 -21z m1131 -10 c-3 -5 -11 -6 -17 -2 -7
4 -5 -2 3 -12 14 -17 14 -18 -7 -6 -27 14 -29 9 -7 -13 8 -9 11 -16 6 -16 -5
0 -15 7 -22 15 -7 8 -17 12 -24 8 -6 -3 2 8 18 25 22 24 33 29 43 21 7 -6 10
-15 7 -20z m-3114 -9 c69 -16 114 -29 100 -29 -28 -1 -229 44 -238 53 -9 10 6
7 138 -24z m-1093 8 c-30 -77 -40 -98 -46 -98 -11 0 -36 20 -26 20 6 0 3 6 -7
13 -32 25 -26 49 17 62 53 17 68 18 62 3z m64 -9 c5 -8 9 -18 8 -24 0 -5 -5 0
-12 13 -7 12 -16 20 -19 17 -3 -4 -9 -2 -12 3 -3 6 1 9 10 8 8 -1 20 -9 25
-17z m42 7 c4 -10 0 -12 -15 -8 -15 4 -17 7 -6 13 17 11 15 11 21 -5z m647 -6
c0 -3 24 -6 53 -7 86 -3 97 -5 92 -12 -2 -4 46 -17 108 -29 169 -32 190 -34
219 -23 22 8 26 7 22 -3 -3 -8 5 -21 18 -30 l22 -16 -22 0 c-21 0 -22 -3 -22
-102 0 -57 -4 -98 -8 -92 -10 16 -43 28 -77 29 -22 0 -31 6 -35 25 -6 22 -7
21 -14 -15 -7 -35 -9 -37 -19 -20 -6 11 -17 25 -25 31 -8 6 -12 16 -8 22 4 7
2 12 -3 12 -6 0 -11 -9 -11 -19 0 -14 -5 -18 -21 -14 -20 6 -30 22 -43 77 -6
25 -5 28 13 23 12 -3 19 -1 15 4 -3 5 -12 9 -20 9 -10 0 -14 12 -14 40 0 22
-3 40 -7 40 -5 0 -8 -29 -8 -65 -1 -72 -9 -87 -43 -79 -20 6 -22 12 -22 74 0
45 -4 70 -12 73 -7 3 -4 6 7 7 11 1 -5 8 -35 15 -93 24 -90 25 -90 -60 0 -41
-2 -75 -5 -75 -2 0 -16 5 -30 12 -21 9 -25 18 -25 55 0 27 -4 42 -10 38 -6 -4
-10 5 -10 20 0 15 -4 34 -9 43 -8 15 -3 17 35 17 24 0 44 -2 44 -5z m2243 -40
c70 -52 90 -82 35 -54 -46 24 -97 64 -109 86 -15 28 1 22 74 -32z m-2846 3 l1
-28 -14 25 c-17 31 -17 41 -1 35 6 -3 13 -17 14 -32z m273 -8 c0 -19 -4 -37
-10 -40 -5 -3 -10 0 -10 8 0 8 -3 29 -6 46 -6 26 -4 30 10 25 10 -4 16 -18 16
-39z m2760 15 c18 -18 18 -20 3 -20 -26 0 -47 16 -39 29 10 15 13 14 36 -9z
m1084 11 c3 -4 -5 -18 -18 -30 -16 -15 -26 -19 -31 -12 -3 6 -12 8 -18 5 -7
-4 -1 5 12 19 25 27 45 34 55 18z m-3287 -7 c-3 -3 -12 -4 -19 -1 -8 3 -5 6 6
6 11 1 17 -2 13 -5z m323 -23 c0 -17 -4 -32 -9 -35 -5 -4 -7 3 -4 13 4 15 -1
20 -24 23 l-28 4 25 11 c37 17 40 16 40 -16z m-273 13 c-3 -3 -12 -4 -19 -1
-8 3 -5 6 6 6 11 1 17 -2 13 -5z m498 -63 c6 0 -3 6 -20 14 -16 8 -21 13 -10
11 92 -20 167 -39 205 -51 77 -25 194 -54 201 -49 4 2 20 -3 35 -11 16 -8 35
-15 42 -15 21 0 -7 -35 -40 -49 -24 -11 -40 -10 -99 3 -70 16 -95 14 -83 -5 6
-10 -24 -5 -76 13 -18 6 -12 6 19 3 26 -3 49 -1 57 6 16 13 18 29 4 29 -5 0
-10 -7 -10 -16 0 -11 -5 -14 -16 -10 -8 3 -44 13 -80 21 -36 8 -77 22 -92 31
-25 14 -20 15 83 11 109 -5 110 -5 54 9 -31 7 -117 23 -190 35 -74 11 -140 26
-146 31 -27 22 0 25 74 7 43 -10 83 -18 88 -18z m665 11 c0 -15 -2 -15 -10 -2
-13 20 -13 33 0 25 6 -3 10 -14 10 -23z m-1329 -14 c2 -21 -3 -93 -5 -96 -7
-6 -35 11 -40 23 -3 8 -2 30 1 49 4 26 11 36 24 36 11 0 19 -6 20 -12z m489 3
c0 -5 -8 -11 -17 -15 -10 -3 -24 -9 -32 -12 -8 -4 -12 -2 -9 7 2 7 15 16 29
20 13 4 25 7 27 8 1 1 2 -3 2 -8z m-663 -23 c-3 -8 -6 -5 -6 6 -1 11 2 17 5
13 3 -3 4 -12 1 -19z m190 -50 c-3 -7 -5 -2 -5 12 0 14 2 19 5 13 2 -7 2 -19
0 -25z m2324 -55 c20 -29 25 -48 11 -39 -4 2 -23 26 -42 52 -28 40 -30 45 -11
32 13 -9 32 -30 42 -45z m-82 3 c17 -21 31 -43 31 -49 0 -9 -45 48 -65 83 -12
21 -1 11 34 -34z m-2381 18 c13 -4 22 -14 22 -25 0 -12 7 -19 20 -19 11 0 20
-7 20 -15 0 -25 -94 17 -98 44 -4 22 0 24 36 15z m3249 0 c13 -4 21 -10 18
-14 -6 -10 -55 0 -55 11 0 10 7 11 37 3z m-2350 -20 c-3 -3 -12 -4 -19 -1 -8
3 -5 6 6 6 11 1 17 -2 13 -5z m1637 0 c17 -7 22 -34 6 -34 -5 0 -10 5 -10 11
0 5 -8 9 -17 8 -28 -2 -35 0 -28 11 7 11 26 13 49 4z m771 -4 c3 -6 -1 -7 -9
-4 -18 7 -21 14 -7 14 6 0 13 -4 16 -10z m-3131 -26 c9 -23 8 -24 -14 -24 -11
0 -20 2 -20 4 0 12 13 36 20 36 4 0 11 -7 14 -16z m3221 6 c13 -5 14 -9 5 -9
-8 0 -24 4 -35 9 -13 5 -14 9 -5 9 8 0 24 -4 35 -9z m-2855 -28 c0 -15 -2 -15
-10 -2 -13 20 -13 33 0 25 6 -3 10 -14 10 -23z m-1187 5 c3 -8 -1 -14 -8 -14
-7 0 -11 6 -8 14 3 7 6 13 8 13 2 0 5 -6 8 -13z m1265 -7 c11 -11 29 -23 41
-25 11 -3 31 -7 44 -11 12 -3 33 -7 47 -10 53 -10 220 -59 220 -64 0 -3 -15
-11 -32 -19 -18 -8 -47 -25 -64 -38 -43 -32 -124 -42 -158 -19 -14 9 -60 23
-101 33 l-77 16 6 31 c4 17 9 52 12 79 7 53 29 63 62 27z m2857 10 c25 -11 -1
-11 -35 0 -20 6 -21 8 -5 8 11 0 29 -3 40 -8z m-3236 -47 c-5 -25 -11 -48 -12
-50 -2 -2 -18 0 -35 3 -24 5 -32 12 -32 28 0 31 11 43 50 54 19 6 36 11 36 11
1 1 -3 -20 -7 -46z m2094 32 c20 -8 60 -15 89 -15 42 0 50 -3 40 -12 -22 -22
-199 -17 -247 6 l-40 19 35 7 c58 12 86 11 123 -5z m1194 -1 c-3 -3 -12 -4
-19 -1 -8 3 -5 6 6 6 11 1 17 -2 13 -5z m70 -20 c-3 -3 -12 -4 -19 -1 -8 3 -5
6 6 6 11 1 17 -2 13 -5z m40 -10 c-3 -3 -12 -4 -19 -1 -8 3 -5 6 6 6 11 1 17
-2 13 -5z m-4276 -31 c-12 -20 -14 -14 -5 12 4 9 9 14 11 11 3 -2 0 -13 -6
-23z m2936 -19 c-3 -3 -12 -4 -19 -1 -8 3 -5 6 6 6 11 1 17 -2 13 -5z m-1587
-168 c0 -2 -7 -9 -15 -16 -12 -10 -15 -10 -15 4 0 9 7 16 15 16 8 0 15 -2 15
-4z m1278 -5 c10 -6 12 -23 7 -67 -9 -85 -14 -106 -25 -99 -6 3 -10 2 -10 -4
0 -24 19 -18 30 9 l12 29 44 -22 c28 -14 44 -29 44 -41 0 -19 0 -19 -13 -1
-10 13 -16 15 -21 6 -4 -6 -11 -9 -16 -6 -4 3 -10 -2 -14 -10 -7 -20 3 -19 27
2 18 17 19 17 16 -7 -5 -30 -33 -38 -55 -16 -9 9 -11 16 -4 16 6 0 9 4 5 10
-8 13 -35 1 -35 -16 0 -8 -7 -14 -16 -14 -10 0 -14 6 -10 15 4 11 -1 15 -17
15 -25 0 -53 35 -36 45 5 4 16 2 23 -4 10 -8 16 -8 25 3 14 17 0 29 -22 20 -8
-3 -18 0 -23 7 -4 7 -3 10 4 5 18 -11 23 12 5 29 -13 14 -14 18 -3 25 8 5 17
7 20 5 4 -2 7 2 7 10 0 12 -3 12 -16 3 -12 -9 -11 -7 2 8 9 11 14 24 10 28 -5
4 -1 6 7 4 8 -1 14 3 13 10 -3 14 16 16 35 3z m-558 -33 c0 -18 -21 -48 -33
-48 -18 0 -36 35 -30 58 4 18 9 19 34 10 16 -5 29 -14 29 -20z m-74 -13 c24
-51 9 -91 -48 -128 l-28 -17 0 84 c0 72 3 85 18 89 35 9 41 6 58 -28z m-986
-60 c0 -8 -2 -15 -4 -15 -2 0 -6 7 -10 15 -3 8 -1 15 4 15 6 0 10 -7 10 -15z
m1520 -15 c0 -5 -5 -10 -11 -10 -5 0 -7 5 -4 10 3 6 8 10 11 10 2 0 4 -4 4
-10z m-1678 -24 c7 4 8 2 4 -5 -9 -13 -26 -5 -25 12 0 9 2 8 6 -1 2 -6 10 -9
15 -6z m35 -18 c-3 -8 -6 -5 -6 6 -1 11 2 17 5 13 3 -3 4 -12 1 -19z m1633 -5
c0 -19 -13 -9 -16 12 -1 8 2 13 7 9 5 -3 9 -12 9 -21z m-1516 1 c3 -8 2 -12
-4 -9 -6 3 -10 10 -10 16 0 14 7 11 14 -7z m103 -6 c-3 -8 -6 -5 -6 6 -1 11 2
17 5 13 3 -3 4 -12 1 -19z m-40 -10 c-3 -8 -6 -5 -6 6 -1 11 2 17 5 13 3 -3 4
-12 1 -19z m20 0 c-3 -8 -6 -5 -6 6 -1 11 2 17 5 13 3 -3 4 -12 1 -19z m-170
-10 c-3 -8 -6 -5 -6 6 -1 11 2 17 5 13 3 -3 4 -12 1 -19z m130 -10 c-3 -8 -6
-5 -6 6 -1 11 2 17 5 13 3 -3 4 -12 1 -19z m-25 -7 c7 11 9 11 6 1 -5 -17 -23
-17 -24 0 -1 9 1 8 4 -1 3 -12 5 -12 14 0z m82 -24 c3 -16 1 -25 -5 -22 -5 4
-9 18 -9 32 0 32 7 27 14 -10z m-267 1 c-3 -8 -6 -5 -6 6 -1 11 2 17 5 13 3
-3 4 -12 1 -19z m240 -10 c-3 -7 -5 -2 -5 12 0 14 2 19 5 13 2 -7 2 -19 0 -25z
m1649 -5 c-10 -10 -19 5 -10 18 6 11 8 11 12 0 2 -7 1 -15 -2 -18z m-1729 -25
c-3 -8 -6 -5 -6 6 -1 11 2 17 5 13 3 -3 4 -12 1 -19z m20 0 c-3 -8 -6 -5 -6 6
-1 11 2 17 5 13 3 -3 4 -12 1 -19z m-1300 -10 c-3 -8 -6 -5 -6 6 -1 11 2 17 5
13 3 -3 4 -12 1 -19z m1220 -10 c-3 -7 -5 -2 -5 12 0 14 2 19 5 13 2 -7 2 -19
0 -25z m13 -28 l-11 -25 6 25 c2 14 5 34 6 45 2 19 2 19 6 0 2 -12 -1 -32 -7
-45z m-31 28 c-1 -18 -2 -19 -6 -5 -2 9 -9 14 -15 11 -7 -4 -8 -2 -4 4 12 20
26 13 25 -10z m-1244 -8 c-6 -10 -45 -1 -45 10 0 4 11 5 25 2 14 -2 23 -8 20
-12z m1318 -5 c-3 -9 -8 -14 -10 -11 -3 3 -2 9 2 15 9 16 15 13 8 -4z m54 -7
c-3 -8 -6 -5 -6 6 -1 11 2 17 5 13 3 -3 4 -12 1 -19z m-1284 -5 c-7 -2 -19 -2
-25 0 -7 3 -2 5 12 5 14 0 19 -2 13 -5z m1264 -15 c-3 -8 -6 -5 -6 6 -1 11 2
17 5 13 3 -3 4 -12 1 -19z m50 -30 c-3 -8 -6 -5 -6 6 -1 11 2 17 5 13 3 -3 4
-12 1 -19z m-60 -20 c-3 -8 -6 -5 -6 6 -1 11 2 17 5 13 3 -3 4 -12 1 -19z
m-17 -65 c-11 -17 -11 -17 -6 0 3 9 1 17 -5 17 -5 0 -4 6 3 14 11 12 14 12 16
0 2 -7 -2 -21 -8 -31z m42 38 c7 11 8 9 6 -6 -4 -24 -22 -23 -25 2 -2 11 0 13
3 4 5 -11 8 -11 16 0z m-115 -33 c-3 -8 -6 -5 -6 6 -1 11 2 17 5 13 3 -3 4
-12 1 -19z m-22 -6 c-3 -3 -11 0 -18 7 -9 10 -8 11 6 5 10 -3 15 -9 12 -12z
m-100 -12 c3 -6 -1 -7 -9 -4 -18 7 -21 14 -7 14 6 0 13 -4 16 -10z m42 -72
c-3 -8 -6 -5 -6 6 -1 11 2 17 5 13 3 -3 4 -12 1 -19z m40 0 c-3 -8 -6 -5 -6 6
-1 11 2 17 5 13 3 -3 4 -12 1 -19z m27 6 c3 -8 2 -12 -4 -9 -6 3 -10 10 -10
16 0 14 7 11 14 -7z m-76 -39 c-3 -3 -9 2 -12 12 -6 14 -5 15 5 6 7 -7 10 -15
7 -18z m-1065 -30 c-3 -9 -8 -14 -10 -11 -3 3 -2 9 2 15 9 16 15 13 8 -4z
m1194 -7 c-3 -8 -6 -5 -6 6 -1 11 2 17 5 13 3 -3 4 -12 1 -19z m1697 16 c9 -3
16 -10 16 -15 0 -14 -34 -11 -56 6 -19 14 -19 14 3 15 12 0 28 -3 37 -6z
m-1677 -26 c-3 -8 -6 -5 -6 6 -1 11 2 17 5 13 3 -3 4 -12 1 -19z m-1456 -29
c-5 -13 -10 -19 -10 -12 -1 15 10 45 15 40 3 -2 0 -15 -5 -28z m150 -2 c-10
-9 -11 -8 -5 6 3 10 9 15 12 12 3 -3 0 -11 -7 -18z m92 8 c-3 -9 -8 -14 -10
-11 -3 3 -2 9 2 15 9 16 15 13 8 -4z m-50 -20 c-3 -9 -8 -14 -10 -11 -3 3 -2
9 2 15 9 16 15 13 8 -4z m1094 -7 c-3 -8 -6 -5 -6 6 -1 11 2 17 5 13 3 -3 4
-12 1 -19z m-1164 -3 c-3 -9 -8 -14 -10 -11 -3 3 -2 9 2 15 9 16 15 13 8 -4z
m1334 -37 c-3 -8 -6 -5 -6 6 -1 11 2 17 5 13 3 -3 4 -12 1 -19z"/>
<path d="M2310 2280 c0 -5 5 -10 11 -10 5 0 7 5 4 10 -3 6 -8 10 -11 10 -2 0
-4 -4 -4 -10z"/>
<path d="M2390 2160 c-14 -4 -47 -9 -75 -10 -61 -2 -107 -15 -85 -23 34 -12
69 -17 74 -8 3 4 32 11 64 15 42 5 59 11 59 21 0 16 -1 17 -37 5z"/>
<path d="M3073 2223 c9 -2 25 -2 35 0 9 3 1 5 -18 5 -19 0 -27 -2 -17 -5z"/>
<path d="M3160 2214 c8 -3 25 -10 37 -16 16 -8 29 -8 45 -1 21 10 21 11 3 11
-11 0 -38 3 -60 6 -22 3 -33 4 -25 0z"/>
<path d="M3050 2183 c-30 -2 -59 -9 -65 -14 -12 -12 142 -1 165 12 16 9 8 9
-100 2z"/>
<path d="M165 1900 c28 -12 37 -12 30 0 -3 6 -16 10 -28 9 -21 0 -21 -1 -2 -9z"/>
<path d="M508 1873 c7 -3 16 -2 19 1 4 3 -2 6 -13 5 -11 0 -14 -3 -6 -6z"/>
<path d="M1320 1638 c0 -7 -16 -30 -36 -50 -38 -41 -25 -53 19 -18 31 25 53
80 31 80 -7 0 -14 -6 -14 -12z"/>
<path d="M1308 1541 c-14 -17 -14 -20 -2 -25 15 -6 29 15 22 34 -2 6 -11 2
-20 -9z"/>
<path d="M2588 1973 c7 -3 16 -2 19 1 4 3 -2 6 -13 5 -11 0 -14 -3 -6 -6z"/>
<path d="M1440 1965 c-11 -13 -10 -14 4 -9 9 3 16 10 16 15 0 13 -6 11 -20 -6z"/>
<path d="M2063 1813 c9 -2 23 -2 30 0 6 3 -1 5 -18 5 -16 0 -22 -2 -12 -5z"/>
<path d="M2305 1770 c11 -5 29 -8 40 -8 16 0 15 2 -5 8 -34 11 -60 11 -35 0z"/>
<path d="M2833 1458 c-21 -27 -24 -38 -10 -32 8 3 20 -2 27 -11 7 -8 19 -15
28 -15 10 0 7 8 -11 26 -15 15 -24 30 -21 35 8 14 -2 11 -13 -3z"/>
<path d="M2750 1391 c0 -17 29 -58 46 -65 10 -4 14 2 14 22 0 19 -3 23 -9 14
-6 -11 -13 -7 -30 14 -11 14 -21 21 -21 15z"/>
<path d="M2045 1620 c44 -12 172 -40 181 -40 25 1 -31 21 -97 34 -78 17 -138
21 -84 6z"/>
<path d="M2006 1590 c15 -15 387 -90 413 -83 11 3 21 10 21 15 0 5 -8 7 -18 4
-10 -4 -106 12 -213 34 -213 44 -218 45 -203 30z"/>
<path d="M2268 1573 c7 -3 16 -2 19 1 4 3 -2 6 -13 5 -11 0 -14 -3 -6 -6z"/>
<path d="M2008 1558 c5 -5 16 -8 23 -6 8 3 3 7 -10 11 -17 4 -21 3 -13 -5z"/>
<path d="M2010 1528 c0 -13 171 -57 338 -88 63 -12 93 -1 85 30 -7 25 -20 26
-26 3 -4 -16 -5 -16 -6 0 -1 16 -7 18 -43 12 -33 -5 -40 -4 -28 5 12 9 6 10
-23 5 -29 -5 -37 -3 -32 5 5 9 1 10 -14 5 -11 -3 -26 -3 -33 1 -7 5 -26 7 -43
6 -19 -2 -25 0 -18 6 8 5 -1 8 -25 8 -20 0 -58 3 -84 8 -39 7 -48 5 -48 -6z"/>
<path d="M2190 1343 c0 -7 78 -31 120 -37 9 -1 20 -5 26 -8 5 -4 35 -10 65
-14 85 -10 47 10 -66 35 -55 12 -110 25 -122 28 -13 3 -23 1 -23 -4z"/>
<path d="M1386 1245 c4 -8 8 -15 10 -15 2 0 4 7 4 15 0 8 -4 15 -10 15 -5 0
-7 -7 -4 -15z"/>
<path d="M1755 1100 c3 -5 11 -10 16 -10 6 0 7 5 4 10 -3 6 -11 10 -16 10 -6
0 -7 -4 -4 -10z"/>
<path d="M1820 1090 c0 -5 5 -10 11 -10 5 0 7 5 4 10 -3 6 -8 10 -11 10 -2 0
-4 -4 -4 -10z"/>
<path d="M1706 1075 c-11 -8 -15 -15 -9 -15 6 0 16 7 23 15 16 19 11 19 -14 0z"/>
<path d="M1898 1033 c7 -3 16 -2 19 1 4 3 -2 6 -13 5 -11 0 -14 -3 -6 -6z"/>
<path d="M1867 1009 c7 -7 15 -10 18 -7 3 3 -2 9 -12 12 -14 6 -15 5 -6 -5z"/>
<path d="M4920 1219 c0 -5 5 -7 10 -4 6 3 10 8 10 11 0 2 -4 4 -10 4 -5 0 -10
-5 -10 -11z"/>
<path d="M3600 2645 c-6 -7 -33 -17 -58 -21 -97 -14 -344 -62 -349 -68 -12
-11 72 -6 211 14 77 11 141 18 144 16 6 -7 -123 -70 -195 -96 -35 -12 -63 -26
-63 -31 0 -4 19 -2 41 6 55 20 63 18 16 -4 l-38 -18 27 -18 c22 -14 31 -15 46
-6 10 6 24 9 30 5 7 -5 8 -2 3 6 -6 10 -2 12 18 8 14 -3 26 -2 25 1 -2 18 3
24 11 12 7 -11 28 -4 105 34 53 26 101 54 107 61 6 8 -30 -7 -80 -33 -50 -25
-93 -44 -96 -41 -5 4 140 104 169 117 5 2 15 -4 22 -14 8 -11 19 -15 30 -11
15 6 14 10 -12 38 -24 25 -79 58 -97 58 -3 0 -10 -7 -17 -15z m50 -14 c0 -27
-212 -152 -254 -151 -6 1 17 14 52 30 67 31 182 108 182 121 0 5 5 9 10 9 6 0
10 -4 10 -9z"/>
<path d="M4251 2144 c0 -11 3 -14 6 -6 3 7 2 16 -1 19 -3 4 -6 -2 -5 -13z"/>
<path d="M4580 980 c0 -6 7 -10 15 -10 8 0 15 2 15 4 0 2 -7 6 -15 10 -8 3
-15 1 -15 -4z"/>
<path d="M4060 955 c0 -14 3 -25 6 -25 3 0 117 -24 253 -54 135 -30 341 -75
456 -100 116 -25 284 -62 375 -82 231 -51 293 -64 305 -65 5 0 1 -5 -10 -10
-14 -6 -8 -7 22 -3 31 4 43 2 50 -10 13 -23 86 -26 91 -4 6 30 -40 47 -258 93
-118 25 -289 62 -380 81 -156 33 -210 52 -210 74 0 11 -42 77 -64 103 -9 9
-25 17 -37 17 -19 0 -18 -4 14 -65 19 -36 32 -65 28 -64 -20 1 -197 40 -261
57 -41 11 -120 30 -175 41 -55 12 -116 26 -136 31 -57 16 -69 13 -69 -15z"/>
<path d="M976 872 c-2 -4 -1 -14 5 -22 7 -12 9 -10 9 8 0 23 -5 28 -14 14z"/>
<path d="M991 820 c-1 -8 5 -32 13 -55 7 -22 21 -66 31 -97 10 -32 21 -55 26
-53 4 3 -4 40 -18 83 -30 92 -51 143 -52 122z"/>
<path d="M4048 763 c7 -3 16 -2 19 1 4 3 -2 6 -13 5 -11 0 -14 -3 -6 -6z"/>
<path d="M4748 763 c7 -3 16 -2 19 1 4 3 -2 6 -13 5 -11 0 -14 -3 -6 -6z"/>
<path d="M4130 746 c25 -8 58 -17 73 -20 15 -4 25 -11 22 -16 -3 -5 4 -11 15
-15 11 -3 20 -15 20 -26 0 -26 21 -34 190 -68 118 -25 499 -105 883 -187 38
-8 96 -21 130 -29 86 -20 91 -19 105 18 7 18 12 36 12 39 0 9 -101 34 -315 78
-110 23 -229 48 -265 56 -257 56 -489 105 -565 119 -49 9 -137 26 -195 37
-149 28 -161 29 -110 14z"/>
<path d="M4838 743 c7 -3 16 -2 19 1 4 3 -2 6 -13 5 -11 0 -14 -3 -6 -6z"/>
<path d="M4928 723 c7 -3 16 -2 19 1 4 3 -2 6 -13 5 -11 0 -14 -3 -6 -6z"/>
<path d="M5488 603 c7 -3 16 -2 19 1 4 3 -2 6 -13 5 -11 0 -14 -3 -6 -6z"/>
<path d="M1516 373 c-6 -14 -5 -15 5 -6 7 7 10 15 7 18 -3 3 -9 -2 -12 -12z"/>
<path d="M2966 133 c-6 -14 -5 -15 5 -6 7 7 10 15 7 18 -3 3 -9 -2 -12 -12z"/>
<path d="M3870 61 c0 -6 4 -13 10 -16 6 -3 7 1 4 9 -7 18 -14 21 -14 7z"/>
<path d="M3886 17 c3 -10 9 -15 12 -12 3 3 0 11 -7 18 -10 9 -11 8 -5 -6z"/>
<path d="M3930 10 c-9 -6 -10 -10 -3 -10 6 0 15 5 18 10 8 12 4 12 -15 0z"/>
</g>
</svg>
