<?xml version="1.0" standalone="no"?>
<!DOCTYPE svg PUBLIC "-//W3C//DTD SVG 20010904//EN"
 "http://www.w3.org/TR/2001/REC-SVG-20010904/DTD/svg10.dtd">
<svg version="1.0" xmlns="http://www.w3.org/2000/svg"
 width="600.000000pt" height="503.000000pt" viewBox="0 0 600.000000 503.000000"
 preserveAspectRatio="xMidYMid meet">

<g transform="translate(0.000000,503.000000) scale(0.100000,-0.100000)"
fill="#C4B39A" stroke="none">
<path d="M1925 3918 c-46 -26 -174 -151 -190 -186 -9 -20 -26 -55 -36 -78 -37
-79 -46 -68 256 -325 55 -47 116 -98 135 -113 43 -35 121 -103 313 -273 82
-73 156 -133 164 -133 7 0 16 7 19 15 4 8 10 15 16 15 5 0 48 -34 96 -75 48
-41 91 -75 97 -75 5 0 26 14 45 31 19 17 27 28 17 25 -20 -6 -77 19 -77 34 0
5 -21 21 -47 37 -68 38 -95 70 -87 96 11 31 12 57 3 51 -7 -4 -40 22 -146 117
-18 15 -33 33 -33 38 0 5 -5 13 -12 17 -7 5 -8 2 -3 -7 7 -12 -32 18 -60 46
-5 5 -26 22 -45 36 -19 15 -55 45 -80 68 -25 22 -51 41 -58 41 -8 0 -10 5 -6
12 5 8 2 9 -10 5 -9 -4 -15 -3 -11 2 3 5 -15 27 -41 48 -25 21 -80 68 -122
104 -43 36 -90 76 -106 90 -16 13 -51 43 -78 67 -27 23 -53 40 -58 37 -22 -13
1 52 25 73 27 23 29 23 38 5 17 -30 36 -45 48 -37 8 4 9 3 5 -4 -4 -7 -1 -12
8 -12 9 0 16 -5 16 -11 0 -5 5 -7 12 -3 6 4 8 3 5 -4 -8 -12 48 -62 69 -62 8
0 20 11 26 25 13 29 21 31 38 10 9 -11 9 -22 2 -45 -12 -33 -6 -36 32 -19 20
9 29 9 42 -1 14 -12 12 -17 -16 -42 -28 -24 -30 -29 -15 -34 9 -4 32 1 51 10
40 19 48 20 39 6 -3 -5 0 -7 8 -4 25 9 40 -22 28 -57 -6 -18 -11 -36 -11 -40
0 -16 23 -9 47 13 l24 22 25 -27 c14 -15 29 -27 35 -27 5 0 15 -11 21 -25 6
-14 18 -25 27 -25 9 -1 36 -18 60 -40 38 -33 43 -41 31 -54 -10 -13 -16 -14
-27 -4 -11 9 -16 9 -24 -3 -13 -20 -11 -27 10 -38 13 -8 28 -5 54 8 33 17 36
17 57 1 21 -16 22 -21 12 -61 -11 -43 -8 -64 8 -54 4 3 11 -2 14 -11 3 -8 11
-12 16 -9 6 4 9 1 8 -6 -2 -7 9 -19 24 -26 15 -7 30 -22 33 -33 4 -11 11 -18
16 -15 5 4 9 1 9 -5 0 -14 29 1 55 30 11 12 42 43 68 69 l48 47 -72 65 c-40
35 -84 73 -99 84 -15 11 -56 45 -91 76 -138 121 -370 318 -464 394 -54 44
-113 95 -131 113 -34 33 -64 40 -99 20z"/>
<path d="M2306 3402 c-3 -6 -1 -14 5 -17 15 -10 25 3 12 16 -7 7 -13 7 -17 1z"/>
<path d="M2371 3342 c-12 -22 -6 -32 21 -32 21 0 22 8 3 33 -13 18 -14 18 -24
-1z"/>
<path d="M1234 3134 c-17 -8 -65 -48 -106 -88 -54 -52 -80 -86 -93 -122 -11
-27 -25 -58 -32 -70 -27 -42 11 -93 156 -210 13 -10 33 -28 45 -39 11 -11 59
-51 106 -89 47 -38 92 -77 100 -86 8 -9 38 -34 65 -56 28 -21 55 -44 60 -50 6
-7 85 -77 177 -157 l166 -145 24 25 23 24 25 -28 c14 -15 48 -46 74 -67 26
-21 56 -48 66 -58 17 -19 19 -18 61 23 24 23 37 37 28 30 -21 -15 -56 -2 -89
34 -14 15 -38 34 -55 42 -16 8 -40 24 -52 35 -12 11 -26 17 -32 14 -6 -4 -4 9
5 29 12 30 13 40 1 63 -8 17 -19 26 -30 24 -10 -2 -21 6 -27 20 -5 13 -9 19
-9 15 -1 -5 -21 8 -46 28 -25 21 -43 41 -40 45 3 4 -2 13 -10 20 -8 7 -15 9
-15 6 0 -4 -10 -1 -22 6 -13 7 -27 11 -31 10 -5 -1 -6 1 -3 6 3 5 -30 37 -72
73 -104 86 -151 128 -189 167 -17 17 -36 32 -41 32 -5 0 -17 10 -28 21 -33 37
-131 109 -139 101 -3 -4 -5 -2 -3 5 3 13 -130 133 -149 133 -21 0 -24 19 -9
48 29 57 41 58 88 10 53 -53 95 -88 107 -88 5 0 11 -7 15 -15 8 -21 35 -7 42
21 7 27 26 31 43 10 9 -10 9 -20 0 -40 -16 -35 -6 -43 27 -21 24 15 28 16 42
1 15 -14 14 -18 -13 -46 -26 -27 -27 -30 -10 -36 11 -5 31 0 48 10 27 15 32
15 54 0 20 -13 23 -21 18 -42 -21 -80 -15 -89 31 -47 29 27 33 26 82 -19 35
-33 39 -52 18 -82 -16 -22 -4 -46 20 -37 17 6 19 30 2 35 -15 5 -1 28 16 28 8
0 33 -17 56 -38 46 -41 48 -67 4 -56 -17 4 -24 2 -24 -7 1 -35 29 -42 89 -23
16 5 22 4 18 -3 -5 -7 0 -9 12 -6 27 7 34 -11 20 -57 -11 -35 -10 -42 6 -60
10 -11 20 -18 23 -16 2 3 22 -15 45 -40 22 -24 48 -44 57 -44 17 0 160 135
160 151 0 4 -9 14 -21 22 -11 8 -59 49 -107 90 -72 63 -240 206 -512 437 -25
21 -69 58 -99 82 -30 23 -74 62 -99 86 -50 45 -70 50 -118 26z"/>
<path d="M2790 3036 c0 -9 7 -16 16 -16 9 0 14 5 12 12 -6 18 -28 21 -28 4z"/>
<path d="M2830 3014 c0 -8 25 -28 54 -45 28 -17 11 6 -24 31 -17 12 -30 18
-30 14z"/>
<path d="M2967 2779 c-21 -24 -22 -39 -1 -39 8 0 12 5 9 10 -3 6 1 10 9 10 9
0 16 6 16 14 0 24 -15 26 -33 5z"/>
<path d="M1626 2621 c-4 -7 -5 -15 -2 -18 9 -9 19 4 14 18 -4 11 -6 11 -12 0z"/>
<path d="M2130 2240 c19 -16 39 -30 45 -30 5 0 -6 13 -25 30 -19 16 -39 29
-45 29 -5 0 6 -13 25 -29z"/>
<path d="M2264 1978 c-16 -18 -22 -27 -13 -20 9 6 19 9 22 5 4 -3 7 -1 7 5 0
7 7 12 15 12 8 0 15 7 15 15 0 23 -13 18 -46 -17z"/>
<path d="M2146 1904 c-5 -14 -4 -15 9 -4 17 14 19 20 6 20 -5 0 -12 -7 -15
-16z"/>
</g>
</svg>
